<?xml version="1.0" encoding="UTF-8" standalone="no"?>
<svg version="1.1"
  baseprofile="full"
  xmlns="http://www.w3.org/2000/svg"
  xmlns:xlink="http://www.w3.org/1999/xlink"
  xmlns:ev="http://www.w3.org/2001/xml-events"
  width="650"
  height="900"
  viewBox="0 0 650 900"
>
<defs>
<clipPath id="ClipPath5">
<polygon points="442.394,488.143 587.5,288.422 442.394,88.6997 207.606,164.987 207.606,411.857" />
</clipPath>
</defs>
<rect width="650" height="900" fill="#ffffff" />
<line x1="0" y1="878.756" x2="650" y2="667.558" stroke="black" stroke-width="1" stroke-dasharray="10,10" />
<line x1="0" y1="344.401" x2="650" y2="555.599" stroke="black" stroke-width="1" stroke-dasharray="10,10" />
<line x1="0" y1="232.442" x2="650" y2="21.2443" stroke="black" stroke-width="1" stroke-dasharray="10,10" />
<line x1="442.394" y1="88.6997" x2="650" y2="374.445" stroke="black" stroke-width="1" stroke-dasharray="10,10" />
<line x1="207.606" y1="811.3" x2="0" y2="525.555" stroke="black" stroke-width="1" stroke-dasharray="10,10" />
<line x1="442.394" y1="488.143" x2="587.5" y2="288.422" stroke="black" stroke-width="1" stroke-dasharray="10,10" />
<line x1="207.606" y1="411.857" x2="62.5" y2="611.578" stroke="black" stroke-width="1" stroke-dasharray="10,10" />
<line x1="207.606" y1="164.987" x2="207.606" y2="411.857" stroke="black" stroke-width="1" stroke-dasharray="10,10" />
<line x1="442.394" y1="735.013" x2="442.394" y2="488.143" stroke="black" stroke-width="1" stroke-dasharray="10,10" />
<g clip-path="url(#ClipPath5)">
<path d="M -129.812,279.264 C -130.12,278.961 -130.438,278.659 -130.767,278.36 C -131.761,277.516 -132.837,276.691 -133.992,275.884 C -135.97,274.657 -138.136,273.488 -140.482,272.383 C -143.836,271.033 -147.466,269.816 -151.35,268.743 C -156.333,267.658 -161.594,266.817 -167.075,266.237 C 1194.56,-6.27478 1103.79,13.2954 1023.95,30.5083 C 959.159,44.4782 901.525,56.9043 850.208,67.9684 C 804.228,77.882 762.807,86.8123 724.714,95.0254 C 691.81,102.12 662.085,108.528 634.708,114.431 C 609.166,119.938 585.466,125.048 563.278,129.831 C 542.513,134.308 523.035,138.508 504.515,142.501 C 487.594,146.149 471.252,149.673 455.805,153.003 C 440.316,156.343 425.39,159.561 411.048,162.653 C 397.104,165.659 383.303,168.635 370.046,171.493 C 357.099,174.284 344.512,176.998 332.578,179.571 C 320.488,182.178 308.604,184.74 297.229,187.193 C 285.325,189.759 273.944,192.213 262.446,194.692 C 251.17,197.123 240.043,199.522 229.448,201.806 C 218.058,204.262 206.656,206.72 195.255,209.178 C 183.915,211.623 172.524,214.079 161.029,216.558 C 148.327,219.296 135.376,222.088 122.04,224.964 C 108.819,227.814 94.8613,230.824 81.4379,233.718 C 66.4934,236.94 51.0977,240.259 35.2525,243.675 C 17.9068,247.415 -1.30222,251.557 -22.6007,256.149 C -44.3229,260.832 -70.2682,266.426 -129.812,279.264" fill="#ffffff" stroke="#ffffff" />
<path class="nz" d="M 209.868,88.1801 C 210.343,88.6109 210.837,88.8508 211.324,88.9988 C 211,89.8199 210.463,88.7358 210.07,89.2883 C 210.516,89.9509 211.014,89.4147 211.441,90.175 C 210.893,89.711 209.934,89.24 209.491,89.9968 C 210.068,91.039 210.778,93.3468 211.56,93.4328 C 212.457,93.531 212.984,95.2054 212.031,96.0596 C 212.368,96.6463 212.912,96.7013 213.19,97.4335 C 213.637,98.617 212.733,98.6743 212.539,99.3338 C 212.916,99.4827 213.69,100.576 213.971,101.151 C 214.202,101.625 213.762,102.016 214.17,102.668 C 215.307,104.494 216.676,105.073 217.929,106.215 C 218.166,106.431 218.809,106.159 219.102,106.304 C 219.754,106.627 220.381,107.324 221.046,107.443 C 221.657,107.552 222.238,107.301 222.829,107.866 C 223.356,108.369 223.854,109.457 224.463,109.025 C 224.187,108.83 223.914,108.614 223.645,108.374 C 225.243,109.257 226.915,108.342 228.507,108.473 C 229.252,108.533 229.985,108.981 230.728,108.941 C 231.572,108.896 232.373,108.229 233.229,108.153 C 234.798,108.013 236.223,109.276 237.676,110.264 C 238.405,110.763 239.152,111.69 239.886,112.027 C 240.377,112.252 241.437,111.982 241.381,113.618 C 241.113,113.438 240.848,113.236 240.587,113.013 C 241.255,113.435 241.436,115.395 242,115.82 C 243.256,116.782 242.858,114.855 242.529,113.486 C 243.123,114.123 243.853,112.705 244.463,112.727 C 245.513,112.765 246.577,113.858 247.588,114.322 C 248.491,114.738 249.361,114.548 250.275,114.583 C 251.078,114.669 251.768,115.299 252.535,115.721 C 253.123,116.045 253.521,116.115 254.115,115.944 C 254.885,115.72 255.578,116.594 256.304,116.794 C 257.145,117.028 257.717,115.227 258.527,115.266 C 259.36,115.308 260.032,116.734 260.906,116.299 C 260.512,116.385 258.993,115.522 259.135,114.405 C 259.596,115.021 260.557,116.392 261.109,115.125 C 260.682,114.312 260.38,114.915 259.974,114.478 C 259.741,114.229 258.862,113.844 259.615,114.808 C 259.304,114.312 258.91,114.064 258.577,113.627 C 258.972,113.81 260.419,114.354 259.852,113.142 C 260.139,113.5 260.503,113.625 260.85,113.577 C 260.237,112.72 259.451,112.554 258.779,111.895 C 258.141,111.269 257.056,111.544 256.718,110.041 C 257.375,109.581 258.759,109.724 259.197,108.455 C 258.98,108.329 258.215,107.218 258.708,106.735 C 259.412,106.042 260.266,106.85 260.611,108.009 C 260.287,105.859 257.802,104.501 256.742,104.396 C 256.077,104.33 255.419,104.628 254.76,104.823 C 253.853,105.09 253.028,104.772 252.127,104.603 C 251.213,104.431 250.627,103.72 249.83,102.926 C 249.086,102.186 248.195,102.503 247.393,102.617 C 245.486,102.884 243.659,102.759 241.861,102.11 C 241.077,101.83 240.378,101.331 239.641,100.641 C 238.811,99.8676 237.897,99.7825 237.027,99.2858 C 235.145,98.2201 233.339,97.1458 231.447,95.8392 C 229.64,94.6 227.902,92.6824 226.023,91.8437 C 225.252,91.5013 222.474,89.5757 222.202,91.7633 C 222.51,89.7939 220.717,90.2914 220.257,89.9559 C 219.762,89.5977 218.087,88.3663 218.046,89.6027 C 217.774,88.7876 217.191,88.5474 216.8,88.4728 C 216.375,88.3919 215.572,88.2463 216.26,89.321 C 215.688,88.4617 215.467,89.9555 214.941,89.8768 C 215.504,89.6936 215.5,89.4171 214.928,89.0471 C 215.09,88.714 215.227,87.493 214.826,87.971 C 214.426,88.4457 213.679,87.9771 213.126,87.8737 C 213.476,88.6972 213.966,88.8158 214.386,89.3069 C 213.917,89.0255 213.456,88.6281 212.985,88.3526 C 213.194,88.8884 213.446,89.2773 213.74,89.5182 C 213.422,89.3502 213.111,89.1039 212.808,88.7764 C 213.73,90.7094 211.849,88.5962 211.565,88.2857 C 210.975,87.6376 210.285,87.0871 209.868,88.1801" fill="#808080" stroke="#ffffff" />
<path class="nz" d="M 262.17,113.209 C 261.718,112.915 261.201,112.439 260.726,113.105 C 261.144,113.643 261.695,113.505 262.17,113.209" fill="#808080" stroke="#ffffff" />
<path class="nz" d="M 261.013,118.671 C 260.78,118.988 260.543,119.295 260.304,119.592 C 260.656,119.768 260.871,120.342 261.213,120.547 C 261.015,121.101 260.75,121.354 260.418,121.306 C 260.426,123.087 262.221,123.52 262.877,123.833 C 264.342,124.535 265.704,124.861 267.22,125.156 C 267.876,125.284 268.735,125.283 269.283,125.929 C 269.738,126.468 270.358,125.992 270.874,126.138 C 271.517,126.322 272.032,126.844 272.721,126.879 C 273.557,126.922 274.412,126.711 275.24,126.815 C 274.739,124.98 277.201,125.583 277.54,125.715 C 278.32,126.02 280.69,128.426 279.082,129.966 C 280.083,130.419 281.152,128.6 282.18,129.199 C 282.546,129.413 282.834,129.888 283.189,130.132 C 283.816,130.563 284.397,130.251 285.082,130.114 C 286.107,129.907 287.235,129.331 288.237,129.69 C 288.743,129.873 289.017,129.357 288.979,128.43 C 288.926,127.203 287.897,126.697 287.36,126.339 C 286.016,125.448 284.381,125.386 284.017,122.315 C 283.926,121.554 283.549,117.325 283.871,116.736 C 284.104,116.308 288.031,114.598 287.328,113.65 C 287.683,113.706 288.025,113.881 288.335,114.153 C 288.149,113.743 287.931,113.396 287.682,113.114 C 288.084,112.717 288.506,112.287 288.673,111.433 C 288.327,111.104 288.294,111.281 288.108,111.784 C 287.886,112.384 287.23,112.169 286.925,112.322 C 286.215,112.678 285.314,114.072 284.671,113.018 C 284.337,112.473 285.384,111.832 285.555,111.606 C 286.044,110.958 285.177,108.667 284.899,108.239 C 284.94,108.176 285.611,108.538 285.923,108.404 C 286.413,108.192 286.74,107.96 287.241,107.85 C 287.613,107.766 288.149,108.499 288.392,107.651 C 288.65,106.75 289.197,105.047 289.829,105.105 C 289.691,104.721 289.619,104.306 289.9,104.108 C 290.339,103.796 290.256,105.198 290.256,105.724 C 291.226,105.02 292.146,104.047 292.986,102.815 C 292.775,102.528 292.597,102.186 292.451,101.788 C 292.369,102.057 292.285,102.325 292.199,102.589 C 292.08,102.438 291.982,102.249 291.908,102.022 C 292.232,101.741 292.669,100.761 292.929,101.647 C 292.671,100.79 293.689,99.1264 292.597,99.3305 C 293.366,99.1498 292.188,95.8806 293.102,97.326 C 292.949,96.2899 292.244,96.855 291.826,96.6055 C 292.465,96.525 293.56,94.435 293.855,93.449 C 294.014,93.9719 294.327,94.0858 294.639,93.8935 C 294.382,93.5662 293.634,91.7195 293.362,92.1203 C 293.037,92.5973 292.858,93.3559 292.595,93.9318 C 292.151,94.9009 290.958,97.3246 290.348,95.6904 C 289.991,96.5474 289.532,97.2518 289.097,97.9654 C 289.754,97.6973 290.237,99.1916 290.893,98.4983 C 290.176,99.5878 289.621,97.5229 288.805,98.5754 C 287.727,100.075 287.255,102.576 285.996,103.825 C 286.356,105.121 287.01,103.598 287.304,102.859 C 287.424,103.402 287.369,104.043 287.176,104.558 C 287.821,103.413 287.459,105.168 288.084,105.173 C 287.732,104.859 287.377,104.646 287.67,105.825 C 287.415,105.713 287.278,105.281 287.037,105.135 C 286.786,104.983 286.348,105.671 287.015,105.934 C 286.525,105.929 286.085,106.531 285.594,106.501 C 285.673,105.92 285.848,105.457 286.123,105.114 C 285.57,104.378 284.151,107.123 283.606,107.501 C 283.803,108.13 284.759,108.317 284.411,109.351 C 284.167,110.07 283.164,109.383 283.653,108.343 C 283.313,108.152 282.081,108.733 282.444,109.761 C 282.078,109.357 281.574,109.738 281.199,110.063 C 280.979,110.261 280.759,110.463 280.541,110.67 C 280.082,111.065 279.921,110.61 279.492,110.776 C 279.123,110.936 278.649,111.685 278.308,111.746 C 278.216,111.553 278.127,111.354 278.04,111.15 C 277.661,111.115 277.274,111.162 276.89,111.23 C 275.722,111.437 274.457,112.456 273.31,112.019 C 272.201,111.597 271.424,109.533 270.274,108.98 C 269.779,108.743 269.224,108.786 268.78,109.496 C 268.28,110.293 268.742,111.368 268.717,112.28 C 268.675,113.642 268.4,114.295 268.679,115.643 C 268.949,116.965 268.515,118.048 267.856,118.624 C 266.524,119.809 265.031,119.308 263.706,118.983 C 263.163,118.85 262.468,119.206 261.98,118.697 C 261.503,118.204 260.819,117.785 260.244,118.119 C 260.351,118.796 260.68,118.941 261.013,118.671" fill="#808080" stroke="#ffffff" />
<path class="nz" d="M 286.671,110.742 C 286.475,110.482 286.261,110.273 286.031,110.116 C 286.058,110.789 286.327,111.016 286.671,110.742" fill="#808080" stroke="#ffffff" />
<path class="nz" d="M 290.976,110.48 C 290.461,110.08 289.335,111.414 289.691,111.657 C 290.035,111.893 290.652,110.714 290.976,110.48" fill="#808080" stroke="#ffffff" />
<path class="nz" d="M 263.89,163.24 C 263.738,163.453 263.597,163.69 263.465,163.95 C 263.774,164.194 264.103,164.39 264.311,164.878 C 264.438,163.93 265.534,162.642 265.356,164.194 C 265.189,164.248 265.027,164.267 264.869,164.253 C 265.289,164.268 265.699,164.354 266.072,164.578 C 265.607,163.98 265.484,161.669 264.585,162.447 C 264.792,162.643 264.912,162.974 264.946,163.439 C 264.537,163.807 264.157,163.627 263.89,163.24" fill="#808080" stroke="#ffffff" />
<path class="nz" d="M 263.019,165.587 C 263.199,165.773 263.26,165.898 263.525,165.574 C 263.359,165.566 263.19,165.57 263.019,165.587" fill="#808080" stroke="#ffffff" />
<path class="fj" d="M 400.153,82.711 C 400.335,82.8315 400.517,82.9514 400.698,83.0727 C 400.6,82.5381 400.471,82.6522 400.153,82.711" fill="#808080" stroke="#ffffff" />
<path class="fj" d="M 402.38,83.6027 C 402.692,83.9412 403.039,84.1921 403.421,84.3555 C 403.115,84.0043 402.768,83.7542 402.38,83.6027" fill="#808080" stroke="#ffffff" />
<path class="fj" d="M 394.835,87.0186 C 394.713,88.6428 394.533,90.1509 395.181,91.3469 C 395.609,92.1401 396.285,94.1133 396.879,94.526 C 397.291,94.8111 397.319,94.4769 397.488,93.9668 C 397.573,93.7123 398.334,93.4122 398.564,93.282 C 399.162,92.9438 400.401,91.2229 399.796,90.5469 C 401.201,90.9286 399.222,86.6605 398.999,86.2911 C 398.3,85.1353 394.552,83.3715 394.835,87.0186" fill="#808080" stroke="#ffffff" />
<path class="fj" d="M 389.79,92.8704 C 390.087,93.1417 390.394,93.3906 390.711,93.6173 C 391.023,93.8519 390.788,94.721 391.069,95.0554 C 392.044,94.0077 390.362,92.0559 389.7,92.2105 C 389.73,92.4305 389.759,92.6499 389.79,92.8704" fill="#808080" stroke="#ffffff" />
<path class="fj" d="M 398.805,94.5018 C 398.958,94.6751 399.124,94.8201 399.303,94.9348 C 399.532,94.0475 399.366,93.903 398.805,94.5018" fill="#808080" stroke="#ffffff" />
<path class="fj" d="M 409.454,99.4233 C 409.158,97.1602 407.65,96.2888 407.053,94.3691 C 406.724,93.3169 406.087,92.8591 405.455,92.2557 C 404.945,91.7701 404.884,90.1331 403.966,90.9199 C 404.252,91.764 403.556,92.1749 403.111,92.4335 C 403.442,93.5448 406.031,95.0162 405.11,96.1551 C 404.62,96.7605 405.62,98.0793 405.779,98.4294 C 406.349,99.679 406.5,99.847 407.702,99.6032 C 407.293,98.9673 405.52,98.5634 405.884,97.1748 C 406.989,98.1449 408.425,98.2943 409.454,99.4233" fill="#808080" stroke="#ffffff" />
<path class="fj" d="M 397.423,98.9471 C 397.861,99.126 398.323,98.6911 398.293,97.9161 C 397.974,98.201 397.685,98.544 397.423,98.9471" fill="#808080" stroke="#ffffff" />
<path class="fj" d="M 395.142,103.606 C 395.318,103.712 395.502,103.793 395.694,103.849 C 395.685,103.293 395.448,103.162 395.142,103.606" fill="#808080" stroke="#ffffff" />
<path class="ws" d="M 431.373,141.073 C 431.193,140.788 431.137,140.437 431.202,140.019 C 430.269,140.815 429.378,142.347 430.179,143.374 C 430.525,143.819 431.09,143.645 431.497,143.116 C 432.06,142.381 431.548,141.659 431.373,141.073" fill="#808080" stroke="#ffffff" />
<path class="ws" d="M 429.082,148.517 C 430.422,148.263 430.304,145.349 429.635,144.705 C 428.758,145.875 429.06,147.282 429.082,148.517" fill="#808080" stroke="#ffffff" />
<path class="to" d="M 386.428,137.305 C 386.718,137.38 387.002,137.472 387.281,137.583 C 386.644,137.348 387.241,136.506 387.01,135.913 C 386.742,136.333 386.548,136.797 386.428,137.305" fill="#808080" stroke="#ffffff" />
<path class="to" d="M 385.636,138.808 C 385.797,138.697 385.943,138.551 386.073,138.369 C 385.927,138.516 385.782,138.662 385.636,138.808" fill="#808080" stroke="#ffffff" />
<path class="nu" d="M 402.305,140.617 C 402.178,140.174 401.869,140.063 401.518,140.421 C 401.748,140.601 402.01,140.667 402.305,140.617" fill="#808080" stroke="#ffffff" />
<path class="wf" d="M 429.994,123.655 C 429.875,123.17 429.549,123.02 429.162,123.367 C 429.4,123.581 429.677,123.678 429.994,123.655" fill="#808080" stroke="#ffffff" />
<path class="as" d="M 427.797,152.894 C 428.036,153.056 428.276,153.217 428.516,153.379 C 428.422,152.987 428.143,152.8 427.797,152.894" fill="#808080" stroke="#ffffff" />
</g>
</svg>
