<?xml version="1.0" encoding="UTF-8" standalone="no"?>
<svg version="1.1"
  baseprofile="full"
  xmlns="http://www.w3.org/2000/svg"
  xmlns:xlink="http://www.w3.org/1999/xlink"
  xmlns:ev="http://www.w3.org/2001/xml-events"
  width="650"
  height="900"
  viewBox="0 0 650 900"
>
<defs>
<clipPath id="ClipPath5">
<polygon points="442.394,488.143 587.5,288.422 442.394,88.6997 207.606,164.987 207.606,411.857" />
</clipPath>
</defs>
<rect width="650" height="900" fill="#ffffff" />
<line x1="0" y1="878.756" x2="650" y2="667.558" stroke="black" stroke-width="1" stroke-dasharray="10,10" />
<line x1="0" y1="344.401" x2="650" y2="555.599" stroke="black" stroke-width="1" stroke-dasharray="10,10" />
<line x1="0" y1="232.442" x2="650" y2="21.2443" stroke="black" stroke-width="1" stroke-dasharray="10,10" />
<line x1="442.394" y1="88.6997" x2="650" y2="374.445" stroke="black" stroke-width="1" stroke-dasharray="10,10" />
<line x1="207.606" y1="811.3" x2="0" y2="525.555" stroke="black" stroke-width="1" stroke-dasharray="10,10" />
<line x1="442.394" y1="488.143" x2="587.5" y2="288.422" stroke="black" stroke-width="1" stroke-dasharray="10,10" />
<line x1="207.606" y1="411.857" x2="62.5" y2="611.578" stroke="black" stroke-width="1" stroke-dasharray="10,10" />
<line x1="207.606" y1="164.987" x2="207.606" y2="411.857" stroke="black" stroke-width="1" stroke-dasharray="10,10" />
<line x1="442.394" y1="735.013" x2="442.394" y2="488.143" stroke="black" stroke-width="1" stroke-dasharray="10,10" />
<g clip-path="url(#ClipPath5)">
<path class="id" d="M 289.746,478.918 C 289.473,478.825 288.53,479.05 288.727,479.635 C 288.822,479.918 289.901,480.199 290.165,480.363 C 290.495,480.568 290.883,480.723 291.338,480.463 C 291.159,481.215 292.104,481.405 292.58,481.454 C 292.83,481.48 293.07,481.911 293.368,481.529 C 293.917,480.822 293.861,480.324 293.224,480.008 C 292.163,479.479 290.426,480.077 289.746,478.918" fill="#808080" stroke="#ffffff" />
<path class="id" d="M 226.859,435.184 C 227.122,435.013 227.341,434.806 227.518,434.564 C 226.867,434.428 226.647,434.634 226.859,435.184" fill="#808080" stroke="#ffffff" />
<path class="id" d="M 216.744,440.998 C 217.365,441.238 220.362,440.947 220.903,440.337 C 221.098,441.915 222.673,439.384 222.865,438.802 C 223.062,438.214 222.853,435.685 224.254,436.349 C 224.388,435.47 224.918,434.662 225.19,433.801 C 225.654,434.475 226.456,434.06 227.078,433.55 C 224.906,433.211 222.539,434.855 220.525,434.21 C 219.896,434.009 219.039,434.191 218.358,434.087 C 217.271,433.922 218.673,432.925 218.768,432.283 C 219.026,430.557 213.424,432.183 212.353,432.276 C 210.285,432.456 208.472,431.618 206.377,431.66 C 205.714,431.673 204.803,431.699 204.178,432.121 C 203.509,432.573 203.711,433.033 202.716,433.288 C 200.167,433.942 197.529,434.046 195.069,433.948 C 192.004,433.825 188.989,433.176 185.812,433.299 C 184.484,433.349 182.608,433.986 181.394,433.786 C 180.14,433.579 179.104,434.246 177.746,434.438 C 174.95,434.832 171.758,434.137 169.204,436.085 C 167.096,437.693 164.537,436.132 162.647,435.779 C 162.006,435.659 158.101,436.29 158.176,435.926 C 158.312,435.265 157.073,435.14 156.407,435.527 C 155.915,435.814 157.251,436.813 157.407,436.96 C 158.776,438.257 157.179,440.173 157.009,441.854 C 156.903,442.913 158.237,442.814 159.206,442.835 C 160.861,442.872 161.356,442.207 162.885,441.986 C 164.324,441.777 166.243,440.542 167.486,440.742 C 168.274,440.868 170.513,440.955 170.893,441.541 C 171.219,442.041 169.962,445.057 171.703,443.457 C 171.386,444.434 172.402,445.076 172.347,446.001 C 173.367,445.34 174.756,445.306 175.855,444.964 C 176.288,444.899 176.648,444.97 176.935,445.174 C 177.714,445.516 178.48,444.94 179.298,445.094 C 179.727,445.174 180.498,446.403 181.194,445.527 C 181.879,444.665 183.325,444.441 183.917,445.088 C 185.317,446.616 186.854,446.47 187.784,443.935 C 188.096,443.086 188.617,441.209 190.071,441.25 C 190.88,441.273 191.066,441.57 191.954,441.309 C 192.67,441.097 193.409,440.767 194.132,440.725 C 195.544,440.644 196.124,440.441 197.462,440.051 C 198.233,439.825 199.525,440.361 200.189,439.889 C 202.853,437.995 203.685,441.025 204.827,441.981 C 205.852,442.869 205.619,441.869 206.487,441.653 C 207.503,441.401 208.452,442.41 209.474,441.708 C 210.439,441.044 211.185,441.967 211.82,442.244 C 212.862,442.697 213.592,442.219 214.725,442.49 C 214.871,441.64 215.735,440.308 216.744,440.998" fill="#808080" stroke="#ffffff" />
<path class="id" d="M 246.435,437.153 C 246.34,437.933 247.628,438.454 248.182,437.574 C 247.559,437.48 247.213,436.665 246.435,437.153" fill="#808080" stroke="#ffffff" />
<path class="id" d="M 284.456,503.006 C 284.984,502.464 285.659,501.697 286.347,501.64 C 287.002,501.586 287.218,502.132 287.947,501.877 C 289.163,501.453 290.168,500.398 291.416,500.058 C 292.879,499.661 293.864,499.807 294.889,500.604 C 295.655,501.2 297.694,501.663 298.698,500.464 C 302.359,496.09 292.234,491.545 290.554,490.01 C 289.915,489.426 289.136,489.676 288.244,489.828 C 286.765,490.08 286.17,488.577 285.422,487.719 C 284.848,487.06 283.662,485.324 282.752,485.259 C 281.167,485.144 281.658,483.425 281.137,482.194 C 280.647,481.039 279.34,481.825 278.302,481.478 C 277.641,481.259 276.991,481.001 276.337,480.766 C 275.523,480.479 274.682,480.186 273.951,479.741 C 272.924,479.116 273.808,478.707 273.423,477.759 C 272.961,476.625 272.293,475.611 271.825,474.471 C 271.331,473.268 270.222,472.213 270.19,470.79 C 270.157,469.295 269.061,470.578 268.421,470.111 C 267.376,469.346 265.999,470.052 265.587,468.38 C 265.052,466.21 261.764,465.743 261.032,463.533 C 260.927,463.218 261.525,462.991 261.21,462.715 C 260.783,462.341 260.399,461.926 260.061,461.47 C 259.295,460.439 257.783,459.243 257.624,457.861 C 257.471,456.529 257.442,455.666 256.462,454.771 C 255.724,454.098 254.648,453.789 254.014,453.016 C 253.259,452.095 252.826,451.072 251.689,450.499 C 250.564,449.93 249.028,449.774 248.257,448.739 C 247.477,447.726 247.515,446.991 246.175,446.431 C 244.815,445.863 243.583,445.125 242.269,444.486 C 241.131,443.932 240.025,443.417 238.699,443.182 C 237.373,442.947 237.162,442.563 236.438,441.741 C 236.055,441.306 235.57,440.931 235.104,440.571 C 234.709,440.33 234.287,440.125 233.837,439.958 C 233.557,439.822 233.851,439.514 233.502,439.397 C 233.253,439.314 230.91,437.474 231.011,438.744 C 231.071,439.49 231.942,439.845 232.096,440.558 C 232.314,441.561 230.311,440.718 230.071,440.605 C 228.356,439.794 226.778,440.199 227.167,442.495 C 226.091,442.007 225.282,440.654 223.819,440.788 C 222.94,440.868 223.147,443.112 223.157,443.499 C 223.195,444.994 223.053,446.532 223.04,448.051 C 223.034,448.863 222.523,450.154 222.994,450.807 C 223.358,451.311 223.605,451.587 223.437,452.284 C 223.231,453.134 222.582,454.38 222.762,455.181 C 222.895,455.776 223.697,455.577 223.579,456.466 C 223.446,457.249 222.95,458.042 222.544,458.802 C 222.106,459.624 221.754,460.023 221.949,460.838 C 222.137,461.614 222.893,461.056 223.428,461.388 C 224.156,461.841 225.352,463.714 224.955,464.703 C 225.776,464.58 229.709,464.337 230.001,463.507 C 230.13,463.686 230.249,463.871 230.359,464.064 C 231.168,462.868 231.225,461.511 232.436,460.492 C 232.093,461.083 230.469,463.237 232.127,462.756 C 231.245,463.35 230.2,464.377 230.386,465.328 C 230.527,466.045 231.391,465.52 231.921,465.646 C 232.459,465.775 232.801,466.925 232.939,467.37 C 233.349,468.68 233.779,469.913 234.037,471.313 C 234.196,472.177 237.078,471.371 237.909,470.929 C 238.561,470.581 239.876,471.381 240.373,471.597 C 241.213,471.961 240.956,473.368 241.348,474.142 C 240.962,473.85 240.414,473.946 239.958,474.407 C 240.18,475.054 240.922,474.91 241.583,474.747 C 241.051,474.954 240.674,475.432 240.566,475.947 C 241.013,475.828 241.451,475.646 241.877,475.402 C 241.113,475.863 240.684,476.652 240.137,477.317 C 239.715,477.831 238.554,478.098 238.305,478.603 C 237.892,479.439 239.599,480.406 240.047,480.713 C 241.289,481.564 242.158,481.17 243.461,479.823 C 244.463,478.787 246.978,476.19 248.169,477.208 C 245.791,476.722 241.519,482.075 245.831,481.56 C 246.515,481.478 247.193,480.971 247.866,481.004 C 248.628,481.041 248.99,481.735 249.62,481.986 C 250.913,482.5 250.343,484.651 251.758,485.185 C 252.279,485.381 252.833,485.773 253.39,485.886 C 253.983,486.006 254.722,485.475 255.373,485.574 C 256.432,485.735 256.46,487.29 257.15,487.912 C 257.487,488.22 259.865,489.626 260.317,488.132 C 260.652,487.025 259.393,486.202 259.199,485.31 C 259.646,485.578 259.809,486.09 260.169,486.436 C 260.758,487.009 261.783,486.769 262.48,487.16 C 263.635,487.808 263.822,489.43 264.929,490.139 C 265.214,489.622 265.255,489.159 265.054,488.748 C 265.247,489.002 266.444,490.763 265.977,489.191 C 266.725,489.754 265.712,491.148 266.824,491.468 C 267.83,491.758 268.642,492.6 269.635,492.973 C 270.776,493.403 271.733,494.412 273.035,494.512 C 273.498,494.548 273.987,494.477 274.445,494.523 C 275.237,494.601 275.156,495.224 275.688,495.582 C 276.387,496.052 277.55,495.673 278.25,496.082 C 279.132,496.596 278.12,498.442 279.056,498.86 C 280.184,499.364 280.388,499.297 280.954,500.543 C 281.417,501.612 283.483,502.493 284.456,503.006" fill="#808080" stroke="#ffffff" />
<path class="id" d="M 279.615,469.526 C 278.242,468.65 278.188,472.393 278.817,472.942 C 279.559,473.589 280.772,474.877 281.846,474.967 C 282.638,475.033 282.956,473.836 283.807,474.041 C 283.559,472.994 282.489,472.521 281.911,471.744 C 281.553,471.263 280.846,471.292 280.443,470.871 C 280.077,470.489 279.958,469.925 279.615,469.526" fill="#808080" stroke="#ffffff" />
<path class="id" d="M 273.707,463.653 C 273.599,464.212 273.856,464.647 274.321,464.82 C 274.607,464.283 274.783,463.542 274.859,462.986 C 274.961,462.244 273.37,462.725 273.707,463.653" fill="#808080" stroke="#ffffff" />
<path class="id" d="M 275.115,466.577 C 274.716,465.824 274.169,465.193 273.618,464.569 C 273.477,465.272 274.189,466.985 275.115,466.577" fill="#808080" stroke="#ffffff" />
<path class="id" d="M 272.111,468.211 C 272.35,468.927 273.6,468.391 274.001,467.836 C 273.407,467.66 272.733,467.836 272.111,468.211" fill="#808080" stroke="#ffffff" />
<path class="id" d="M 269.008,455.777 C 266.551,456.873 270.857,460.251 270.896,461.366 C 271.285,461.024 271.986,460.908 272.237,460.433 C 272.598,459.75 272.758,458.607 272.26,458.154 C 271.318,457.301 270.657,455.607 269.008,455.777" fill="#808080" stroke="#ffffff" />
<path class="id" d="M 264.045,453.306 C 264.254,453.861 265.262,455.733 266.097,454.897 C 267.013,453.978 264.512,453.419 264.045,453.306" fill="#808080" stroke="#ffffff" />
<path class="id" d="M 262.97,450.87 C 262.724,450.265 261.918,450.818 261.698,451.316 C 261.37,452.059 262.696,452.639 263.199,452.753 C 263.398,452.037 262.896,451.554 262.97,450.87" fill="#808080" stroke="#ffffff" />
<path class="id" d="M 259.833,447.976 C 259.842,448.409 260.296,448.603 260.249,449.045 C 260.187,449.617 259.828,449.591 260.047,450.078 C 260.206,450.434 260.828,451.499 261.459,451.079 C 262.397,450.453 260.326,448.195 259.833,447.976" fill="#808080" stroke="#ffffff" />
<path class="mg" d="M 509.583,253.077 C 508.351,252.035 508.076,250.095 506.224,249.62 C 505.315,249.39 504.9,248.8 504.192,248.348 C 503.542,247.931 502.788,248.227 503.016,247.219 C 503.24,246.23 501.689,244.288 500.729,243.804 C 499.859,243.365 499.111,243.097 498.368,242.488 C 497.406,241.697 496.459,241.859 495.196,241.768 C 496.637,241.669 495.218,241.514 494.901,241.597 C 494.437,241.718 494.043,241.989 493.588,242.129 C 492.486,242.468 491.351,241.891 490.279,242.251 C 488.429,242.87 487.936,245.545 486.685,246.739 C 486.225,247.176 485.457,247.219 485.058,247.65 C 484.741,247.991 484.546,248.402 484.166,248.701 C 483.632,249.12 483.679,249.906 483.73,250.441 C 483.799,251.161 483.989,251.865 484.2,252.557 C 484.491,253.514 484.336,254.499 484.565,255.445 C 484.988,257.191 485.333,258.911 485.861,260.654 C 486.564,263.161 486.759,265.62 487.203,268.169 C 487.559,270.237 488.254,272.189 488.397,274.291 C 488.438,274.905 488.42,275.917 489.036,276.339 C 488.723,276.492 489.034,277.713 489.066,277.925 C 489.277,279.341 489.773,280.709 489.927,282.132 C 490.149,284.214 490.291,286.008 490.993,288.027 C 491.517,289.535 493.889,291.005 492.44,292.821 C 492.156,293.176 492.364,294.406 492.569,294.836 C 492.761,295.238 493.096,295.567 493.251,295.986 C 493.46,296.552 494.191,296.147 494.49,296.646 C 494.715,297.026 497.009,299.74 495.622,299.847 C 494.436,299.937 493.739,298.124 492.635,298.269 C 491.405,298.43 492.162,301.075 492.362,301.641 C 492.651,302.459 493.48,302.567 494.133,303.122 C 495.334,304.143 496.009,305.355 496.817,306.603 C 498.308,308.904 500.467,311.114 502.879,312.745 C 502.99,312.587 503.091,312.426 503.185,312.26 C 503.251,312.638 503.454,312.632 503.811,312.729 C 504.392,312.887 503.908,313.347 504.467,313.552 C 505.002,313.748 505.977,314.928 506.564,314.147 C 506.702,314.27 506.807,314.41 506.876,314.569 C 505.343,315.07 508.583,316.009 507.412,314.568 C 506.952,314.004 507.786,312.248 508.487,311.965 C 506.857,311.981 506.74,310.036 506.569,309.21 C 506.316,307.995 505.89,307.334 507.437,306.619 C 506.784,305.945 507.441,306.417 507.613,305.788 C 507.738,305.331 507.473,304.871 507.385,304.434 C 507.782,304.271 510.72,306.058 509.87,304.253 C 509.568,303.609 509.063,303.325 508.46,302.897 C 507.919,302.512 507.519,300.982 508.22,301.899 C 508.037,301.38 509.788,300.528 508.412,299.759 C 507.685,299.352 506.404,300.212 506.387,299.046 C 506.647,299.843 507.591,299.504 507.916,298.921 C 508.367,298.107 507.616,297.071 508.481,296.344 C 509.006,296.881 508.587,297.666 509.132,298.218 C 509.792,297.749 509.35,297.413 509.371,296.85 C 509.392,296.303 510.086,295.696 509.889,295.15 C 509.752,294.772 509.064,294.593 508.709,294.396 C 508.019,294.012 509.148,293.346 509.37,292.915 C 509.534,293.324 509.395,294.795 510.569,294.226 C 511.244,293.898 511.345,292.958 511.677,292.431 C 511.9,292.079 512.576,291.249 512.195,290.86 C 512.001,290.663 512.043,290.282 511.808,290.121 C 511.481,289.898 511.034,290.176 510.698,289.881 C 511.247,289.66 511.746,289.313 512.241,289.872 C 512.866,290.578 513.79,290.13 513.299,289.319 C 513.721,289.511 514.853,289.093 515.131,288.77 C 515.482,288.361 514.876,287.809 515.056,287.377 C 515.593,288.181 516.327,287.001 516.07,286.486 C 516.4,286.657 516.751,286.799 517.122,286.91 C 517.49,286.311 517.565,285.543 518.109,285.018 C 518.619,284.525 520.032,284.391 520.291,283.757 C 520.417,283.446 519.158,282.018 519.483,282.082 C 518.875,281.553 518.949,280.569 518.985,279.882 C 519.045,278.734 520.002,276.174 518.527,275.553 C 517.514,275.126 517.116,273.647 516.475,272.886 C 515.746,272.023 514.399,271.68 513.788,270.783 C 513.22,269.95 512.924,269.39 511.855,268.942 C 510.71,268.461 510.81,267.931 510.58,267.013 C 510.414,266.353 509.431,266.628 509.434,265.828 C 509.437,264.975 509.593,264.082 509.643,263.222 C 509.695,262.297 509.867,261.309 509.732,260.398 C 509.627,259.694 508.759,258.887 509.469,258.172 C 510.323,257.31 510.562,257.159 509.989,256.131 C 509.512,255.276 509.911,254.041 509.583,253.077" fill="#808080" stroke="#ffffff" />
<path class="mg" d="M 508.259,306.364 C 508.231,306.814 508.745,307.057 509.182,307.174 C 509.461,306.643 508.956,306.048 508.259,306.364" fill="#808080" stroke="#ffffff" />
<path class="mg" d="M 491.214,294.079 C 491.26,294.154 491.307,294.231 491.354,294.306 C 491.37,293.756 491.776,292.96 491.145,292.546 C 491.092,293.061 491.24,293.564 491.214,294.079" fill="#808080" stroke="#ffffff" />
<path class="mz" d="M 550.145,231.628 C 550.267,232.12 550.488,232.586 550.843,232.975 C 550.776,232.475 550.686,231.906 550.145,231.628" fill="#808080" stroke="#ffffff" />
<path class="mz" d="M 555.369,248.321 C 555.166,248.883 555.375,248.953 556,248.532 C 555.789,248.462 555.578,248.391 555.369,248.321" fill="#808080" stroke="#ffffff" />
<path class="mz" d="M 608.031,246.965 C 604.17,250.831 600.304,254.614 596.44,258.316 C 595.582,259.135 594.73,259.953 593.901,260.78 C 593.621,261.059 592.686,262.438 592.219,262.556 C 591.361,262.771 591.425,262.138 590.817,261.983 C 589.56,261.663 588.288,261.391 586.975,261.203 C 587.38,261.762 585.554,262.436 584.894,262.994 C 584.327,263.472 583.668,264.43 582.719,264.213 C 580.973,263.813 579.168,261.612 578.867,260.337 C 578.487,258.721 579.082,256.772 577.044,255.987 C 576.562,255.801 576.393,255.364 575.887,255.214 C 575.317,255.044 574.639,255.15 574.073,254.98 C 572.969,254.649 571.591,254.527 570.376,254.475 C 569.223,254.424 569.195,254.316 569.228,253.414 C 569.262,252.451 567.236,253.198 567.827,254.145 C 568.403,255.066 569.365,255.639 570.629,255.964 C 569.983,257.128 571.517,258.009 570.079,259.113 C 568.139,260.599 568.49,261.385 569.745,262.972 C 570.203,263.551 570.816,264.067 571.229,264.67 C 571.902,265.655 572.035,267.056 573.348,267.695 C 574.657,268.343 576.559,268.62 578.031,269.107 C 579.407,269.561 580.823,270.088 582.333,270.348 C 583.447,270.538 584.611,269.995 585.627,270.174 C 587.247,270.457 587.937,272.63 589.027,273.453 C 590.05,274.224 591.484,274.977 591.979,276.07 C 592.293,276.765 592.161,277.711 592.253,278.464 C 592.368,279.427 592.753,279.74 591.531,280.341 C 590.014,281.086 587.927,281.644 586.681,282.642 C 585.975,283.207 585.748,284.311 584.513,284.317 C 583.663,284.321 582.938,283.909 582.081,283.968 C 581.427,284.012 579.697,284.735 579.219,285.098 C 578.425,285.701 578.597,287.129 576.953,286.796 C 573.924,286.183 572.96,289.024 572.852,290.556 C 572.793,291.401 571.902,291.831 570.848,291.824 C 569.139,291.812 568.835,291.958 568.081,293.136 C 567.45,294.117 566.926,294.844 565.484,295.244 C 564.657,295.472 563.974,297.194 563.446,297.745 C 562.404,298.826 561.723,299.994 561.024,301.202 C 560.171,302.675 558.27,301.683 559.196,300.685 C 558.961,300.702 558.726,300.714 558.489,300.722 C 558.672,299.917 557.921,299.439 557.817,298.695 C 557.761,298.296 558.546,297.392 557.674,297.336 C 556.953,297.291 556.031,295.729 555.554,295.181 C 555.192,294.773 554.835,294.353 554.58,293.896 C 554.191,293.204 554.578,293.245 553.924,292.775 C 553.715,292.584 553.585,292.362 553.533,292.11 C 553.362,291.657 552.942,291.69 552.561,291.407 C 552.005,290.996 551.747,290.159 551.914,289.557 C 550.29,290.098 550.478,286.675 549.789,286.81 C 548.588,287.046 547.758,283.985 547.008,283.538 C 546.247,284.577 546.366,282.323 545.762,282.083 C 546.177,282.841 545.145,283.173 544.809,282.388 C 544.437,281.541 543.806,281.12 544.537,280.183 C 544.266,280.164 543.994,280.154 543.721,280.154 C 545.086,279.782 543.803,279.958 543.921,279.475 C 543.995,279.17 544.281,278.929 544.238,278.603 C 543.303,279.485 543.291,277.6 543.263,277.24 C 543.166,276.025 544.026,274.896 543.947,273.678 C 543.868,272.468 544.444,271.45 544.464,270.253 C 544.479,269.336 547.239,266.683 546.577,266.029 C 546.272,265.726 548.668,264.005 549.007,263.497 C 549.308,263.046 549.701,262.605 550.133,262.221 C 550.832,261.599 550.869,261.912 551.16,261.174 C 551.577,260.112 552.588,259.175 553.325,258.217 C 554.058,257.261 554.269,254.506 556.015,254.596 C 552.455,254.033 557.238,250.445 555.338,248.955 C 555.754,248.659 556.229,248.704 556.572,248.949 C 555.972,248.388 556.157,247.15 556.726,248.072 C 557.237,246.852 558.126,245.71 558.323,244.441 C 558.496,243.317 558.631,242.265 559.026,241.14 C 559.185,240.684 559.735,238.763 560.621,238.914 C 561.193,239.01 562.441,239.761 562.943,239.004 C 561.677,239.819 561.169,238.377 560.678,238.241 C 560.217,238.113 559.873,237.67 559.824,237.283 C 559.784,237.087 559.865,236.913 560.065,236.764 C 559.715,236.638 559.466,236.434 559.316,236.15 C 558.457,234.843 558.175,235.51 556.65,235.22 C 555.798,235.058 555.227,234.608 554.786,234.045 C 554.615,233.827 553.493,232.012 553.91,233.3 C 553.499,232.204 551.887,231.722 551.02,230.878 C 550.5,230.374 549.769,229.961 549.445,229.332 C 549.173,228.802 549.029,228.116 548.095,228.214 C 548.447,228.875 548.907,229.383 548.762,230.198 C 548.631,230.01 547.582,228.734 548.193,229.968 C 547.839,229.261 547.557,228.52 547.127,227.848 C 546.742,227.244 545.802,227.075 545.45,226.476 C 544.491,224.843 544.747,222.532 543.125,221.177 C 544.019,221.912 542.443,221.568 543.007,222.333 C 541.463,221.864 541.757,219.526 541.986,218.361 C 542.362,216.43 543.912,214.654 545.334,212.995 C 546.949,211.101 548.566,209.157 549.666,207.033 C 550.163,206.069 550.739,205.125 550.611,204.129 C 550.501,203.273 550.107,202.457 551.068,201.64 C 550.373,202.125 547.673,201.086 548.047,202.576 C 547.361,201.568 544.39,200.018 545.659,199.091 C 546.839,198.226 548.379,197.814 549.166,197.008 C 549.663,197.805 550.701,198.069 551.355,198.754 C 551.823,199.245 552.792,199.871 553.672,199.944 C 554.604,200.021 554.956,200.6 554.841,201.483 C 554.77,202.012 556.235,203.107 556.538,203.488 C 557.282,204.421 558.015,205.361 558.717,206.323 C 559.35,207.19 560.169,207.507 561.044,208.159 C 562.361,209.138 564.346,209.345 565.713,210.254 C 566.374,210.694 566.616,211.457 567.265,211.934 C 568.169,212.599 569.229,213.117 570.224,213.696 C 571.519,214.449 570.734,215.977 570.348,217.257 C 570.055,218.224 569.56,223.599 568.299,223.693 C 569.87,223.948 569.379,224.959 569.784,225.928 C 570.033,226.525 571.305,226.797 570.804,227.592 C 570.108,228.695 570.347,229.478 570.41,230.612 C 570.437,231.097 570.348,231.656 570.468,232.125 C 570.655,232.865 571.439,232.973 571.867,233.547 C 572.01,233.384 572.153,233.221 572.296,233.056 C 573.531,233.819 574.122,234.504 574.386,235.812 C 574.504,236.398 575.859,235.442 576.209,236.31 C 576.47,236.959 574.942,237.954 575.833,238.327 C 577.075,238.846 575.612,239.49 576.332,240.179 C 576.923,240.746 578.002,241.136 578.357,241.848 C 578.606,242.349 578.565,242.912 578.961,243.357 C 579.226,243.656 580.004,243.781 580.16,244.027 C 580.359,244.344 579.991,244.756 580.186,245.073 C 580.367,245.368 581.04,245.601 581.372,245.787 C 581.758,246.004 582.271,246.098 582.643,246.325 C 583.185,246.655 582.826,247.612 583.081,248.097 C 583.829,247.415 584.325,247.095 585.212,247.546 C 586.033,247.964 588.826,246.915 589.569,246.411 C 590.551,245.743 591.941,246.099 593.037,246.141 C 593.503,246.158 593.996,245.789 594.444,245.687 C 595.079,245.542 595.626,245.692 596.253,245.601 C 597.291,245.45 598.036,244.425 598.622,244.456 C 599.571,244.506 600.687,243.324 601.597,243.007 C 603.075,242.49 603.798,244.292 604.487,244.863 C 605.488,245.699 607.307,245.942 608.031,246.965" fill="#808080" stroke="#ffffff" />
<path class="mz" d="M 544.616,271 C 544.509,271.18 544.402,271.359 544.294,271.54 C 544.121,271.311 544.007,271.063 543.953,270.794 C 544.174,270.863 544.395,270.931 544.616,271" fill="#808080" stroke="#ffffff" />
<path class="au" d="M 164.756,274.038 C 163.051,273.913 161.775,275.306 161.452,276.417 C 161.081,277.684 162.688,279.702 161.307,280.564 C 161.63,280.331 161.705,279.935 161.458,279.51 C 161.581,279.932 161.346,280.11 160.796,279.97 C 161.609,281.149 160.823,282.104 160.679,283.02 C 160.365,285.018 161.393,286.764 162.538,288.883 C 163.603,290.841 165.165,293.002 164.974,294.923 C 164.794,296.751 164.316,299.289 165.194,301.21 C 165.558,302.004 166.299,302.727 166.541,303.533 C 166.792,304.373 166.953,305.11 167.573,305.913 C 168.167,306.68 169.252,307.373 169.497,308.211 C 169.752,309.172 169.345,310.08 169.487,311.04 C 169.764,312.896 170.926,314.843 172.539,316.381 C 173.218,317.026 174.013,317.709 174.377,318.479 C 174.711,319.185 173.996,319.544 174.207,320.197 C 173.891,319.696 173.992,319.188 174.024,318.694 C 173.606,319.122 173.534,319.693 173.632,320.255 C 173.611,319.55 172.926,318.912 172.946,318.203 C 172.916,319.575 172.579,317.425 172.59,317.152 C 171.924,318.3 172.166,317.122 171.972,316.654 C 170.396,317.385 169.721,318.032 171.435,319.311 C 172.605,320.181 173.773,322.311 172.706,323.246 C 172.028,322.852 171.472,322.178 171.168,321.596 C 170.754,320.804 171.55,320.251 171.319,319.481 C 170.482,319.453 170.182,320.06 170.176,320.604 C 169.87,319.803 170.031,318.898 169.305,318.164 C 168.902,317.756 168.132,318.434 168.059,318.639 C 167.569,319.992 167.187,321.207 168.406,322.551 C 169.444,323.692 169.63,325.027 170.84,326.054 C 171.301,326.444 171.16,326.782 171.248,327.231 C 171.439,328.208 172.253,329.064 172.609,330.012 C 173.169,331.5 172.35,333.27 171.492,334.506 C 170.484,335.955 169.775,337.022 169.641,338.784 C 169.579,339.596 170.45,340.171 170.547,340.946 C 170.65,341.763 169.798,342.473 169.438,343.192 C 168.906,344.254 168.516,346.041 166.922,346.526 C 166.655,345.904 166.967,345.299 167.191,344.715 C 167.506,343.895 167.125,343.025 167.291,342.193 C 165.123,342.884 165.191,343.767 164.267,345.207 C 163.31,346.698 161.495,347.427 159.504,348.024 C 156.663,348.869 154.729,350.477 152.498,352.033 C 151.914,352.44 151.28,353.453 150.494,353.573 C 148.727,353.84 147.376,354.431 146.266,355.527 C 146.442,354.019 144.366,355.455 143.522,355.418 C 142.721,355.383 142.335,354.805 141.433,354.852 C 140.278,354.911 139.207,355.256 138.254,355.728 C 136.175,356.753 135.223,357.849 132.522,357.986 C 131.409,358.041 130.2,358.118 129.335,358.703 C 128.35,359.368 128.061,360.5 126.453,360.584 C 123.989,360.711 122.441,360.497 119.992,361.079 C 117.129,361.756 114.5,362.365 111.862,363.505 C 109.713,364.43 101.623,368.269 103.485,370.776 C 102.522,370.763 102.279,371.111 102.072,371.672 C 101.747,372.545 100.601,372.907 99.5929,373.408 C 98.1144,374.141 94.7538,375.366 96.426,376.559 C 97.8477,377.57 97.1886,380.728 96.3523,381.935 C 95.8726,382.627 93.5176,385.28 92.0661,384.278 C 92.9882,385.363 91.6805,385.335 90.5798,385.817 C 89.2223,386.41 89.244,388.212 87.3594,388.967 C 86.5417,388.326 88.9796,386.521 86.424,386.778 C 88.1555,384.989 83.1066,382.075 83.3283,380.27 C 81.9117,381.622 83.2475,383.571 82.0641,384.896 C 80.9597,384.615 80.4908,383.866 79.705,383.346 C 79.8821,384.449 80.1622,385.233 78.5247,386.041 C 79.8221,385.655 82.5818,387.156 81.4918,388.047 C 82.2531,388.006 82.6868,388.269 82.667,388.775 C 81.2306,388.153 82.1717,388.986 80.9089,389.243 C 79.3835,389.552 81.0648,390.541 81.3812,390.92 C 80.0609,391.583 77.5587,391.127 79.6317,390.673 C 78.8527,390.551 78.3394,390.176 78.7197,389.6 C 77.824,389.829 77.6976,390.679 76.7923,390.809 C 75.6011,390.979 75.5508,390.452 74.7953,390.114 C 73.8479,389.69 73.3023,390.628 72.2921,390.323 C 71.1561,389.979 69.864,390.623 68.7104,390.246 C 69.6942,390.95 70.591,390.475 71.8304,390.657 C 73.5452,390.907 72.3016,391.823 72.1795,392.639 C 71.951,392.435 71.7102,392.237 71.4568,392.047 C 70.0342,392.795 70.7046,394.147 68.9926,394.785 C 69.863,394.924 70.4718,394.526 70.7012,393.988 C 71.9564,394.73 72.866,396.434 70.7931,397.255 C 69.8381,397.632 66.8859,398.484 68.4754,399.299 C 67.3579,399.366 66.525,398.928 65.6531,398.618 C 65.3817,398.384 65.1189,398.147 64.8588,397.906 C 64.3105,397.858 63.7602,397.817 63.206,397.783 C 64.8156,398.251 63.6409,399.527 66.0128,399.329 C 65.5943,399.843 64.9847,400.229 64.183,400.491 C 64.9633,400.318 65.6464,400.034 66.2326,399.64 C 66.3358,400.52 62.9818,402.562 63.1538,401.048 C 63.0632,402.579 61.3992,400.808 59.9169,401.14 C 60.4814,401.719 61.7317,402.267 60.8774,403.126 C 64.0228,402.933 60.3443,405.083 60.1389,405.822 C 58.9584,405.117 58.4529,406.584 57.1609,406.182 C 56.7657,407 56.8053,407.808 56.5922,408.625 C 55.0033,408.577 55.7812,406.627 56.7813,405.683 C 54.6878,407.34 55.5501,407.356 53.8907,405.822 C 53.7969,406.568 52.5286,406.669 52.2832,407.344 C 52.1317,407.759 51.5786,408.863 51.2975,409.233 C 50.8421,409.833 49.2644,409.954 50.1014,410.694 C 50.3961,410.834 50.7393,410.843 51.1322,410.716 C 51.5226,410.661 52.5257,411.904 50.5178,411.099 C 50.931,411.894 48.4831,412.788 50.0672,411.281 C 47.5287,412.948 50.7654,409.383 47.8628,410.127 C 48.388,410.919 47.0234,411.798 45.7431,411.944 C 46.5291,411.24 45.7761,410.745 45.2074,410.33 C 44.0854,411.19 41.8431,411.719 41.1209,412.774 C 40.5499,413.608 42.5232,413.751 40.1891,414.585 C 38.8572,415.06 38.4143,413.068 36.3515,413.244 C 34.5773,413.395 34.426,412.858 33.2625,412.179 C 31.7823,411.311 31.0453,410.052 29.5861,409.163 C 28.7111,408.628 27.3351,407.997 27.4835,407.05 C 27.6482,406.003 28.6912,404.984 28.9953,403.934 C 29.2781,402.955 29.3194,401.532 30.6192,400.729 C 29.1469,401.285 30.1308,402.288 29.0852,402.831 C 27.6717,403.566 27.2735,402.241 27.1193,401.709 C 26.4293,402.752 28.4221,403.544 27.6436,404.573 C 26.6827,405.842 25.6857,404.652 24.2184,405.145 C 25.5479,408.471 14.1222,408.239 15.4902,404.703 C 13.5043,405.307 14.2522,406.628 14.1795,407.565 C 11.4292,407.654 10.6675,404.466 8.3458,404.965 C 8.84402,405.698 10.1814,407.02 8.52791,407.844 C 7.36336,408.424 5.83857,408.148 4.69192,408.872 C 6.90441,408.515 8.21498,408.797 8.89264,409.998 C 7.90965,410.113 7.00611,410.386 6.18663,410.816 C 8.17948,410.292 12.3867,410.826 10.6315,412.544 C 9.91309,413.248 9.49721,414.245 8.4559,414.844 C 7.53486,415.374 5.61487,415.249 5.05326,416.05 C 4.14315,417.354 3.58865,418.929 2.3976,420.184 C 1.28953,421.351 0.651188,420.23 -0.706739,420.969 C -1.59065,421.45 -3.88768,423.088 -5.02591,422.797 C -4.01975,423.355 -2.82814,424.431 -3.2721,425.448 C -4.02366,427.174 -4.99634,425.966 -6.41467,427.306 C -7.3668,428.204 -7.12755,428.975 -8.84097,429.719 C -10.0817,430.258 -10.7098,429.174 -12.134,429.516 C -10.7003,429.694 -10.5532,432.031 -12.288,432.573 C -14.1337,433.15 -15.0314,430.847 -16.6418,430.806 C -15.0019,431.364 -15.1011,434.095 -18.2489,433.587 C -18.7525,434.316 -18.0099,435.038 -19.5487,435.562 C -21.1323,436.101 -21.4969,434.867 -22.6512,436.337 C -24.5368,433.486 -39.6733,438.463 -39.6481,436.544 C -39.8681,437.928 -42.6292,439.237 -44.7158,438.684 C -42.6042,439.799 -45.6938,442.232 -45.4101,443.757 C -44.9773,446.09 -40.7302,445.21 -37.405,443.997 C -37.7518,445.165 -35.3264,445.358 -34.31,445.74 C -33.6536,445.987 -37.11,447.545 -37.3928,447.89 C -38.7292,447.427 -38.8097,446.433 -39.0556,445.53 C -40.1782,446.463 -40.5804,447.469 -39.9356,448.229 C -40.5958,447.346 -41.7229,447.42 -42.9446,448.548 C -43.1832,447.321 -46.3726,446.29 -47.3901,445.261 C -48.5218,446.086 -51.5417,446.541 -50.9492,447.654 C -52.7526,447.135 -52.7786,443.873 -55.1388,444.171 C -57.244,444.437 -60.1681,444.928 -59.5942,443.549 C -61.9696,443.783 -64.1185,445.638 -66.4722,445.479 C -61.8874,443.271 -71.4311,444.763 -69.5977,442.222 C -71.529,444.01 -71.6815,442.9 -73.8928,442.928 C -76.4235,442.962 -78.0716,444.216 -80.5191,444.691 C -80.5327,441.896 -85.8401,442.873 -89.302,442.658 C -87.0461,444.647 -98.9666,444.867 -95.4189,446.382 C -97.7837,446.941 -101.475,447.66 -101.905,449.287 C -103.229,448.27 -99.8396,447.103 -98.2011,446.42 C -101.618,446.801 -98.8384,445.917 -97.4257,445.046 C -96.0814,444.215 -95.5014,443.434 -96.327,442.695 C -97.7584,443.726 -99.5864,444.937 -101.965,445.212 C -99.2781,443.644 -102.411,444.704 -101.97,443.194 C -101.833,442.726 -101.811,442.038 -102.857,441.996 C -105.059,441.903 -107.762,443.808 -108.766,444.753 C -102.227,444.107 -113.571,448.626 -114.956,449.391 C -111.506,448.162 -113.344,445.394 -115.951,445.231 C -114.632,446.609 -118.282,446.746 -119.073,446.183 C -119.748,445.706 -118.796,444.753 -118.162,444.167 C -115.948,442.121 -111.855,439.204 -107.9,438.078 C -108.945,437.634 -109.702,437.069 -110.176,436.381 C -109.587,436.56 -108.969,436.718 -108.326,436.854 C -107.332,435.349 -106.819,434.02 -103.706,433.073 C -103.812,433.684 -104.017,434.304 -104.317,434.93 C -102.858,434.381 -101.545,433.753 -100.371,433.046 C -100.663,435.227 -97.5539,432.851 -97.3711,432.056 C -97.2946,433.98 -92.8296,431.259 -94.9215,430.332 C -89.8381,430.388 -92.3884,425.572 -95.8091,428.278 C -92.5905,425.279 -89.5399,422.607 -85.6114,419.879 C -83.9586,418.729 -82.2903,417.541 -80.3428,416.546 C -78.1908,415.417 -77.1174,415.716 -78.5961,414.099 C -80.607,411.893 -85.83,411.394 -88.598,409.518 C -90.2261,408.414 -91.2375,407.361 -93.6976,406.662 C -95.4304,406.17 -97.1009,405.519 -96.1486,404.258 C -98.1759,404.734 -100.086,404.005 -101.645,405.214 C -103.345,403.784 -106.58,403.185 -109.508,402.471 C -113.282,401.545 -114.852,400.088 -117.309,398.469 C -121.58,395.646 -128.811,396.903 -134.492,394.952 C -137.552,393.897 -134.658,391.539 -137.408,390.447 C -138.921,389.844 -141.121,389.928 -142.548,389.196 C -144.05,388.426 -145.939,387.93 -147.738,387.308 C -153.279,385.388 -166.776,387.394 -171.014,390.486 C -177.338,394.998 -185.393,399.599 -190.62,404.617 C -193.67,407.54 -196.167,410.562 -199.237,413.547 C -202.541,416.757 -206.136,419.265 -206.435,422.694 C -206.753,425.388 -207.716,427.056 -210.82,429.687 C -213.996,432.377 -209.566,434.276 -213.561,437.291 C -216.84,439.764 -222.602,441.997 -221.986,444.624 C -221.277,447.637 -227.481,448.313 -229.87,451.081 C -231.191,450.576 -231.675,449.856 -231.326,448.921 C -231.581,449.816 -233.134,450.614 -235.109,451.101 C -234.093,451.068 -229.614,453.16 -229.28,453.646 C -228.302,453.238 -227.341,452.824 -226.4,452.402 C -226.278,453.626 -228.89,455.544 -231.163,456.629 C -232.032,457.088 -233.036,457.38 -234.172,457.5 C -233.181,458.615 -235.389,460.02 -237.53,461.142 C -237.79,460.307 -239.104,459.998 -241.317,460.408 C -242.878,465.254 -251.447,469.727 -255.057,474.741 C -256.235,476.38 -256.709,477.428 -261.04,478.61 C -265.162,479.732 -268.376,482.9 -272.617,482.032 C -270.791,481.039 -269.14,480.024 -267.666,478.986 C -268.803,479.381 -269.973,479.753 -271.167,480.098 C -271.624,478.664 -274.932,478.337 -273.391,476.477 C -272.742,475.716 -272.581,475.029 -272.905,474.412 C -273.293,472.931 -271.496,472.743 -270.812,471.313 C -270.088,469.8 -268.616,468.17 -268.506,466.737 C -268.478,464.892 -275.667,465.815 -278.578,465.446 C -272.087,463.096 -269.515,461.065 -273.155,459.393 C -277.06,457.598 -275.492,455.655 -272.844,452.738 C -279.46,453.792 -271.678,442.364 -269.795,440.953 C -267.521,439.248 -269.326,438.186 -269.9,436.78 C -270.576,435.134 -267.661,433.167 -268.83,431.577 C -270.906,428.753 -280.973,431.14 -283.098,433.87 C -287.697,431.203 -293.542,438.272 -293.42,431.893 C -293.386,430.424 -300.308,428.997 -302.397,427.701 C -302.659,427.537 -310.819,425.664 -311.622,425.665 C -309.226,424.336 -302.627,421.686 -308.602,421.044 C -299.025,416.789 -307.633,412.775 -302.344,408.409 C -299.129,405.74 -297.347,404.385 -300.018,402.053 C -301.373,400.871 -305.857,398.629 -303.066,397.096 C -305.096,397.715 -307.326,398.082 -309.768,398.199 C -307.318,395.711 -305.959,394.712 -306.757,392.146 C -307.387,390.23 -306.71,388.22 -305.366,386.286 C -303.893,384.152 -300.605,382.803 -297.891,380.94 C -294.631,378.704 -301.057,378.084 -300.055,376.266 C -299.264,374.837 -304.807,375.82 -302.59,374.019 C -300.669,372.462 -295.918,371.315 -297.869,369.442 C -299.021,368.338 -303.204,365.914 -306.847,365.92 C -310.262,365.925 -312.159,362.585 -316.577,365.044 C -315.168,362.028 -328.102,361.017 -327.447,363.122 C -328.969,361.307 -326.042,356.627 -331.783,355.668 C -332.225,356.583 -333.899,357.071 -336.393,357.011 C -333.644,354.664 -340.867,354.122 -345.269,353.256 C -348.916,352.538 -343.216,349.711 -351.043,350.129 C -352.772,350.221 -351.886,351.34 -353.55,351.493 C -357.078,351.815 -355.933,349.92 -356.077,349.39 C -356.395,348.252 -360.091,348.671 -361.084,347.591 C -362.211,346.359 -361.458,345.025 -362.524,343.787 C -361.3,345.15 -356.769,345.649 -354.535,344.357 C -351.72,342.73 -357.36,340.408 -353.448,338.976 C -372.482,340.085 -354.467,329.415 -366.789,328.505 C -361.771,327.084 -360.743,324.222 -360.393,322.006 C -360.102,320.146 -363.658,316.526 -359.026,315.263 C -365.908,315.574 -366.458,314.79 -368.518,312.463 C -372.459,314.274 -369.896,316.98 -375.415,318.524 C -380.214,316.231 -381.778,313.287 -387.932,311.236 C -389.24,311.812 -389.014,313.24 -390.867,313.612 C -394.396,314.321 -396.398,313.309 -396.151,312.082 C -395.463,308.823 -393.57,306.948 -389.738,304.262 C -387.559,302.668 -388.489,300.692 -386.404,299.034 C -382.246,295.729 -389.974,297.237 -392.57,294.539 C -391.851,295.551 -392.413,296.334 -394.274,296.89 C -401.902,295.059 -399.627,288.473 -393.128,293.956 C -393.468,291.873 -407.92,283.161 -408.878,286.671 C -416.531,283.257 -413.551,280.139 -417.014,276.519 C -418.648,274.801 -423.049,273.849 -425.404,272.259 C -428.181,270.377 -425.508,268.989 -425.751,267.265 C -426.264,263.509 -437.018,263.24 -434.655,260.007 C -433.769,258.791 -429.861,258.482 -428.77,257.329 C -427.299,255.774 -431.902,253.964 -429.035,252.336 C -430.313,252.597 -431.676,252.816 -433.124,252.988 C -438.42,250.411 -428.792,249.78 -426.836,248.574 C -423.354,246.433 -420.1,243.686 -418.056,241.184 C -416.514,239.292 -417.554,237.151 -412.127,236.719 C -406.326,236.255 -406.365,234.748 -409.601,232.162 C -411.805,230.395 -410.245,227.005 -408.917,225.69 C -408.028,224.812 -406.548,224.011 -406.364,222.948 C -406.273,221.767 -408.646,220.541 -407.744,219.429 C -403.373,214.093 -395.301,211.901 -385.573,209.015 C -375.352,205.975 -369.494,201.209 -358.704,198.682 C -349.828,196.597 -349.996,191.408 -342.565,189.103 C -339.003,187.997 -336.097,186.493 -332.34,185.559 C -328.653,184.642 -322.651,185.277 -319.897,183.84 C -318.139,182.922 -317.557,180.487 -315.102,180.05 C -313.644,179.79 -311.007,180.599 -309.336,180.54 C -306.272,180.437 -303.334,179.822 -299.393,180.685 C -306.316,178.396 -295.357,180.407 -293.635,180.662 C -289.12,181.331 -285.222,180.608 -282.543,179.785 C -280.663,179.203 -277.305,179.737 -275.368,179.202 C -272.694,178.46 -273.59,176.54 -267.662,178.618 C -267.379,177.702 -267.986,177.183 -269.485,177.063 C -267.819,176.365 -266.604,175.362 -264.943,174.696 C -263.634,174.165 -261.489,175.133 -260.195,174.43 C -257.556,172.991 -252.05,173.977 -249.821,172.294 C -248.696,171.445 -249.082,171.707 -247.065,172.147 C -246.999,172.16 -245.939,170.391 -245.312,170.241 C -244.229,169.979 -237.914,169.19 -241.717,167.259 C -240.708,166.728 -239.364,166.185 -238.794,168.205 C -237.305,168.005 -238.119,166.301 -235.747,166.905 C -232.828,167.646 -231.394,167.697 -229.497,167.2 C -224.822,165.947 -220.016,164.877 -216.174,163.24 C -212.916,161.85 -210.897,159.555 -207.637,158.182 C -205.793,157.407 -202.358,154.778 -199.451,155.128 C -202.382,153.751 -200.168,152.28 -199.497,151.879 C -198.875,151.514 -198.155,151.188 -197.253,151.037 C -195.857,150.802 -194.133,152.072 -192.735,152.178 C -188.466,152.5 -186.534,151.688 -181.042,153.346 C -175.3,155.07 -169.47,157.494 -163.895,159.215 C -152.886,162.59 -145.132,161.732 -137.837,161.091 C -134.559,160.799 -130.884,161.411 -126.439,162.826 C -122.152,164.184 -123.132,164.309 -123.19,161.859 C -124.001,162.039 -124.993,162.009 -126.169,161.768 C -126.037,160.576 -124.643,159.397 -122.779,159.545 C -122.402,160.499 -122.49,161.777 -121.29,162.909 C -119.431,164.658 -118.927,163.664 -117.179,164.246 C -117.296,165.123 -116.803,166.258 -116.681,167.236 C -114.775,167.672 -113.604,167.458 -112.717,169.294 C -111.75,171.276 -114.2,170.445 -114.637,171.636 C -115.262,173.348 -108.725,172.849 -108.41,172.769 C -105.906,172.136 -104.499,173.229 -102.278,175.713 C -104.766,173.526 -106.76,174.316 -108.077,174.656 C -110.244,175.214 -108.666,176.614 -108.237,178.49 C -104.357,179.423 -101.464,178.808 -98.5665,178.656 C -100.174,177.817 -101.567,177.809 -103.175,176.63 C -102.228,175.823 -99.3128,177.157 -97.5359,177.361 C -95.0001,177.65 -92.2421,177.647 -90.3683,177.228 C -88.5004,176.81 -86.3404,177.017 -84.1157,177.033 C -82.2868,177.046 -81.5054,178.362 -79.1395,179.839 C -75.0791,182.361 -71.9228,185.827 -67.8165,186.844 C -65.552,187.402 -63.9221,189.574 -61.6601,190.038 C -60.4033,190.295 -60.3165,189.74 -59.3438,189.745 C -58.6288,189.747 -57.421,190.442 -56.6105,190.602 C -59.1798,192.248 -48.7343,196.229 -47.1362,197.795 C -45.635,199.325 -44.6899,201.023 -44.3693,202.4 C -44.1636,203.27 -42.087,204.407 -42.0494,205.85 C -41.9701,208.401 -45.4382,208.559 -45.7198,210.764 C -46.1546,214.298 -43.1598,218.237 -38.7237,222.248 C -42.2175,220.015 -44.5107,217.02 -45.3801,214.511 C -45.5259,216.003 -44.3502,217.635 -42.5683,219.371 C -41.3922,220.513 -39.0846,222.748 -42.2296,221.764 C -42.3111,221.205 -42.3745,220.652 -42.4218,220.103 C -43.915,219.865 -43.5226,220.501 -43.4337,221.264 C -43.3898,222.165 -45.8791,221.274 -44.9867,222.412 C -43.9777,223.693 -38.8446,223.87 -40.3479,222.269 C -39.6948,222.558 -35.4712,223.971 -39.1819,222.285 C -36.1579,223.276 -31.383,222.135 -28.4457,224.532 C -29.394,225.343 -31.5488,225.35 -33.1996,225.573 C -34.6925,225.773 -35.4232,226.854 -36.0353,227.686 C -37.6654,229.902 -36.7524,232.998 -35.0889,236.258 C -34.0594,236.092 -34.1709,235.312 -33.4164,234.968 C -32.5797,234.586 -31.5898,234.323 -30.9234,233.814 C -29.5684,232.775 -28.4411,231.535 -27.3063,230.371 C -26.068,229.097 -25.6483,229.493 -22.9079,230.35 C -20.3303,231.152 -18.0253,230.111 -15.2563,230.87 C -15.4762,231.772 -16.8894,232.509 -17.9264,232.892 C -19.6801,233.542 -22.5759,231.409 -24.2949,232.123 C -27.3205,233.375 -26.3275,237.172 -29.0822,238.743 C -30.6227,239.62 -31.521,240.258 -33.7568,240.577 C -36.4021,240.951 -35.0593,242.459 -35.6032,243.908 C -35.9073,244.725 -37.5144,244.51 -38.5266,244.774 C -38.8524,244.858 -38.266,246.182 -38.2126,246.393 C -38.0697,246.946 -38.9566,249.188 -37.5239,249.856 C -36.9384,250.128 -36.7125,247.722 -36.5618,247.515 C -35.7625,246.417 -32.6831,246.28 -31.3037,245.511 C -29.9622,244.761 -28.8194,243.883 -27.4133,243.194 C -26.8077,242.897 -26.2658,242.316 -25.2965,242.346 C -24.4612,242.373 -23.5397,243.048 -22.7395,243.072 C -21.2571,243.113 -19.8288,242.241 -18.1659,242.226 C -15.7659,242.201 -14.1466,241.334 -12.6138,240.522 C -12.0543,240.226 -10.0789,238.651 -9.20208,238.968 C -6.72332,239.861 -6.79417,237.633 -5.58467,237.252 C -6.3216,237.284 -7.07177,237.296 -7.83848,237.29 C -7.00171,236.85 -7.07838,235.876 -6.18335,235.478 C -5.10205,237.196 -3.21693,236.688 -2.04367,238.124 C -1.21124,239.137 -0.105231,241.193 1.73853,240.875 C 1.35436,241.33 0.784625,241.678 0.0734096,241.895 C 0.130861,240.981 -1.88483,239.742 -1.88652,241.001 C -1.88392,242.447 -2.13324,243.834 -1.78435,245.38 C -1.45482,246.826 1.72413,248.385 1.1326,249.68 C 0.900267,250.19 0.43991,250.685 1.0931,251.437 C 1.61224,252.03 2.16616,252.426 1.66501,252.867 C 2.59029,252.499 3.53712,253.375 4.65998,253.41 C 6.25607,253.459 5.73629,254.092 6.16424,254.623 C 6.38241,254.895 7.52339,256.323 7.3246,256.48 C 7.0511,256.696 5.37002,258.391 5.60764,256.719 C 4.67868,257.01 3.8755,257.904 4.95787,258.912 C 6.22056,260.085 7.69522,259.574 8.90946,259.638 C 8.79055,260.081 7.80349,260.525 8.00394,261.061 C 8.26868,261.771 9.48047,262.338 9.75763,263.082 C 9.89802,263.454 13.1834,263.084 13.3099,263.117 C 15.5556,263.693 17.5642,265.256 19.6422,266.173 C 21.9474,267.185 21.7082,265.666 23.3927,266.149 C 27.6376,267.36 30.2835,271.422 34.6331,272.431 C 36.0789,272.764 37.0148,272.378 38.1819,272.275 C 39.5961,272.151 41.4125,272.868 42.9494,273.119 C 46.7801,273.738 51.1787,274.293 54.6662,274.295 C 61.0055,274.277 66.023,272.507 72.2191,272.546 C 75.1516,272.556 77.8895,273.028 80.9545,273.658 C 84.649,274.406 86.2387,273.57 88.9477,272.865 C 91.1414,272.29 93.6196,271.473 96.0785,271.316 C 98.6892,271.145 100.479,271.268 101.704,269.672 C 102.632,268.456 103.563,267.307 105.08,266.51 C 105.351,266.367 106.516,265.608 106.996,265.831 C 108.303,266.434 108.67,265.651 109.821,265.662 C 109.509,267.003 115.044,267.244 115.781,267.105 C 117.006,266.871 117.046,266.252 118.029,267.752 C 118.054,267.79 121.806,268.453 122.278,268.555 C 124.336,268.995 126.553,268.835 128.402,268.783 C 129.785,268.741 131.067,268.992 132.429,268.984 C 134.158,268.971 137.958,268.755 136.858,266.669 C 137.316,266.885 138.378,266.427 138.757,266.265 C 139.306,266.032 140.15,266.796 140.828,266.794 C 141.503,266.792 141.859,266.356 142.241,266.055 C 142.653,265.73 143.098,265.658 143.71,265.53 C 144.598,265.345 144.642,264.912 145.252,264.526 C 146.066,264.009 147.437,263.868 148.718,264.048 C 146.911,263.282 150.442,263.936 151.083,264.057 C 153.325,264.475 155.418,264.594 157.686,265.173 C 157.661,265.341 157.632,265.508 157.603,265.676 C 159.384,265.605 160.65,266.991 161.743,268.09 C 162.64,268.988 164.854,270.836 165.763,269.835 C 167.175,270.892 167.263,275.28 164.756,274.038" fill="#808080" stroke="#ffffff" />
<path class="za" d="M 636.472,112.714 C 636.231,113.732 635.033,114.631 635.651,115.342 C 636.173,115.945 636.646,117.371 635.896,118.385 C 634.91,119.714 633.832,118.599 632.798,119.215 C 631.028,120.267 631.493,118.136 630.149,118.266 C 627.807,118.489 625.808,120.085 623.607,121.342 C 621.618,122.474 620.834,124.027 619.234,125.378 C 617.808,126.578 616.71,126.586 615.579,128.078 C 617.127,127.904 616.168,128.919 615.752,129.549 C 615.177,130.415 615.841,131.069 615.043,132.1 C 614.53,132.763 613.262,133.954 613.807,134.548 C 614.881,135.721 616.062,136.819 617.276,137.889 C 622.402,142.412 627.124,147.368 632.629,151.737 C 631.055,151.714 629.302,152.488 627.77,152.39 C 626.033,152.276 624.37,151.604 622.847,151.179 C 621.317,150.751 619.742,150.25 619.439,148.807 C 619.05,146.959 619.002,145.812 616.688,145.269 C 616.354,147.571 610.768,149.009 610.21,151.286 C 610.117,151.662 610.781,151.904 610.46,152.292 C 610.101,152.725 609.651,152.978 609.384,153.473 C 608.689,154.76 609.45,155.849 608.744,157.196 C 607.969,158.671 607.709,159.826 608.438,160.995 C 609.073,162.013 609.86,162.662 609.416,164.124 C 609.028,165.393 607.897,166.444 606.38,167.003 C 605.136,167.459 602.429,167.24 601.546,167.937 C 599.573,169.488 595.656,169.734 594.767,172.078 C 594.368,173.123 592.526,173.465 592.001,174.726 C 591.442,176.068 591.938,177.245 592.273,178.39 C 592.45,178.996 592.668,179.595 593.013,180.124 C 593.572,180.985 594.064,180.535 593.123,181.582 C 592.577,182.186 590.845,183.802 590.882,184.467 C 590.95,185.655 589.982,186.897 590.196,188.045 C 590.427,189.296 591.532,189.981 591.427,191.383 C 591.337,192.581 590.551,193.225 590.01,194.337 C 589.457,195.472 588.867,197.035 588.714,198.174 C 588.584,199.143 588.935,200.256 588.271,201.234 C 587.606,202.208 586.492,202.999 585.711,203.914 C 584.965,204.786 585.255,205.053 585.243,205.863 C 585.233,206.549 584.271,207.399 583.695,207.924 C 581.353,210.053 578.654,209.918 576.078,211.57 C 573.803,213.02 572.285,214.935 569.881,213.498 C 568.547,212.7 567.24,211.856 566.224,210.796 C 565.301,209.832 563.681,209.553 562.385,209.003 C 559.626,207.83 558.186,205.945 556.57,203.868 C 555.949,203.069 554.908,202.063 554.838,201.046 C 554.773,200.122 549.514,196.095 549.822,196.634 C 547.974,197.124 547.372,197.836 545.859,198.828 C 544.75,196.469 544.013,194.279 543.019,191.863 C 542.489,190.623 541.383,188.124 543.305,186.881 C 542.575,186.614 543.445,186.004 543.785,185.657 C 544.212,185.22 544.213,184.455 544.292,183.968 C 544.565,182.239 544.703,180.314 544.141,178.779 C 543.825,177.917 544.222,176.915 544.125,175.998 C 543.972,174.584 543.857,173.152 543.854,171.705 C 543.831,169.1 544.378,166.886 545.158,164.219 C 545.805,161.977 545.366,159.829 546.006,157.57 C 546.816,154.676 547.538,151.756 548.455,148.818 C 549.174,146.492 549.945,143.76 551.863,141.673 C 552.788,140.66 554.24,140.155 555.031,139.018 C 555.605,138.191 555.966,136.621 554.457,137.087 C 555.263,135.607 557.798,135.48 558.353,133.881 C 558.998,132.005 558.87,131.36 561.264,130.147 C 563.076,129.224 565.326,127.944 566.392,126.156 C 566.87,125.35 566.199,125.37 567.502,124.663 C 568.271,124.245 569.042,122.997 569.889,123.182 C 569.841,123.103 569.773,123.043 569.685,123.002 C 571.446,121.699 573.414,118.819 573.091,117.06 C 572.805,115.522 577.393,112.97 578.153,111.535 C 578.61,110.669 579.49,110.089 579.9,109.254 C 580.397,108.24 580.681,106.887 580.953,105.85 C 581.294,104.537 581.054,104.97 582.27,104.13 C 582.8,103.762 583.1,103.1 583.75,102.914 C 584.494,102.702 585.269,102.559 585.989,102.088 C 586.061,104.011 589.276,100.882 590.079,100.253 C 590.512,101.391 591.746,101.564 592.892,100.076 C 593.673,99.059 592.501,98.7199 591.981,98.3425 C 594.139,97.0765 594.361,99.6234 594.984,100.411 C 595.526,101.097 596.714,101.182 597.723,101.191 C 598.306,101.195 602.694,100.891 600.232,101.452 C 601.299,101.227 601.548,101.89 602.446,101.001 C 603.209,100.245 603.826,102.225 603.947,102.466 C 601.12,103.676 602.319,105.516 603.423,106.459 C 605.316,108.076 607.694,108.709 610.759,108.757 C 615.379,108.816 619.794,109.073 623.931,110.222 C 625.881,110.759 627.674,111.523 629.738,111.933 C 631.817,112.345 634.784,111.721 636.472,112.714" fill="#808080" stroke="#ffffff" />
<path class="tz" d="M 584.271,322.799 C 583.225,321.744 582.72,321.422 580.96,321.118 C 579.744,320.908 581.43,323.765 582.191,322.39 C 582.462,323.182 583.556,324.23 584.483,324.664 C 584.338,324.086 584.876,323.291 584.271,322.799" fill="#808080" stroke="#ffffff" />
<path class="tz" d="M 573.995,313.189 C 573.661,313.883 572.803,314.601 573.758,315.241 C 573.666,314.446 574.725,313.967 573.995,313.189" fill="#808080" stroke="#ffffff" />
<path class="tz" d="M 585.043,329.763 C 584.529,329.206 583.507,328.967 584.362,328.545 C 584.076,328.527 583.793,328.5 583.512,328.462 C 584.408,327.424 582.689,327.033 582.764,328.117 C 582.854,329.403 583.734,330.353 585.306,330.254 C 585.219,330.09 585.131,329.926 585.043,329.763" fill="#808080" stroke="#ffffff" />
<path class="tz" d="M 661.577,299.892 C 662.996,300.886 662.557,302.461 663.924,303.472 C 661.971,304.233 660.142,305.124 659.823,306.698 C 659.594,307.835 658.685,309.454 658.354,310.639 C 658.114,311.497 660.148,311.479 660.193,312.026 C 660.242,312.687 658.312,312.863 659.096,313.372 C 659.615,313.71 658.526,314.881 658.367,315.212 C 657.913,316.159 659.854,316.36 659.494,317.234 C 661.658,315.826 664.109,316.242 663.912,318.283 C 665.248,317.684 664.815,318.717 664.742,319.439 C 664.647,320.355 662.995,320.569 663.017,321.459 C 663.06,323.119 666.841,325.442 668.826,326.361 C 670.213,327.003 674.008,327.468 671.74,328.907 C 669.489,330.334 666.438,331.073 663.724,331.992 C 660.094,333.22 656.507,334.434 652.963,335.632 C 649.941,336.654 646.839,338.061 643.615,338.641 C 640.716,339.162 637.188,338.488 634.311,338.262 C 630.505,337.964 626.75,337.671 623.046,337.373 C 619.439,337.082 615.88,336.761 612.363,336.479 C 609.936,336.283 607.212,336.582 605.544,335.159 C 604.833,334.551 605.526,334.273 605.305,333.611 C 605.142,333.123 603.781,333.005 603.19,332.768 C 601.163,331.957 598.33,331.971 596.165,331.536 C 594.884,331.278 589.557,330.966 589.12,330.07 C 588.42,328.636 587.9,326.771 587.777,325.258 C 587.714,324.489 587.682,323.716 587.49,322.958 C 587.405,322.598 587.267,322.251 587.074,321.916 C 586.801,321.462 585.975,321.277 585.794,320.851 C 585.015,319.042 581.358,320.343 580.562,318.422 C 578.977,319.641 578.044,317.857 578.279,316.896 C 578.655,315.367 577.102,314.381 577.133,313.039 C 576.456,314.464 575.242,312.596 575.213,312.002 C 575.172,311.13 574.938,310.154 574.259,309.442 C 573.633,308.785 571.408,308.182 572.338,307.588 C 571.472,307.811 571.16,306.524 570.584,306.829 C 569.648,307.324 569.578,306.291 569.542,305.844 C 569.473,305.017 568.282,305.218 567.683,304.697 C 567.351,304.408 567.549,304.065 567.077,303.834 C 566.459,303.533 566.133,303.33 566.462,302.693 C 565.552,303.275 564.704,302.804 564.08,302.277 C 564.952,303.193 561.501,302.26 561.076,302.973 C 559.828,301.314 562.501,298.586 563.787,297.244 C 564.278,296.73 564.629,296.091 565.176,295.611 C 565.831,295.038 566.786,294.757 567.453,294.18 C 568.154,293.572 568.234,292.646 568.954,292.034 C 569.667,291.429 571.387,292.044 572.346,291.383 C 573.534,290.564 572.523,289.283 573.339,288.288 C 574.242,287.187 575.541,287.004 577.055,286.845 C 579.218,286.615 578.25,285.188 579.806,284.821 C 581.231,284.483 581.916,284.104 583.445,284.216 C 584.76,284.311 585.714,284.368 586.089,283.177 C 586.362,282.309 589.25,281.093 590.375,280.961 C 590.761,280.916 591.146,281.317 591.433,281.423 C 592.26,281.727 593.233,281.675 594.051,282.036 C 595.193,282.54 595.186,283.7 596.047,284.404 C 597.202,285.346 598.128,286.485 599.361,287.379 C 600.652,288.315 602.529,288.689 604.301,289.031 C 605.967,289.352 604.927,288.177 604.953,287.591 C 607.021,287.967 607.53,286.509 609.502,286.874 C 610.124,286.989 611.659,286.47 612.408,286.367 C 613.58,286.206 614.981,285.919 616.144,285.833 C 616.411,285.837 616.658,285.883 616.882,285.973 C 617.671,286.152 618.393,285.588 619.163,285.519 C 619.887,285.453 620.585,285.246 621.313,285.192 C 621.986,285.142 622.467,285.52 623.077,285.462 C 623.579,285.415 623.977,285.086 624.461,284.98 C 625.253,284.807 625.746,285.25 626.391,285.417 C 627.626,285.735 628.753,285.114 629.907,284.775 C 632.981,283.87 636.314,286.881 638.671,287.789 C 641.792,288.99 643.511,291.204 647.644,291.183 C 650.51,291.168 654.257,292.435 655.074,294.364 C 655.488,295.342 655.529,296.455 656.66,297.206 C 658.105,298.173 660,298.973 661.577,299.892" fill="#808080" stroke="#ffffff" />
<path class="in" d="M 506.088,599.9 C 506.822,602.15 505.153,602.661 504.052,602.972 C 502.754,603.342 504.231,606.178 504.586,607.249 C 503.52,606.836 501.573,607.251 500.756,607.95 C 499.262,609.234 496.978,606.274 495.628,607.959 C 495.316,608.35 494.017,613.317 492.908,611.811 C 491.106,609.371 490.253,610.844 489.221,613.019 C 490.77,613.02 490.251,616.313 491.128,617.575 C 492.691,619.824 494.308,621.912 496.004,624.009 C 496.942,625.167 496.985,628.456 498.473,627.124 C 499.715,626.016 502.173,628.513 502.622,630.76 C 502.942,632.364 503.554,635.989 504.769,636.962 C 506.756,638.556 508.909,636.248 510.627,639.887 C 511.846,642.564 510.988,645.901 510.574,648.286 C 510.276,650.01 510.351,651.895 510.247,653.746 C 510.175,655.058 510.069,658.012 508.917,657.886 C 507.424,657.724 506.608,653.798 505.083,654.018 C 504.214,654.145 503.63,655.476 503.036,656.253 C 502.304,657.214 501.384,657.419 500.492,657.943 C 498.428,659.17 499.546,662.114 498.813,664.781 C 497.923,668.039 499.664,671.413 497.939,674.431 C 496.356,677.22 496.101,680.139 496.359,684.571 C 496.524,687.862 497.831,691.898 496.038,693.942 C 495.425,694.644 494.628,695.248 494.513,696.758 C 494.353,698.894 495.764,698.854 495.958,699.838 C 496.192,701.027 495.397,705.846 495.245,707.09 C 494.958,709.422 493.476,711.184 493.427,713.653 C 494.965,713.139 495.139,716.123 495.56,718.193 C 496.077,720.726 497.628,722.207 498.037,724.426 C 498.759,728.347 495.185,730.518 494.608,733.495 C 493.62,738.673 499.003,737.025 500.061,737.369 C 501.15,737.726 501.326,740.806 502.561,741.56 C 503.406,742.078 504.232,741.752 505.085,742.16 C 505.119,743.925 505.648,744.745 506.483,745.25 C 507.375,745.793 509.99,747.574 509.849,749.791 C 509.715,751.906 509.759,754.106 511.134,755.276 C 511.979,755.997 513.483,757.646 512.917,759.708 C 512.691,760.532 511.181,764.55 513.106,764.211 C 513.422,764.158 516.302,763.147 515.962,765.731 C 515.538,768.999 516.877,768.269 517.999,769.371 C 519.37,770.764 518.565,776.076 518.072,777.261 C 516.802,780.332 514.639,779.172 512.679,778.963 C 510.464,778.737 508.253,778.389 506.053,778.142 C 504.183,777.941 503.596,780.794 502.291,782.647 C 501.15,784.275 499.729,784.737 498.583,786.281 C 498.224,786.765 496.817,793.39 497.119,794.04 C 497.943,795.808 495.969,800.004 495.514,801.612 C 495.148,802.907 494.755,804.344 494.181,805.218 C 493.699,805.955 493.247,804.946 492.838,805.506 C 491.463,807.389 491.204,802.301 490.105,800.441 C 488.462,797.664 487.517,793.176 485.775,790.949 C 483.92,788.583 481.259,790.852 479.105,786.793 C 478.498,785.677 477.329,784.702 477.864,782.901 C 478.886,779.478 478.426,779.242 477.167,775.54 C 476.056,772.276 475.122,769.086 473.454,767.097 C 472.191,765.593 470.456,766.21 469.373,764.728 C 468.847,764.007 468.762,762.394 468.359,761.437 C 467.906,760.36 467.29,759.728 466.758,758.891 C 464.969,756.087 466.248,754.736 466.92,752.422 C 467.514,750.389 468.347,746.43 469.886,750.204 C 471.07,753.108 472.257,753.012 473.368,749.89 C 472.627,748.844 472.19,747.472 471.722,745.97 C 471.2,744.298 470.237,743.783 469.489,742.758 C 467.89,740.574 467.734,737.381 466.309,735.542 C 465.47,734.46 465.633,728.428 463.973,729.721 C 463.249,730.286 463.74,731.632 463.244,732.29 C 462.464,733.328 461.82,731.413 461.315,730.465 C 460.598,729.116 458.402,726.576 457.465,726.634 C 456.347,726.705 455.861,728.427 454.674,726.789 C 453.957,725.8 453.136,726.69 452.424,725.958 C 451.944,725.465 451.725,724.263 451.486,723.393 C 451.086,721.938 450.217,722.341 449.503,722.084 C 447.548,721.379 445.648,721.556 443.919,719.106 C 445.84,717.913 445.573,712.201 446.658,709.713 C 446.762,709.476 446.16,706.897 446.226,706.195 C 446.465,703.705 445.551,703.131 445.444,700.962 C 445.347,698.992 446.7,696.251 445.249,694.573 C 444.387,693.576 441.253,691.141 441.644,693.745 C 440.291,692.936 438.617,691.669 437.23,691.39 C 435.587,691.065 434.606,689.131 433.022,688.267 C 432.555,688.013 429.933,685.823 429.421,686.52 C 428.22,688.164 426.647,686.776 425.372,686.257 C 424.829,686.037 423.176,686.808 422.838,686.343 C 421.665,684.731 421.469,684.235 419.8,684.439 C 418.923,684.547 417.637,683.498 416.939,685.054 C 416.004,687.145 415.205,686.277 413.844,685.906 C 415.108,689.452 409.279,688.212 408.888,688.199 C 407.317,688.147 407.895,684.053 406.476,684.189 C 405.261,684.31 403.382,684.173 402.479,682.703 C 401.741,681.543 400.777,684.288 400.098,684.762 C 398.433,685.93 398.745,680.913 396.723,683.729 C 396.125,684.566 393.027,684.357 392.313,684.025 C 390.478,683.179 390.306,685.118 388.902,686.852 C 388.541,684.997 386.566,684.053 385.911,685.952 C 385.663,686.676 383.118,687.513 382.574,687.798 C 381.408,688.411 381.19,688.688 381.248,691.022 C 381.304,695.067 382.425,696.021 383.497,698.948 C 384.089,700.566 384.135,703.017 384.192,705.102 C 384.263,707.649 384.724,709.396 384.982,711.805 C 383.668,712.772 382.306,715.843 380.917,715.906 C 378.191,716.043 380.058,708.509 378.772,706.624 C 378.542,706.287 377.493,705.796 377.744,704.824 C 378.13,703.331 378.577,703.225 377.944,701.801 C 376.559,698.693 375.048,699.705 373.032,700.407 C 371.675,700.885 370.704,699.208 369.397,700.259 C 368.848,700.7 367.953,701.273 367.502,702.173 C 367.029,703.112 366.159,706.097 365.381,705.598 C 363.435,704.361 361.182,706.548 359.075,708.012 C 358.43,708.462 357.412,710.66 357.016,710.082 C 356.408,709.194 354.569,711.629 353.755,712.331 C 351.707,714.101 354.215,716.009 354.002,717.853 C 353.29,724.044 356.344,719.678 357.712,721.483 C 358.461,722.473 358.869,725.251 357.344,725.531 C 356.121,725.757 355.795,727.118 354.752,728.292 C 353.178,730.072 350.176,730.436 351.012,735.345 C 351.368,737.435 348.028,742.075 347.982,745.356 C 347.91,750.605 344.485,750.43 343.043,754.441 C 341.876,757.696 341.225,761.066 339.891,764.28 C 339.397,765.474 338.894,766.761 338.335,767.841 C 337.853,768.776 335.39,766.985 334.874,766.761 C 335.489,767.522 335.271,767.72 334.22,767.348 C 333.405,767.263 332.452,766.823 331.541,767.574 C 330.607,768.347 330.776,770.484 330.448,771.943 C 329.861,774.566 327.759,777.545 326.656,779.279 C 326.412,779.663 323.94,777.169 323.648,776.862 C 325.303,774.135 325.165,773.8 324.751,771.606 C 324.459,770.061 322.569,774.599 322.143,775.168 C 322.498,772.458 320.341,772.56 320.735,770.341 C 321.336,766.994 321.934,765.569 322.24,762.484 C 322.459,760.303 320.34,763.637 319.977,764.105 C 318.427,766.105 317.304,763.878 315.716,766.003 C 314.347,767.842 313.239,765.138 313.267,762.895 C 313.278,762.061 312.651,761.854 312.731,761.181 C 312.92,759.568 314.179,756.865 314.71,755.49 C 317.536,748.184 313.451,749.065 313.044,744.491 C 314.871,741.802 315.391,746.029 316.847,745.721 C 318.239,745.429 321.663,740.728 322.563,737.959 C 323.246,735.857 323.819,734.096 324.645,732.146 C 324.951,731.027 325.391,730.37 325.965,730.172 C 326.459,729.089 325.973,728.885 326.741,727.513 C 327.549,726.064 328.318,726.573 328.56,724.161 C 328.738,722.4 328.54,720.677 328.241,719.287 C 328.014,718.23 327.474,717.764 327.238,716.798 C 326.925,715.51 328.026,713.924 327.697,712.536 C 326.903,709.19 330.654,704.243 329.713,701.688 C 329.376,700.777 328.665,700.842 328.358,699.765 C 327.888,698.121 328.505,695.399 328.921,693.461 C 329.942,688.729 330.844,683.694 330.645,679.315 C 331.423,679.826 333.356,679.599 334.289,679.433 C 334.746,679.1 335.195,678.717 335.638,678.284 C 336.227,678.128 336.418,678.882 337.097,678.231 C 336.182,675.309 335.616,672.586 335.324,669.151 C 335.202,667.715 334.871,663.195 336.6,664.18 C 336.19,661.217 336.23,658.867 335.322,656.419 C 335,655.553 334.204,652.509 335.742,653.015 C 336.249,648.078 336.142,650.98 338.158,650.965 C 337.991,650.15 338.177,649.158 338.596,648.364 C 339.345,650.298 339.606,652.832 340.044,655.116 C 340.574,657.887 341.889,659.81 342.567,662.49 C 343.095,664.582 343.78,666.615 344.199,668.837 C 344.567,670.794 345.808,666.772 346.667,667.45 C 346.331,666.228 345.921,665.386 346.609,663.836 C 347.346,662.181 346.743,661.082 346.498,659.768 C 346.264,658.515 347.133,656.359 348.001,656.866 C 348.849,657.36 348.726,659.373 349.769,659.524 C 349.628,658.818 349.6,658.057 349.681,657.248 C 350.45,659.195 351.228,661.146 351.977,663.159 C 352.735,665.201 351.067,668.651 351.625,670.603 C 350.887,670.865 349.558,671.242 349.815,673.12 C 349.263,672.158 348.695,674.45 347.955,673.843 C 347.922,677.096 345.433,681.885 346.837,684.992 C 346.381,685.193 344.503,686.478 345.48,687.487 C 346.626,688.675 348.608,688.554 350.055,687.642 C 351.332,686.839 352.574,685.666 353.868,685.256 C 355.565,684.721 356.957,683.04 358.633,682.417 C 360.742,681.638 365.873,677.668 366.021,683.209 C 366.085,685.593 367.396,693.088 369.492,691.513 C 369.059,690.646 369.141,689.541 369.287,688.355 C 370.352,688.738 371.682,688.267 372.536,689.556 C 373.253,690.641 373.844,693.248 375.115,692.052 C 374.592,691.586 374.181,690.901 373.881,689.998 C 374.659,690.075 375.483,689.631 376.251,689.85 C 376.738,689.989 377.054,691.114 377.531,691.47 C 378.174,691.949 378.886,692.123 379.545,692.54 C 380.07,689.636 378.427,691.818 377.875,689.929 C 379.928,687.185 380.779,680.903 377.947,680.554 C 376.817,680.418 376.241,678.639 375.233,678.11 C 374.495,677.723 373.374,679.767 373.117,678.198 C 372.748,675.925 370.943,677.885 371.611,674.908 C 372.262,675.11 373.216,674.396 373.849,673.93 C 374.706,673.301 374.897,673.091 374.853,671.672 C 374.808,670.197 375.397,667.268 376.345,669.058 C 376.193,666.624 377.135,664.135 375.534,662.953 C 374.364,662.094 373.006,661.892 371.674,662.449 C 368.976,663.582 372.259,651.066 369.196,652.319 C 368.293,652.69 368.652,650.609 368.347,649.603 C 368.231,649.223 367.467,649.461 367.333,649.468 C 366.585,649.507 367.157,647.47 367.043,646.814 C 366.814,645.489 365.99,645.012 365.842,643.631 C 365.646,641.789 365.559,640.762 364.822,639.416 C 364.074,638.047 363.25,636.066 363.662,634.043 C 363.942,634.165 364.227,634.268 364.516,634.353 C 364.252,633.769 362.464,631.873 362.939,630.909 C 363.443,629.885 364.327,630.795 364.417,631.614 C 364.44,630.445 364.892,629.202 365.476,630.429 C 366.094,631.727 365.698,633.979 365.878,635.592 C 366.458,634.786 365.691,634.153 366.323,632.882 C 366.256,634.056 366.799,634.867 366.552,636.111 C 367.661,633.977 366.091,629.793 366.12,627.663 C 366.526,628.854 366.388,631.192 367.316,631.726 C 367.292,631.584 366.749,628.067 367.176,628.267 C 367.323,628.459 367.459,628.669 367.582,628.899 C 368.485,630.155 367.446,626.438 368.38,629.157 C 368.017,628.584 367.925,627.855 368.107,626.97 C 369.12,627.766 369.358,630.482 369.63,632.149 C 370.054,634.732 371.349,633.529 372.086,635.429 C 371.652,633.37 369.441,634.943 370.232,631.633 C 371.118,627.948 372.098,626.15 374.221,624.008 C 375.342,622.881 376.849,621.146 376.884,618.929 C 376.906,617.433 375.539,613.286 374.703,612.605 C 375.094,611.872 375.73,611.009 375.854,610.073 C 376.042,608.653 375.204,608.949 376.086,607.269 C 377.133,605.282 377.286,602.359 379.061,604.487 C 378.734,603.525 377.84,603.408 377.196,603.216 C 378.871,601.02 380.663,598.767 382.638,597.421 C 382.061,598.222 382.151,600.58 383.104,599.599 C 384.078,598.599 384.73,595.997 384.194,594.622 C 384.136,595.259 383.42,597.621 382.954,596.8 C 383.553,596.249 384.229,593.421 384.726,592.303 C 385.836,589.811 386.23,587.222 386.87,584.529 C 387.477,581.848 388.239,579.143 389.807,577.295 C 391.147,575.721 390.895,572.92 392.203,571.395 C 391.12,571.004 395.29,566.103 395.702,565.26 C 396.102,564.439 396.489,563.329 396.613,562.381 C 396.813,560.858 395.425,561.058 395.621,559.341 C 396.008,555.974 398.702,555.168 400.615,554.269 C 401.392,553.904 401.352,553.115 401.376,552.157 C 401.402,551.114 401.874,549.104 401.661,548.231 C 402.35,548.393 402.51,549.21 402.873,549.865 C 402.467,549.107 402.726,548.158 402.784,547.308 C 402.814,550.037 405.367,547.487 405.639,546.06 C 406.039,543.98 406.473,540.895 405.571,539.128 C 404.832,537.685 404.003,536.139 403.687,534.514 C 403.149,531.752 402.328,529.729 401.248,527.3 C 401.513,527.688 402.774,529.56 402.353,527.786 C 403.09,528.892 402.766,527.223 402.334,527.072 C 401.78,526.88 401.3,527.012 400.848,526.47 C 400.02,525.48 399.939,522.153 399.84,520.805 C 399.664,518.413 400.418,516.282 400.544,513.958 C 400.643,512.162 399.538,510.035 400.251,508.329 C 400.123,508.586 399.976,508.825 399.811,509.049 C 399.03,508.413 398.782,507.192 398.58,506.133 C 398.252,504.402 397.588,502.825 397.281,501.111 C 397.669,501.009 398.059,500.936 398.452,500.895 C 396.875,500.867 398.422,500.605 398.699,500.593 C 399.278,500.57 400.139,500.615 400.296,499.718 C 400.377,499.254 400.537,498.67 400.229,498.286 C 399.769,497.713 400.476,496.745 400.627,496.129 C 400.922,494.936 401.441,492.382 399.789,492.179 C 399.361,492.126 398.89,492.352 398.549,492.661 C 398.311,492.879 397.503,491.965 397.294,491.852 C 399.149,493.077 401.333,491.131 402.702,489.685 C 404.477,487.815 403.03,485.956 403.596,483.86 C 403.882,482.807 404.707,481.868 405.423,481.177 C 406.549,480.09 407.436,480.49 408.634,481.139 C 409.188,481.44 413.64,484.376 412.622,485.07 C 413.491,484.343 414.421,486.43 415.001,487.249 C 415.827,488.417 416.753,489.824 416.798,491.419 C 416.378,490.984 416.104,490.397 415.922,489.789 C 416.17,491.307 415.638,488.351 414.849,488.502 C 415.312,489.213 415.342,490.196 415.853,490.876 C 416.292,491.458 416.968,491.623 417.219,492.411 C 416.795,490.847 417.633,492.215 417.69,492.565 C 417.824,493.388 418.285,493.501 418.824,494.257 C 419.759,495.618 420.596,497.095 421.481,498.524 C 421.816,499.064 426.416,504.094 426.312,504.459 C 429.023,506.733 431.289,509.855 432.913,513.412 C 433.477,514.696 433.909,515.899 434.611,517.059 C 435.078,517.832 435.554,518.539 436.037,519.294 C 436.403,519.866 437.591,521.247 436.566,521.15 C 437.694,521.229 437.88,523.103 438.645,523.839 C 439.132,524.309 441.14,524.897 439.761,525.746 C 440.506,524.953 441.255,526.111 441.697,526.829 C 442.045,527.395 442.363,527.998 442.758,528.52 C 443.163,529.056 444.015,529.08 443.047,529.567 C 443.58,529.559 444.218,530.318 444.354,530.946 C 444.495,531.598 445.1,531.609 445.662,532.181 C 447.024,533.569 448.144,535.407 449.134,537.248 C 449.827,538.535 450.487,539.917 450.857,541.419 C 451.244,542.992 452.259,544.251 452.837,545.75 C 453.381,547.161 454.324,548.218 455.019,549.535 C 455.475,550.399 457.536,553.099 456.214,552.876 C 456.517,553.167 458.849,555.451 457.155,554.869 C 457.679,555.954 458.905,556.353 458.837,557.849 C 458.588,557.705 458.342,557.556 458.097,557.401 C 458.223,558.101 458.533,558.606 459.026,558.919 C 458.28,559.665 458.997,560.641 459.359,561.434 C 459.249,560.731 459.28,560.054 459.53,559.448 C 460.504,560.651 461.067,563.93 459.082,562.144 C 459.508,562.867 461.783,562.656 461.373,564.016 C 461.23,564.492 462.616,565.798 462.848,566.27 C 463.472,567.539 463.83,568.884 463.965,570.366 C 464.177,572.7 463.791,575.366 464.979,577.473 C 465.134,577.748 466.522,581.62 466.976,579.855 C 466.951,581.004 467.122,580.98 467.487,579.78 C 467.045,581.318 468.44,581.277 468.451,582.304 C 468.457,582.972 468.5,583.678 468.591,584.35 C 468.724,585.331 466.667,586.669 466.53,587.949 C 467.721,585.647 471.757,585.782 469.895,589.257 C 470.612,588.418 471.824,588.963 471.545,590.569 C 471.306,591.952 470.166,591.006 469.917,592.395 C 470.685,591.791 472.569,591.659 473.347,592.74 C 473.248,592.097 474.02,591.582 474.037,591.72 C 473.965,591.097 473.333,591.2 473.093,590.286 C 472.77,589.06 473.275,588.494 473.904,587.936 C 473.669,587.679 473.43,587.433 473.185,587.195 C 473.728,587.226 473.985,586.691 473.957,585.973 C 472.028,585.758 470.879,584.356 471.45,581.659 C 471.652,580.709 471.15,579.642 471.827,578.966 C 472.648,578.149 473.277,576.973 473.953,575.959 C 475.149,574.174 476.476,572.036 478.535,572.306 C 480.619,572.582 483.487,574.369 485.209,576.317 C 487.791,579.25 490.874,580.685 493.682,583.177 C 494.426,583.838 496.68,586.195 495.061,587.039 C 494.619,587.269 494.241,585.983 493.814,585.811 C 493.001,585.486 491.881,586.265 492.099,587.552 C 491.077,586.402 488.711,589.857 488.337,590.961 C 488.013,591.924 488.443,593.135 488.301,594.173 C 488.15,595.268 487.268,596.245 488.473,597.153 C 488.748,596.353 487.861,594.936 488.751,594.74 C 489.713,594.531 490.409,594.029 491.198,593.299 C 491.869,592.679 491.887,591.528 492.787,591.326 C 493.884,591.083 495.163,591.523 496.302,591.963 C 497.441,592.406 498.683,592.721 499.797,593.391 C 500.688,593.928 501.253,595.745 502.194,595.944 C 505.393,596.64 503.041,600.754 502.485,601.948 C 504.045,601.776 503.82,597.282 505.578,597.866 C 505.481,598.603 505.651,599.278 506.088,599.9" fill="#808080" stroke="#ffffff" />
<path class="mw" d="M 596.148,262.524 C 596.268,262.977 595.801,263.529 596.336,263.26 C 595.623,264.779 596.386,267.182 598.541,267.849 C 600.083,268.323 597.018,271.197 596.74,272.045 C 599.6,271.351 600.579,274.648 601.863,275.878 C 602.856,276.829 602.077,277.815 603.744,278.474 C 605.701,279.248 603.8,279.505 603.432,280.484 C 602.876,281.963 603.979,283.853 606.462,283.683 C 608.185,283.565 607.693,285.156 609.31,285.51 C 611.002,285.88 612.102,284.653 613.043,286.139 C 612.388,286.44 610.341,286.721 609.557,286.746 C 607.917,286.801 606.502,287.873 604.95,287.591 C 604.901,288.795 605.862,289.474 603.443,288.975 C 601.658,288.605 599.317,287.899 598.315,286.772 C 597.686,286.065 597.61,285.192 596.415,284.828 C 595.263,284.478 595.769,283.463 595.277,282.809 C 594.281,281.488 591.425,282.135 590.504,280.832 C 591.058,280.569 592.001,280.333 592.306,279.848 C 592.652,279.297 591.988,278.162 592.05,277.528 C 592.244,275.546 591.141,274.854 589.339,273.65 C 588.61,273.163 588.02,272.571 587.444,271.985 C 586.91,271.444 586.624,270.157 585.498,270.161 C 583.331,270.166 581.943,270.406 579.897,269.774 C 578.28,269.273 576.601,268.909 574.999,268.421 C 573.109,267.845 572.418,266.954 571.789,265.483 C 571.232,264.181 569.719,263.258 569.056,261.975 C 568.77,261.421 568.507,260.724 568.851,260.092 C 569.233,259.389 570.379,259.14 570.709,258.42 C 571.038,257.703 570.412,257.2 570.448,256.529 C 570.85,256.024 570.685,255.771 569.956,255.771 C 569.321,255.562 568.744,255.272 568.333,254.847 C 568.135,254.643 567.496,253.948 567.717,253.59 C 567.871,253.341 568.839,252.747 569.059,253.087 C 569.767,254.189 568.825,254.371 570.75,254.466 C 572,254.527 575.85,254.715 576.475,255.609 C 576.839,256.132 577.334,256.015 577.865,256.338 C 578.949,256.999 578.112,257.272 578.323,258.18 C 578.445,258.704 579.018,258.839 578.911,259.473 C 578.741,260.479 578.892,260.648 579.554,261.458 C 580.332,262.409 581.203,264.208 583.084,264.184 C 584.156,264.169 584.773,263.353 585.34,262.749 C 585.917,262.132 587.376,261.753 586.977,261.203 C 587.749,261.314 593.105,262.737 593.154,262.555 C 593.449,261.461 594.744,262.578 596.148,262.524" fill="#808080" stroke="#ffffff" />
<path class="zw" d="M 629.923,212.517 C 628.86,212.955 627.825,213.394 627.102,214.165 C 626.401,214.913 625.16,214.364 624.363,214.488 C 623.487,214.624 623.142,215.708 622.591,216.134 C 621.881,216.683 620.393,216.789 619.547,217.018 C 617.106,217.679 616.665,219.714 616.467,221.211 C 616.199,223.206 615.608,224.834 615.873,226.74 C 615.978,227.504 615.592,228.082 614.926,228.772 C 614.014,229.713 613.654,230.804 612.86,231.788 C 611.308,233.707 610.927,234.06 612.288,235.753 C 612.958,236.585 611.775,238.74 610.91,239.653 C 610.101,240.505 609.154,241.583 608.053,242.233 C 606.726,243.015 605.113,243.486 603.977,244.44 C 602.505,242.787 602.58,242.508 599.805,244.042 C 598.088,244.988 596.74,245.469 594.657,245.691 C 593.384,245.826 592.325,246.159 591.062,246.062 C 589.875,245.97 588.994,246.838 587.923,247.15 C 587.236,247.349 585.622,247.966 585.069,247.525 C 584.376,246.974 583.668,247.563 583.077,248.102 C 582.63,247.252 582.909,246.468 581.747,245.98 C 580.39,245.409 580.567,244.337 579.449,243.721 C 578.367,243.126 578.479,241.722 577.483,240.98 C 576.792,240.467 575.832,240.271 576.202,239.34 C 576.472,238.658 575.249,238.132 575.473,237.807 C 576.021,237.011 576.27,236.939 575.982,236.042 C 575.853,235.645 575.001,235.971 574.658,235.961 C 574.367,235.951 574.13,235.393 574.047,235.239 C 573.85,234.872 574.077,234.479 573.953,234.105 C 573.856,233.815 572.612,233.258 572.292,233.06 C 572.149,233.224 572.007,233.388 571.863,233.552 C 571.196,232.659 570.422,232.611 570.425,231.303 C 570.428,230.25 569.829,228.863 570.624,227.832 C 571.496,226.701 570.111,226.726 569.779,225.932 C 569.373,224.962 569.865,223.952 568.294,223.698 C 569.616,223.598 570.339,216.702 570.544,215.84 C 570.731,215.05 570.693,214.228 571.892,214.04 C 573.524,213.782 574.932,212.482 576.257,211.623 C 577.416,210.87 578.658,210.476 579.972,210.017 C 580.764,209.739 583.169,207.918 583.61,207.936 C 584.749,207.983 584.587,207.767 585.633,207.525 C 586.776,207.26 586.383,208.346 586.875,208.405 C 589.091,208.667 593.093,204.959 594.855,205.627 C 596.585,206.28 598.63,206.499 599.413,207.939 C 600.438,209.825 601.545,209.588 603.635,207.746 C 604.59,209.472 605.755,209.684 608.267,208.734 C 610.272,207.971 613.736,207.713 615.631,208.037 C 618.546,208.53 620.35,210.323 623.573,210.597 C 624.993,210.715 629.758,211.277 629.923,212.517" fill="#808080" stroke="#ffffff" />
<path class="lk" d="M 395.674,492.035 C 395.417,491.659 394.752,491.604 394.395,491.435 C 394.639,491.975 395.147,492.251 395.674,492.035" fill="#808080" stroke="#ffffff" />
<path class="lk" d="M 392.492,481.505 C 391.904,478.892 388.744,468.712 384.829,471.697 C 383.039,473.067 380.446,475.548 379.83,477.977 C 379.319,479.995 379.55,483.186 380.973,484.55 C 380.91,484.239 382.318,486.015 382.611,486.207 C 381.019,485.592 383.174,487.309 383.453,487.61 C 384.339,488.565 384.634,489.927 385.42,490.967 C 385.744,490.43 386.218,490.406 386.587,490.81 C 385.246,491.163 389.121,494.347 389.411,494.895 C 389.723,495.488 394.062,498.795 394.543,497.903 C 393.807,497.963 393.256,497.328 392.662,496.967 C 393.498,497.198 395.309,498.866 395.894,497.217 C 395.337,496.659 394.576,496.861 393.949,496.505 C 394.024,497.303 392.01,496.699 391.527,496.237 C 391.91,496.404 393.78,496.25 394.261,496.058 C 393.771,495.61 394.114,495.468 394.28,494.975 C 394.512,494.296 393.549,493.669 393.825,492.612 C 394.463,490.167 393.472,486.642 393.034,484.251 C 393.937,484.233 393.824,485.612 393.997,486.294 C 394.497,484.568 392.947,482.939 392.492,481.505" fill="#808080" stroke="#ffffff" />
<path class="lk" d="M 395.895,496.678 C 395.706,496.297 395.686,496.112 395.251,496.373 C 395.465,496.475 395.68,496.577 395.895,496.678" fill="#808080" stroke="#ffffff" />
<path d="M 582.042,269.772 C 580.837,269.775 577.713,268.03 577.959,267.002 C 579.26,267.285 580.565,267.576 581.87,267.878 C 580.652,266.78 582.231,265.274 583.526,266.627 C 584.01,267.133 584.041,267.855 584.413,268.413 C 584.953,269.225 585.553,268.672 586.398,268.83 C 588.125,269.151 588.781,271.225 589.882,272.154 C 590.874,272.99 592.253,273.696 593.61,274.004 C 594.81,274.277 594.607,275.872 594.576,276.615 C 594.51,277.964 594.443,278.673 595.685,279.663 C 597.008,280.719 597.736,281.965 598.979,283.063 C 599.639,283.645 599.139,284.522 599.983,284.98 C 600.854,285.452 602.118,285.377 602.979,285.868 C 603.508,286.171 606.484,288.351 605.043,288.936 C 603.282,289.648 599.664,287.83 598.653,287.025 C 597.93,286.451 597.586,285.76 597.064,285.092 C 596.578,284.471 595.757,284.376 595.395,283.609 C 594.54,281.794 592.677,282.116 590.969,281.061 C 590.014,280.469 588.878,278.864 589.413,277.858 C 590.585,275.652 587.954,275.669 586.974,274.318 C 586.535,273.712 586.833,273.292 586.132,272.739 C 585.546,272.277 585.133,271.719 584.531,271.265 C 584.013,270.876 583.064,268.75 582.042,269.772" fill="#ffffff" stroke="#ffffff" />
<path class="aq" d="M 351.388,177.271 C 351.585,177.329 351.776,177.424 351.954,177.554 C 352.004,177.387 352.033,177.212 352.039,177.029 C 352.075,177.484 351.748,178.378 352.184,178.85 C 352.265,178.569 352.447,178.387 352.733,178.304 C 352.566,178.541 352.543,178.882 352.76,179.222 C 353.038,178.932 353.171,177.859 352.549,177.483 C 353.041,177.348 352.864,176.679 352.29,176.44 C 352.791,176.303 351.799,175.042 351.762,174.379 C 351.7,173.305 350.681,173.908 350.685,174.55 C 350.688,175.261 350.26,175.029 349.58,174.98 C 349.026,174.938 348.368,175.054 349.183,175.708 C 348.698,175.9 348.528,175.122 348.022,174.984 C 347.255,174.773 347.588,175.596 347.216,175.798 C 346.631,176.114 347.652,176.52 347.72,176.105 C 347.813,175.532 348.87,175.648 349.042,176.399 C 348.575,176.227 348.317,176.333 348.791,176.79 C 348.314,176.734 348.063,177.202 347.583,177.065 C 347.303,176.984 346.147,176.735 347.236,177.342 C 345.811,177.284 347.93,180.092 348.027,178.235 C 348.033,178.008 348.819,177.864 348.961,177.676 C 349.121,177.462 349.118,177.152 349.261,176.927 C 349.367,176.758 350.187,176.462 349.537,177.008 C 349.834,176.777 350.362,176.763 350.7,177.277 C 350.799,177.177 350.884,177.064 350.951,176.938 C 350.92,177.49 349.7,177.508 350.562,178.313 C 350.364,177.72 350.959,177.446 351.351,177.285 C 351.073,177.553 350.956,178.03 351.24,178.509 C 351.585,178.272 351.684,177.763 351.388,177.271" fill="#808080" stroke="#ffffff" />
<path class="aq" d="M 351.388,177.271 C 351.684,177.763 351.585,178.272 351.239,178.508 C 350.949,178.019 351.069,177.516 351.388,177.271" fill="#808080" stroke="#ffffff" />
<path class="aq" d="M 329.916,160.963 C 330.628,161.372 331.234,161.263 331.814,161.217 C 330.543,160.443 330.77,160.292 329.916,160.963" fill="#808080" stroke="#ffffff" />
<path class="sz" d="M 557.337,192.112 C 557.337,192.112 557.204,192.21 557.204,192.21 C 556.068,192.215 556.229,192.25 555.213,192.145 C 554.339,192.053 554.102,191.898 553.276,191.899 C 552.242,191.899 550.308,192.256 549.8,193.655 C 549.577,194.266 549.81,194.123 549.889,194.747 C 553.341,199.394 550.062,198.186 552.939,199.534 C 553.915,199.578 555.095,199.554 555.777,199.36 C 557.673,197.26 558.079,196.878 558.09,195.951 C 558.097,195.419 557.985,195.089 557.925,194.766 C 557.866,194.443 557.119,192.617 557.337,192.112" fill="#808080" stroke="#ffffff" />
<path class="re" d="M 455.136,286.172 C 455.771,287.159 457.708,285.548 456.897,284.693 C 455.677,283.407 452.482,284.679 455.136,286.172" fill="#808080" stroke="#ffffff" />
<path class="km" d="M 538.468,302.271 C 538.299,302.647 538.791,303 539.088,303.197 C 539.845,303.7 540.027,304.395 540.695,304.928 C 541.729,304.505 540.592,303.65 540.52,303.094 C 540.405,302.222 539.196,302.513 538.468,302.271" fill="#808080" stroke="#ffffff" />
<path class="km" d="M 534.899,300.989 C 535.335,301.306 536.008,301.413 536.513,301.072 C 536.135,300.506 535.47,300.845 534.899,300.989" fill="#808080" stroke="#ffffff" />
<path class="km" d="M 531.308,302.648 C 531.516,304.159 532.417,303.162 533.502,302.941 C 532.763,302.869 532.007,302.856 531.308,302.648" fill="#808080" stroke="#ffffff" />
<path class="mu" d="M 448.992,294.312 C 449.143,293.898 449.569,291.374 448.488,291.703 C 446.775,292.221 448.024,294.973 448.992,294.312" fill="#808080" stroke="#ffffff" />
<path class="sc" d="M 493.65,364.794 C 493.812,365.242 494.268,365.712 494.819,365.371 C 494.364,365.329 493.922,365.128 493.65,364.794" fill="#808080" stroke="#ffffff" />
<path class="yt" d="M 526.134,301.078 C 526.033,301.589 526.108,302.55 527.027,302.454 C 527.014,302.052 526.618,301.248 526.134,301.078" fill="#808080" stroke="#ffffff" />
<path class="mv" d="M 449.446,427.56 C 449.559,428.07 449.956,428.627 450.523,428.287 C 450.086,428.207 449.677,427.951 449.446,427.56" fill="#808080" stroke="#ffffff" />
</g>
</svg>
