<?xml version="1.0" encoding="UTF-8" standalone="no"?>
<svg version="1.1"
  baseprofile="full"
  xmlns="http://www.w3.org/2000/svg"
  xmlns:xlink="http://www.w3.org/1999/xlink"
  xmlns:ev="http://www.w3.org/2001/xml-events"
  width="650"
  height="900"
  viewBox="0 0 650 900"
>
<defs>
<clipPath id="ClipPath5">
<polygon points="442.394,488.143 587.5,288.422 442.394,88.6997 207.606,164.987 207.606,411.857" />
</clipPath>
</defs>
<rect width="650" height="900" fill="#ffffff" />
<line x1="0" y1="878.756" x2="650" y2="667.558" stroke="black" stroke-width="1" stroke-dasharray="10,10" />
<line x1="0" y1="344.401" x2="650" y2="555.599" stroke="black" stroke-width="1" stroke-dasharray="10,10" />
<line x1="0" y1="232.442" x2="650" y2="21.2443" stroke="black" stroke-width="1" stroke-dasharray="10,10" />
<line x1="442.394" y1="88.6997" x2="650" y2="374.445" stroke="black" stroke-width="1" stroke-dasharray="10,10" />
<line x1="207.606" y1="811.3" x2="0" y2="525.555" stroke="black" stroke-width="1" stroke-dasharray="10,10" />
<line x1="442.394" y1="488.143" x2="587.5" y2="288.422" stroke="black" stroke-width="1" stroke-dasharray="10,10" />
<line x1="207.606" y1="411.857" x2="62.5" y2="611.578" stroke="black" stroke-width="1" stroke-dasharray="10,10" />
<line x1="207.606" y1="164.987" x2="207.606" y2="411.857" stroke="black" stroke-width="1" stroke-dasharray="10,10" />
<line x1="442.394" y1="735.013" x2="442.394" y2="488.143" stroke="black" stroke-width="1" stroke-dasharray="10,10" />
<g clip-path="url(#ClipPath5)">
<path d="M 382.26,279.568 C 382.119,279.494 381.978,279.422 381.835,279.352 C 381.422,279.166 381,278.999 380.572,278.85 C 379.884,278.656 379.184,278.512 378.475,278.417 C 377.534,278.37 376.593,278.411 375.659,278.54 C 374.555,278.811 373.489,279.205 372.474,279.716 C 371.394,280.436 370.417,281.289 369.557,282.261 C 368.766,283.446 368.15,284.73 367.722,286.089 C 367.483,287.588 367.471,289.107 367.689,290.609 C 368.152,292.118 368.846,293.536 369.754,294.828 C 370.873,295.98 372.161,296.938 373.585,297.68 C 375.104,298.184 376.683,298.44 378.283,298.443 C 379.825,298.201 381.31,297.724 382.704,297.022 C 383.916,296.16 384.987,295.129 385.895,293.951 C 386.573,292.749 387.08,291.465 387.407,290.124 C 387.541,288.891 387.523,287.651 387.351,286.423 C 387.084,285.39 386.709,284.392 386.23,283.439 C 385.773,282.712 385.255,282.026 384.68,281.387 C 384.234,280.959 383.763,280.559 383.267,280.188 C 382.982,279.996 382.69,279.813 382.393,279.641 C 382.341,279.612 382.29,279.584 382.238,279.556 C 382.234,279.554 382.505,279.045 382.877,278.349 C 385.408,273.607 386.726,271.139 387.765,269.192 C 389.321,266.277 390.799,263.509 392.086,261.097 C 396.214,253.365 400.207,245.884 403.967,238.841 C 407.626,231.986 411.247,225.203 414.962,218.243 C 418.445,211.718 422.35,204.403 426.352,196.907 C 430.181,189.733 434.347,181.929 438.733,173.712 C 443.493,164.796 448.438,155.533 453.7,145.674 C 458.639,136.422 463.835,126.688 469.567,115.95 C 475.993,103.913 482.712,91.3256 490.535,76.6713 C 493.484,72.6655 485.865,86.8379 479.163,99.3059 C 472.49,111.718 466.305,123.224 460.562,133.908 C 455.241,143.805 450.252,153.086 445.542,161.848 C 440.682,170.889 436.061,179.485 431.621,187.744 C 427.507,195.397 423.445,202.953 419.785,209.761 C 415.969,216.861 412.294,223.697 408.758,230.275 C 405.146,236.994 401.429,243.908 397.618,250.997 C 394.031,257.671 390.095,264.992 382.26,279.568" fill="#ffffff" stroke="#ffffff" />
<path class="ar" d="M 540.871,422.966 C 539.701,422.575 538.601,422.669 537.389,421.848 C 538.646,422.85 537.898,419.361 536.525,420.976 C 536.006,421.577 535.087,420.54 534.37,420.302 C 533.493,420.009 532.788,420.512 531.972,420.238 C 529.835,419.5 527.866,420.274 525.964,420.474 C 525.1,420.561 523.907,420.789 523.314,421.504 C 523.021,421.855 522.794,422.314 522.47,422.618 C 522.014,423.044 521.573,421.996 521.255,421.126 C 521.827,421.149 521.832,420.024 522.425,419.907 C 523.072,419.778 522.975,417.928 523.664,417.562 C 524.437,417.148 525.153,416.856 525.803,416.174 C 526.523,415.41 527.36,414.299 528.367,414.112 C 529.014,413.988 528.681,412.772 529.75,413.473 C 530.735,414.12 531.749,415.207 532.728,416.023 C 535.398,418.248 538.18,420.439 540.871,422.966" fill="#808080" stroke="#ffffff" />
<path class="ar" d="M 519.759,422.814 C 519.918,424.124 518.979,424.696 518.687,425.587 C 519.56,425.241 519.929,424.118 520.273,422.975 C 520.098,422.894 519.927,422.841 519.759,422.814" fill="#808080" stroke="#ffffff" />
<path class="cl" d="M 527.655,407.995 C 527.829,408.105 527.975,408.112 528.094,408.014 C 527.948,408.007 527.801,408.001 527.655,407.995" fill="#808080" stroke="#ffffff" />
<path class="cl" d="M 521.331,411.03 C 521.408,411.179 521.486,411.327 521.563,411.476 C 521.801,411.361 521.94,411.109 521.978,410.722 C 521.831,410.98 521.615,411.083 521.331,411.03" fill="#808080" stroke="#ffffff" />
<path class="cl" d="M 520.579,411.994 C 520.757,412.402 520.882,412.379 520.953,411.923 C 520.829,411.947 520.703,411.971 520.579,411.994" fill="#808080" stroke="#ffffff" />
<path class="cl" d="M 520.168,412.282 C 520.351,412.442 520.531,412.532 520.709,412.555 C 520.528,412.464 520.348,412.373 520.168,412.282" fill="#808080" stroke="#ffffff" />
<path class="cl" d="M 524.221,415.934 C 525.303,416.602 528.02,415.128 527.549,413.121 C 527.428,413.979 526.669,412.983 526.217,412.828 C 525.826,412.695 524.722,414.032 525.228,413.193 C 525.026,413.351 524.841,413.538 524.674,413.756 C 524.576,413.985 524.925,414.074 524.933,414.269 C 524.96,414.879 524.159,414.123 523.974,414.142 C 523.455,414.193 523.761,415.47 524.221,415.934" fill="#808080" stroke="#ffffff" />
<path class="cl" d="M 523.007,411.964 C 523.05,412.19 523.092,412.415 523.134,412.64 C 523.544,412.54 523.502,412.314 523.007,411.964" fill="#808080" stroke="#ffffff" />
<path class="cl" d="M 521.306,412.226 C 521.611,412.556 521.912,412.722 522.208,412.724 C 522.178,412.466 522.114,412.205 522.015,411.941 C 521.777,412.031 521.54,412.126 521.306,412.226" fill="#808080" stroke="#ffffff" />
<path class="cl" d="M 524.663,416.515 C 524.352,416.078 524.048,416.525 523.897,416.672 C 524.177,416.69 524.433,416.639 524.663,416.515" fill="#808080" stroke="#ffffff" />
<path class="cl" d="M 523.13,415.824 C 523.257,415.652 523.289,415.401 523.227,415.071 C 522.953,415.06 522.754,415.2 522.631,415.49 C 522.798,415.601 522.963,415.712 523.13,415.824" fill="#808080" stroke="#ffffff" />
<path class="cl" d="M 522.209,416.333 C 522.256,416.973 522.63,417.146 522.731,416.642 C 522.557,416.514 522.383,416.411 522.209,416.333" fill="#808080" stroke="#ffffff" />
<path class="cl" d="M 549.287,404.365 C 549.458,404.113 549.595,404.098 549.215,403.573 C 549.225,403.83 549.249,404.093 549.287,404.365" fill="#808080" stroke="#ffffff" />
<path class="cl" d="M 546.881,403.601 C 546.958,403.854 547.034,404.106 547.111,404.36 C 547.523,404.131 547.446,403.878 546.881,403.601" fill="#808080" stroke="#ffffff" />
<path class="cl" d="M 547.191,405.673 C 547.29,405.486 547.376,405.284 547.45,405.068 C 547.261,404.976 547.072,404.891 546.885,404.813 C 547.119,404.691 547.34,404.547 547.548,404.378 C 547.219,404.5 546.061,404.983 547.191,405.673" fill="#808080" stroke="#ffffff" />
<path class="cl" d="M 541.717,404.376 C 541.757,405.103 541.694,405.841 541.492,406.373 C 541.881,406.229 542.593,407.124 542.005,407.234 C 542.875,408.221 542.983,406.987 543.649,407.405 C 544.144,407.716 544.893,407.612 544.183,406.733 C 544.606,407.039 545.535,407.339 544.818,406.264 C 545.25,406.492 546.607,407.206 546.523,406.302 C 546.349,406.183 546.175,406.072 546.001,405.967 C 546.207,405.803 546.367,405.573 546.479,405.279 C 545.899,405.364 545.287,405.281 544.819,405.623 C 545.13,405.069 546.562,405.416 546.011,404.007 C 545.91,404.392 545.662,404.379 545.33,403.91 C 545.192,405.367 544.71,404.232 543.897,403.76 C 543.478,403.517 543.126,403.676 543.374,404.344 C 543.714,405.266 543.384,405.795 542.865,405.931 C 542.82,405.648 542.77,405.364 542.717,405.079 C 542.532,405.049 542.347,405.025 542.165,405.006 C 542.202,404.627 542.273,404.28 542.379,403.965 C 542.217,404.211 541.996,404.348 541.717,404.376" fill="#808080" stroke="#ffffff" />
<path class="cl" d="M 542.618,403.089 C 543.087,403.762 543.422,403.35 543.351,402.774 C 543.239,403.152 542.995,403.256 542.618,403.089" fill="#808080" stroke="#ffffff" />
<path class="cl" d="M 540.971,406.152 C 541.006,406.071 541.04,405.988 541.075,405.906 C 540.655,405.69 540.508,405.334 540.689,404.974 C 539.831,404.666 540.255,406.491 540.971,406.152" fill="#808080" stroke="#ffffff" />
<path class="cl" d="M 539.313,404.186 C 539.481,404.605 539.611,404.766 539.362,404.956 C 539.729,405.029 539.888,404.807 539.839,404.29 C 539.657,404.228 539.481,404.193 539.313,404.186" fill="#808080" stroke="#ffffff" />
<path class="cl" d="M 541.69,407.771 C 541.755,407.629 541.785,407.453 541.778,407.244 C 541.748,407.419 541.719,407.595 541.69,407.771" fill="#808080" stroke="#ffffff" />
<path class="cl" d="M 540.412,408.478 C 540.731,408.36 540.562,407.708 541.025,408.082 C 541.431,408.408 541.208,406.903 541.342,406.683 C 540.611,405.964 539.548,407.312 538.91,405.983 C 538.26,406.817 539.626,407.057 540.081,407.278 C 539.72,407.117 539.504,407.241 539.432,407.647 C 539.775,407.807 540.101,408.083 540.412,408.478" fill="#808080" stroke="#ffffff" />
<path class="cl" d="M 539.39,405.638 C 539.59,405.707 539.786,405.749 539.975,405.766 C 539.78,405.723 539.584,405.681 539.39,405.638" fill="#808080" stroke="#ffffff" />
<path class="cl" d="M 538.607,404.649 C 538.745,404.654 538.857,404.603 538.945,404.497 C 538.832,404.549 538.719,404.599 538.607,404.649" fill="#808080" stroke="#ffffff" />
<path class="cl" d="M 538.616,405.054 C 538.903,405.721 539.064,405.737 539.101,405.102 C 538.939,405.086 538.778,405.07 538.616,405.054" fill="#808080" stroke="#ffffff" />
<path class="cl" d="M 539.204,409.291 C 539.617,409.225 540.031,408.844 540.192,408.359 C 540.067,408.336 537.458,406.433 538.882,408.488 C 538.032,407.23 538.219,409.274 537.495,407.902 C 537.373,408.231 537.297,408.604 537.267,409.021 C 537.652,409.246 539.291,410.057 538.16,408.748 C 538.47,408.688 538.862,408.879 539.204,409.291" fill="#808080" stroke="#ffffff" />
<path class="cl" d="M 536.52,404.243 C 536.802,404.573 536.884,404.756 537.091,404.482 C 536.901,404.402 536.711,404.323 536.52,404.243" fill="#808080" stroke="#ffffff" />
<path class="cl" d="M 538.328,407.816 C 538.084,407.516 538.008,407.401 537.774,407.527 C 537.958,407.623 538.143,407.72 538.328,407.816" fill="#808080" stroke="#ffffff" />
<path class="cl" d="M 536.404,410.461 C 536.936,411.004 537.495,410.996 538.039,411.438 C 537.654,411.291 537.483,411.482 537.523,412.011 C 538.168,411.923 538.957,413.207 539.592,413.145 C 540.529,413.05 539.182,411.758 538.697,411.685 C 538.958,411.593 539.115,411.353 539.168,410.967 C 538.096,410.242 537.182,409.973 536.404,410.461" fill="#808080" stroke="#ffffff" />
<path class="cl" d="M 533.567,406.001 C 533.639,406.172 533.712,406.344 533.784,406.516 C 534.041,405.997 534.631,406.07 534.813,405.435 C 534.648,405.282 534.482,405.17 534.316,405.098 C 534.537,405.954 534.074,406.184 533.567,406.001" fill="#808080" stroke="#ffffff" />
<path class="cl" d="M 536.458,411.278 C 536.826,412.027 536.954,411.995 536.842,411.183 C 536.714,411.215 536.586,411.247 536.458,411.278" fill="#808080" stroke="#ffffff" />
<path class="cl" d="M 531.101,406.39 C 531.337,406.954 531.545,407.444 531.057,407.425 C 531.68,408.013 532.086,407.164 532.425,406.914 C 532.219,407.144 532.224,407.602 532.423,408.09 C 532.664,407.858 532.463,407.16 532.72,406.974 C 533.006,406.767 533.339,406.624 533.451,406.155 C 532.394,405.223 532.228,407.335 531.101,406.39" fill="#808080" stroke="#ffffff" />
<path class="cl" d="M 535.652,410.939 C 536.057,411.689 536.344,411.066 536.343,410.638 C 536.111,410.734 535.88,410.835 535.652,410.939" fill="#808080" stroke="#ffffff" />
<path class="cl" d="M 532.955,408.098 C 533.188,407.923 533.282,407.603 533.238,407.139 C 532.973,407.28 532.878,407.598 532.955,408.098" fill="#808080" stroke="#ffffff" />
<path class="cl" d="M 531.551,409.022 C 531.498,408.766 531.446,408.51 531.392,408.253 C 531.216,408.556 531.317,408.645 531.551,409.022" fill="#808080" stroke="#ffffff" />
<path class="cl" d="M 529.93,407.509 C 530.114,407.633 530.273,407.654 530.407,407.57 C 530.248,407.55 530.089,407.53 529.93,407.509" fill="#808080" stroke="#ffffff" />
<path class="cl" d="M 530.706,408.738 C 530.364,409.39 529.763,409.852 529.859,410.967 C 530.339,410.697 531.352,409.948 531.269,408.991 C 531.078,408.876 530.89,408.792 530.706,408.738" fill="#808080" stroke="#ffffff" />
<path class="cl" d="M 530.43,408.122 C 529.987,407.766 529.241,408.386 529.103,408.748 C 528.681,407.498 527.156,408.256 527.113,408.949 C 527.456,409.017 527.795,409.071 528.132,409.11 C 529.384,409.249 527.956,410.132 529.01,409.728 C 528.862,410.323 527.937,409.968 527.575,410.329 C 527.227,410.673 526.487,410.143 526.37,409.591 C 526.348,410.291 525.322,410.769 524.924,410.97 C 524.459,411.201 523.796,410.332 523.516,411.082 C 524.221,411.442 524.811,411.769 525.417,411.592 C 525.877,411.457 526.281,410.728 526.904,411.089 C 526.326,410.916 526.025,411.653 525.839,412.194 C 527.032,412.371 527.447,410.498 528.791,411.136 C 528.055,411.317 527.991,411.657 527.507,412.215 C 527.126,412.65 527.849,413.196 528.164,412.98 C 528.627,412.661 528.862,411.929 529.063,411.257 C 529.177,410.877 530.545,409.881 529.47,409.242 C 530.215,409.948 530.537,408.933 530.43,408.122" fill="#808080" stroke="#ffffff" />
<path class="cl" d="M 529.475,407.407 C 529.648,407.048 529.525,406.952 529.106,407.117 C 529.229,407.213 529.352,407.31 529.475,407.407" fill="#808080" stroke="#ffffff" />
<path class="cl" d="M 528.33,407.715 C 528.593,407.971 528.674,408.091 528.806,407.778 C 528.647,407.757 528.488,407.737 528.33,407.715" fill="#808080" stroke="#ffffff" />
<path class="cl" d="M 547.699,405.923 C 547.398,406.083 547.178,406.359 547.04,406.753 C 547.55,406.455 548.299,406.765 548.821,406.491 C 546.921,405.902 550.975,406.666 549.013,406.108 C 550.143,406.255 550.66,405.547 551.471,405.06 C 552.105,404.676 553.309,405.261 553.579,404.244 C 552.519,404.495 551.448,404.227 550.503,404.705 C 550.025,404.942 549.793,405.561 549.27,405.723 C 548.833,405.856 547.814,405.178 547.699,405.923" fill="#808080" stroke="#ffffff" />
<path class="cl" d="M 549.733,405.481 C 549.535,405.361 549.369,405.35 549.234,405.445 C 549.4,405.457 549.566,405.469 549.733,405.481" fill="#808080" stroke="#ffffff" />
<path class="cl" d="M 549.71,407.513 C 550.308,408.159 550.697,407.44 550.694,406.85 C 550.59,407.426 550.194,407.611 549.71,407.513" fill="#808080" stroke="#ffffff" />
<path class="cl" d="M 541.419,414.636 C 541.937,414.917 542.94,415.659 543.165,416.562 C 542.603,415.913 542.14,416.624 542.719,417.349 C 543.029,417.737 543.903,417.422 544.148,417.346 C 544.254,418.309 543.401,418.068 543.004,418.295 C 542.14,418.787 543.538,420.111 543.739,420.982 C 543.953,421.919 542.374,421.142 542.066,421.296 C 541.516,421.57 541.858,423.005 541.167,422.957 C 540.408,422.903 539.608,421.708 538.852,421.215 C 537.807,420.534 536.782,419.605 535.774,418.688 C 533.459,416.572 531.039,414.994 528.816,412.727 C 529.251,412.748 529.575,412.469 530.012,412.49 C 529.681,412.359 529.382,412.346 529.117,412.452 C 528.941,411.204 530.109,410.671 530.718,410.496 C 531.031,410.407 531.753,410.866 531.885,410.429 C 532.059,409.848 531.993,409.6 532.608,409.815 C 532.4,409.661 532.193,409.505 531.987,409.348 C 532.429,409.529 532.666,407.71 533.169,409.204 C 532.839,408.582 533.459,407.224 533.823,407.158 C 533.867,407.639 533.889,408.106 533.887,408.562 C 534.433,408.563 534.309,407.265 534.493,406.77 C 534.794,407.172 535.109,407.421 535.44,407.516 C 534.644,406.058 536.116,407.044 536.491,407.024 C 535.49,406.466 536.384,405.956 536.661,405.742 C 536.882,405.572 536.789,404.861 537.027,404.77 C 537.279,404.673 537.824,405.292 538.125,405.316 C 537.88,405.742 537.328,405.499 536.99,405.743 C 537.296,406.138 537.608,406.272 537.749,405.93 C 537.672,406.345 537.449,406.478 537.08,406.329 C 538.395,406.751 536.012,407.64 536.161,408.307 C 536.287,408.872 536.863,409.307 536.271,409.597 C 535.864,409.797 534.961,407.644 534.667,408.533 C 534.983,408.571 535.342,408.83 535.593,409.314 C 535.191,409.867 534,409.229 533.857,410.174 C 534.585,410.154 535.196,409.847 535.985,410.004 C 536.674,410.141 536.814,409.143 537.652,409.718 C 536.819,410.355 535.764,410.88 534.602,410.695 C 535.011,410.719 535.511,411.281 535.082,411.608 C 534.698,411.9 534.011,411.482 533.516,411.399 C 533.869,411.702 534.208,411.86 534.535,411.875 C 534.387,412.534 533.428,412.016 533.417,412.6 C 533.396,413.532 532.136,412.951 531.923,411.853 C 532.113,412.401 532.061,412.827 531.667,412.748 C 532.396,413.06 532.154,413.42 531.857,413.662 C 533.852,414.242 535.293,411.379 537.553,412.899 C 539.173,413.975 537.049,416.006 538.294,417.278 C 539.853,418.879 539.542,413.386 541.419,414.636" fill="#808080" stroke="#ffffff" />
<path class="aq" d="M 169.417,281.824 C 168.645,282.431 168.539,283.116 168.366,283.751 C 169.796,282.682 169.889,282.978 169.417,281.824" fill="#808080" stroke="#ffffff" />
<path class="aq" d="M 383.034,219.972 C 382.782,219.752 382.568,219.619 382.389,219.57 C 382.234,219.614 382.428,220.184 382.28,220.243 C 382.721,220.669 383.167,220.606 383.034,219.972" fill="#808080" stroke="#ffffff" />
<path class="aq" d="M 384.25,219.647 C 383.575,218.856 383.541,219.856 383.316,219.996 C 384.058,220.927 384.207,220.127 384.25,219.647" fill="#808080" stroke="#ffffff" />
<path class="aq" d="M 383.355,218.414 C 383.225,217.959 383.735,217.778 383.188,217.646 C 383.314,217.633 383.421,217.587 383.51,217.507 C 383.456,217.49 383.152,217.469 382.975,217.189 C 382.675,216.718 383,216.436 383.05,216.396 C 383.138,216.343 383.216,216.271 383.282,216.182 C 383.345,216.068 383.026,215.587 383.106,215.467 C 383.177,215.363 383.949,214.956 384.207,216.167 C 385.077,216.69 385.303,215.08 386.78,217.098 C 386.566,217.625 385.993,218.147 385.231,217.589 C 384.264,216.906 383.751,218.005 383.355,218.414" fill="#808080" stroke="#ffffff" />
<path class="aq" d="M 364.051,175.949 C 363.966,175.959 363.881,175.969 363.796,175.979 C 363.582,175.542 363.527,175.114 364.183,175.574 C 364.198,175.751 364.153,175.876 364.051,175.949" fill="#808080" stroke="#ffffff" />
<path class="aq" d="M 364.659,175.673 C 364.782,175.556 365.024,175.614 365.386,175.846 C 365.602,176.355 364.861,176.323 364.659,175.673" fill="#808080" stroke="#ffffff" />
<path class="aq" d="M 389.694,197.591 C 389.72,197.475 389.733,197.341 389.733,197.19 C 389.037,196.662 389.123,197.838 388.846,198.05 C 389.736,198.977 389.596,198.036 389.694,197.591" fill="#808080" stroke="#ffffff" />
<path class="aq" d="M 378.44,160.621 C 378.349,160.45 378.259,160.28 378.167,160.109 C 377.948,160.258 377.939,160.725 378.444,161.385 C 378.715,161.404 378.626,161.023 378.44,160.621" fill="#808080" stroke="#ffffff" />
<path class="aq" d="M 379.814,162.527 C 379.468,162.364 379.403,162.575 379.574,162.976 C 379.856,163.065 379.915,162.86 379.814,162.527" fill="#808080" stroke="#ffffff" />
<path class="aq" d="M 383.434,167.013 C 383.418,166.859 383.382,166.688 383.325,166.5 C 382.608,165.91 382.889,167.169 383.132,167.709 C 383.425,167.717 383.532,167.458 383.434,167.013" fill="#808080" stroke="#ffffff" />
<path class="aq" d="M 254.583,228.53 C 254.987,228.203 255.809,226.929 254.62,226.782 C 253.813,226.68 252.749,227.216 252.218,227.461 C 251.585,227.756 250.726,228.694 251.675,228.987 C 252.655,229.292 253.447,228.401 253.992,229.043 C 254.245,228.884 254.441,228.713 254.583,228.53" fill="#808080" stroke="#ffffff" />
<path class="aq" d="M 261.86,226.274 C 261.348,225.93 260.762,223.95 262.217,223.943 C 263.896,223.949 262.77,226.021 261.86,226.274" fill="#808080" stroke="#ffffff" />
<path class="aq" d="M 263.291,220.13 C 262.297,219.98 262.469,219.552 262.968,219.261 C 263.204,219.124 264.364,219.508 264.797,219.416 C 265.042,220.007 263.642,219.74 263.291,220.13" fill="#808080" stroke="#ffffff" />
<path class="aq" d="M 261.125,235.355 C 261.515,235.071 261.605,234.584 260.803,234.46 C 260.519,234.729 259.815,235.613 260.945,235.632 C 261.005,235.539 261.065,235.447 261.125,235.355" fill="#808080" stroke="#ffffff" />
<path class="aq" d="M 266.12,231.113 C 266.335,230.803 266,230.5 265.586,230.27 C 265.62,230.568 265.862,230.846 266.12,231.113" fill="#808080" stroke="#ffffff" />
<path class="aq" d="M 264.452,227.825 C 264.464,227.713 264.426,227.604 264.339,227.497 C 264.377,227.606 264.414,227.716 264.452,227.825" fill="#808080" stroke="#ffffff" />
<path class="aq" d="M 264.528,227.043 C 264.958,227.017 264.53,226.561 264.473,226.508 C 264.254,226.688 264.272,226.867 264.528,227.043" fill="#808080" stroke="#ffffff" />
<path class="aq" d="M 263.433,225.954 C 263.62,225.779 263.62,225.602 263.433,225.422 C 263.349,225.598 263.349,225.775 263.433,225.954" fill="#808080" stroke="#ffffff" />
<path class="aq" d="M 254.795,242.78 C 254.662,243.283 255.478,242.858 255.571,242.609 C 255.727,242.198 254.761,242.459 254.795,242.78" fill="#808080" stroke="#ffffff" />
<path class="aq" d="M 317.662,378.864 C 318.49,377.551 316.928,377.224 316.247,377.754 C 315.826,378.08 317.078,379.235 317.662,378.864" fill="#808080" stroke="#ffffff" />
<path class="aq" d="M 322.5,381.536 C 322.22,381.465 321.263,381.344 321.734,380.491 C 322.099,380.543 322.923,380.584 322.5,381.536" fill="#808080" stroke="#ffffff" />
<path class="aq" d="M 381.12,376.472 C 380.803,375.944 381.399,375.331 381.248,374.818 C 381.05,374.138 380.522,374.041 380.511,373.05 C 380.931,372.469 381.098,373.298 381.33,373.793 C 381.677,374.529 382.272,374.303 382.726,374.545 C 382.479,375.17 382.131,375.129 381.837,375.412 C 381.58,375.658 381.398,376.389 381.12,376.472" fill="#808080" stroke="#ffffff" />
<path class="aq" d="M 350.223,387.965 C 349.787,387.99 349.16,388.45 348.682,388.897 C 348.985,389.179 350.409,390.894 350.942,390.083 C 351.543,389.16 350.44,388.044 350.223,387.965" fill="#808080" stroke="#ffffff" />
<path class="aq" d="M 347.489,391.431 C 347.512,391.572 347.58,391.626 347.693,391.593 C 347.625,391.539 347.556,391.485 347.489,391.431" fill="#808080" stroke="#ffffff" />
<path class="aq" d="M 344.312,385.998 C 344.257,386.139 344.202,386.281 344.147,386.422 C 344.278,386.354 344.41,386.256 344.543,386.128 C 344.466,386.085 344.39,386.041 344.312,385.998" fill="#808080" stroke="#ffffff" />
<path class="aq" d="M 340.75,386.864 C 340.439,387.489 340.86,387.386 341.039,386.861 C 340.943,386.861 340.847,386.863 340.75,386.864" fill="#808080" stroke="#ffffff" />
<path class="aq" d="M 339.406,386.622 C 338.864,386.577 338.103,387.367 338.817,387.7 C 339.318,387.93 339.97,387.041 339.406,386.622" fill="#808080" stroke="#ffffff" />
<path class="aq" d="M 358.969,391.853 C 358.892,391.804 358.813,391.754 358.735,391.705 C 358.944,391.533 359.107,391.546 359.225,391.743 C 359.14,391.779 359.054,391.816 358.969,391.853" fill="#808080" stroke="#ffffff" />
<path class="aq" d="M 356.038,392.263 C 355.828,392.413 355.092,392.724 355.153,392.161 C 355.273,391.161 355.99,391.901 356.038,392.263" fill="#808080" stroke="#ffffff" />
<path class="aq" d="M 350.237,391.565 C 349.772,391.861 348.8,391.243 349.507,390.876 C 349.802,390.723 350.803,390.548 350.237,391.565" fill="#808080" stroke="#ffffff" />
<path class="aq" d="M 426.706,325.478 C 426.211,326.126 427.491,328.509 427.772,330.157 C 427.842,330.616 427.761,331.148 428.101,331.848 C 428.593,332.876 428.978,332.007 429.009,331.858 C 429.251,330.634 429.552,329.389 429.273,327.563 C 428.835,325.203 426.964,324.956 426.706,325.478" fill="#808080" stroke="#ffffff" />
<path class="aq" d="M 418.794,331.784 C 417.79,330.438 419.255,329.514 419.352,329.405 C 419.755,328.945 420.127,328.436 420.666,328.2 C 421.183,327.966 422.065,328.256 422.286,327.547 C 420.781,325.73 419.861,326.993 419.558,327.496 C 419.406,327.743 419.352,328.145 419.195,328.39 C 418.952,328.764 418.383,328.533 417.92,328.488 C 417.385,328.432 416.902,328.468 416.511,328.68 C 416.063,328.916 415.162,329.806 417.17,332.391 C 418.165,333.641 418.988,334.277 419.305,333.729 C 419.455,333.465 419.729,332.522 418.794,331.784" fill="#808080" stroke="#ffffff" />
<path class="aq" d="M 400.006,350.792 C 399.877,350.87 399.749,350.956 399.622,351.05 C 400.44,350.674 401.354,350.879 402.182,350.557 C 402.542,350.412 402.927,350.395 403.31,350.368 C 403.82,350.329 404.12,349.681 404.546,349.322 C 403.753,349.473 403.048,350.055 402.24,350.133 C 401.47,350.198 400.708,350.339 400.006,350.792" fill="#808080" stroke="#ffffff" />
<path class="aq" d="M 410.902,338.118 C 410.883,338.935 410.872,339.787 410.81,340.566 C 411.038,341.043 411.238,341.192 411.452,341.478 C 411.783,341.917 412.161,342.842 412.426,343.572 C 412.981,345.075 412.959,346.1 412.785,346.851 C 412.3,348.769 411.429,349.727 410.322,349.968 C 409.374,350.16 408.246,350.459 407.08,349.328 C 406.747,349 406.42,348.38 406.602,347.753 C 406.845,346.925 407.613,347.87 407.743,346.746 C 406.629,344.397 406.349,348.76 405.158,345.793 C 405.239,345.249 405.505,345.256 405.671,344.976 C 404.989,344.15 404.535,345.609 403.823,344.213 C 402.752,342.117 403.667,342.08 403.952,341.747 C 403.698,341.375 403.493,341.332 403.286,341.24 C 403.194,340.116 403.588,339.834 403.833,339.601 C 404.244,339.206 404.602,338.665 405.008,338.281 C 406.022,337.285 407.058,336.407 407.996,335.314 C 408.786,334.344 409.558,332.96 410.886,333.351 C 411.732,333.582 411.846,335.585 411.66,336.088 C 411.437,336.675 410.632,336.561 410.902,338.118" fill="#808080" stroke="#ffffff" />
<path class="aq" d="M 433.608,237.349 C 433.863,237.564 434.216,237.772 434.072,238.029 C 433.195,237.871 433.323,237.552 433.052,237.297 C 433.237,237.314 433.423,237.332 433.608,237.349" fill="#808080" stroke="#ffffff" />
<path class="aq" d="M 434.991,239.806 C 435.053,239.826 435.114,239.846 435.176,239.866 C 435.35,239.551 435.443,239.039 434.39,238.869 C 434.213,239.218 434.597,239.509 434.991,239.806" fill="#808080" stroke="#ffffff" />
<path class="aq" d="M 435.254,239.389 C 435.083,239.294 435.385,239.048 435.068,238.922 C 435.034,239.084 435.108,239.24 435.254,239.389" fill="#808080" stroke="#ffffff" />
<path class="aq" d="M 434.263,240.431 C 434.848,240.058 434.114,239.664 433.64,239.379 C 433.459,239.766 433.859,240.101 434.263,240.431" fill="#808080" stroke="#ffffff" />
<path class="aq" d="M 436.117,240.423 C 436.519,240.117 436.335,239.784 436.043,239.504 C 435.71,239.82 435.972,240.126 436.117,240.423" fill="#808080" stroke="#ffffff" />
<path class="aq" d="M 432.531,240.95 C 432.633,240.69 432.881,240.337 432.128,240.172 C 432.157,240.441 432.16,240.716 432.531,240.95" fill="#808080" stroke="#ffffff" />
<path class="aq" d="M 436.462,240.254 C 436.565,240.114 436.543,239.98 436.398,239.851 C 436.367,239.988 436.39,240.122 436.462,240.254" fill="#808080" stroke="#ffffff" />
<path class="aq" d="M 433.117,242.23 C 434.744,241.848 434.878,240.54 433.255,240.323 C 432.699,240.964 432.289,241.682 433.117,242.23" fill="#808080" stroke="#ffffff" />
<path class="aq" d="M 436.577,241.155 C 436.958,240.889 437.423,240.6 436.57,240.387 C 436.276,240.653 436.483,240.9 436.577,241.155" fill="#808080" stroke="#ffffff" />
<path class="aq" d="M 432.173,241.357 C 432.341,241.22 432.288,241.104 432.011,241.01 C 432.058,241.126 432.112,241.242 432.173,241.357" fill="#808080" stroke="#ffffff" />
<path class="aq" d="M 434.337,241.431 C 434.597,241.323 434.607,241.224 434.372,241.137 C 434.361,241.235 434.349,241.333 434.337,241.431" fill="#808080" stroke="#ffffff" />
<path class="aq" d="M 435.552,241.834 C 435.685,241.974 435.961,242.101 436.33,242.208 C 436.464,241.97 436.685,241.56 435.772,241.424 C 435.64,241.561 435.567,241.698 435.552,241.834" fill="#808080" stroke="#ffffff" />
<path class="aq" d="M 434.167,242.241 C 434.888,242.13 434.417,241.937 434.237,241.823 C 434.119,241.965 434.096,242.105 434.167,242.241" fill="#808080" stroke="#ffffff" />
<path class="aq" d="M 432.283,238.03 C 432.327,237.971 432.37,237.913 432.413,237.855 C 433.618,238.451 433.676,239.186 433.224,239.959 C 432.168,239.402 432.478,238.681 432.283,238.03" fill="#808080" stroke="#ffffff" />
<path class="aq" d="M 430.749,238.567 C 432.054,238.424 431.581,239.578 431.548,239.756 C 430.873,239.421 430.749,238.988 430.749,238.567" fill="#808080" stroke="#ffffff" />
<path class="aq" d="M 438.295,240.1 C 438.801,239.707 439.429,239.206 438.425,238.831 C 438.188,239.24 437.819,239.703 438.295,240.1" fill="#808080" stroke="#ffffff" />
<path class="aq" d="M 441.618,238.995 C 442.693,239.186 442.054,239.705 441.964,239.964 C 441.354,239.648 441.482,239.306 441.618,238.995" fill="#808080" stroke="#ffffff" />
<path class="aq" d="M 444.239,241.597 C 444.532,241.737 444.561,241.909 444.384,242.069 C 444.237,241.915 444.189,241.758 444.239,241.597" fill="#808080" stroke="#ffffff" />
<path class="aq" d="M 464.233,261.799 C 464.475,262.207 464.429,262.546 464.286,262.858 C 464.112,262.397 463.213,261.932 464.233,261.799" fill="#808080" stroke="#ffffff" />
<path class="aq" d="M 463.904,275.213 C 464.164,275.138 463.926,274.878 463.45,274.617 C 463.514,274.794 463.666,274.993 463.904,275.213" fill="#808080" stroke="#ffffff" />
<path class="aq" d="M 462.815,258.934 C 462.953,258.586 463.34,258.045 464.397,258.059 C 465.499,259.099 464.966,259.581 465.06,260.408 C 465.091,260.699 465.183,260.943 464.655,261.039 C 464.119,261.138 464.456,261.546 464.183,261.74 C 463.951,261.905 463.499,261.984 463.657,262.275 C 463.844,262.438 464.036,262.603 464.234,262.769 C 464.38,263.02 464.234,263.308 464.044,263.464 C 463.619,263.812 463.263,264.605 462.124,264.577 C 461.843,263.599 461.235,262.458 461.971,261.773 C 462.376,261.395 462.657,261.02 462.742,260.527 C 462.824,260.013 463.394,259.588 462.815,258.934" fill="#808080" stroke="#ffffff" />
<path class="aq" d="M 464.408,264.987 C 464.608,265.01 464.806,265.032 465.005,265.055 C 466.161,267.017 464.789,268.266 465.267,270.058 C 465.412,270.634 465.718,271.271 465.664,271.791 C 465.634,272.067 465.067,272.528 464.26,271.72 C 463.698,271.169 463.403,270.653 463.137,270.178 C 462.653,269.334 462.056,268.398 461.876,267.651 C 461.803,267.356 461.469,266.694 461.91,266.58 C 462.217,266.502 462.684,266.492 463,266.375 C 463.299,266.265 463.946,266.25 464.048,266.053 C 464.216,265.722 464.258,265.334 464.408,264.987" fill="#808080" stroke="#ffffff" />
<path class="aq" d="M 464.766,274.423 C 464.996,274.897 465.918,275.544 465.944,275.968 C 465.976,276.55 465.21,275.82 464.51,275.814 C 464.209,275.304 463.678,274.307 464.766,274.423" fill="#808080" stroke="#ffffff" />
<path class="aq" d="M 456.25,252.422 C 456.793,252.63 456.843,252.831 456.675,252.98 C 456.184,252.774 456.125,252.576 456.25,252.422" fill="#808080" stroke="#ffffff" />
<path class="aq" d="M 456.811,253.286 C 458.089,253.491 457.962,255.102 456.841,255.046 C 456.558,254.602 456.056,253.532 456.811,253.286" fill="#808080" stroke="#ffffff" />
<path class="aq" d="M 459.356,260.187 C 460.439,260.1 460.011,258.919 459.536,258.396 C 459.127,258.846 457.738,259.396 458.75,260.159 C 458.953,260.168 459.154,260.177 459.356,260.187" fill="#808080" stroke="#ffffff" />
<path class="aq" d="M 465.256,289.945 C 466.426,290.347 466.46,289.497 466.673,289.159 C 467.036,288.577 468.018,288.325 468.482,287.776 C 468.997,287.158 470.186,286.953 469.976,285.929 C 469.866,285.416 468.635,284.846 468.034,284.892 C 466.589,284.986 466.196,285.949 465.689,286.61 C 465.443,286.927 463.297,288.636 465.256,289.945" fill="#808080" stroke="#ffffff" />
<path class="aq" d="M 469.937,294.014 C 470.315,293.884 471.435,293.672 470.958,293.017 C 469.868,292.716 469.533,293.273 469.937,294.014" fill="#808080" stroke="#ffffff" />
<path class="aq" d="M 470.865,309.671 C 471.169,310.318 470.629,310.245 470.377,310.433 C 470.353,309.957 470.225,309.403 470.376,309.058 C 470.598,309.268 470.761,309.472 470.865,309.671" fill="#808080" stroke="#ffffff" />
<path class="aq" d="M 469.995,312.385 C 470.084,312.629 470.073,312.798 469.964,312.891 C 469.708,312.53 469.563,312.197 469.995,312.385" fill="#808080" stroke="#ffffff" />
<path class="aq" d="M 474.5,298.001 C 474.536,297.893 474.593,297.802 474.674,297.727 C 475.984,298.973 475.414,299.521 475.624,300.319 C 475.737,300.761 474.895,300.19 475.398,300.971 C 475.729,301.494 475.791,302.005 475.299,301.981 C 475.478,301.279 474.71,302.021 474.475,301.999 C 475.589,302.758 474.632,302.638 474.359,302.703 C 474.111,302.76 474.622,303.086 474.601,303.263 C 474.565,303.577 474.271,303.728 474.174,303.999 C 474.554,304.019 474.661,303.084 475.474,303.719 C 476.075,304.196 475.91,304.318 475.621,304.324 C 475.163,304.334 475.409,304.896 475.169,305.113 C 474.219,304.119 473.475,304.779 473.662,305.229 C 474.177,305.366 474.583,305.355 475.021,305.389 C 474.956,305.982 474.535,305.667 473.944,305.693 C 473.086,305.712 473.925,306.399 474.87,306.778 C 475.066,307.577 474.825,308.44 473.904,308.273 C 473.866,308.042 474.034,307.938 473.927,307.664 C 473.798,307.336 473.314,307.009 473.294,306.699 C 472.462,306.837 473.569,308.695 472.876,309.001 C 472.483,308.36 472.673,307.99 472.7,307.614 C 472.354,307.946 472.426,308.618 472.15,309.008 C 471.834,308.581 471.697,308.221 471.654,307.928 C 471.192,308.203 471.283,307.536 471.282,307.37 C 471.28,307.075 471.337,306.821 471.398,306.572 C 471.502,306.141 472.072,306.025 472.158,305.626 C 472.194,305.458 471.864,304.953 471.87,304.736 C 471.878,304.429 471.975,304.185 472.099,303.964 C 472.346,303.522 472.685,303.145 472.62,302.477 C 472.762,302.659 472.907,302.843 473.055,303.028 C 473.255,302.772 473.175,302.318 473.204,301.941 C 473.239,301.448 473.572,301.175 473.787,300.816 C 474.248,300.034 474.117,298.835 474.5,298.001" fill="#808080" stroke="#ffffff" />
<path class="aq" d="M 466.576,318.384 C 466.914,318.417 467.054,318.114 467.118,317.857 C 467.206,317.498 466.501,317.292 466.55,316.833 C 466.064,316.738 465.759,317.57 466.576,318.384" fill="#808080" stroke="#ffffff" />
<path class="aq" d="M 469.035,315.305 C 469.105,315.355 469.176,315.406 469.246,315.457 C 469.283,315.995 469.387,316.713 468.759,316.616 C 468.396,316.559 467.445,316.316 466.876,315.708 C 465.971,314.759 466.537,314.737 467.272,315.197 C 468.105,315.726 468.582,315.341 469.035,315.305" fill="#808080" stroke="#ffffff" />
<path class="aq" d="M 471.399,303.432 C 472.274,303.538 471.752,302.492 471.992,302.078 C 472.193,301.728 472.826,301.329 471.793,300.33 C 471.234,300.762 469.919,301.786 471.399,303.432" fill="#808080" stroke="#ffffff" />
<path class="aq" d="M 471.189,305.3 C 471.433,305.182 471.464,304.862 471.096,304.361 C 470.902,304.515 470.868,304.82 471.189,305.3" fill="#808080" stroke="#ffffff" />
<path class="aq" d="M 468.879,311.638 C 469.091,311.592 469.091,311.392 468.877,311.037 C 468.761,311.153 468.762,311.353 468.879,311.638" fill="#808080" stroke="#ffffff" />
<path class="aq" d="M 462.103,335.182 C 462.317,336.502 461.416,337.266 460.491,337.09 C 460.654,337.061 460.642,336.92 460.503,336.609 C 460.255,336.06 460.545,335.943 460.724,335.834 C 461.136,335.575 461.964,335.813 462.103,335.182" fill="#808080" stroke="#ffffff" />
<path class="aq" d="M 457.734,334.267 C 457.808,334.722 457.488,335.388 457.003,335.064 C 456.295,334.593 456.857,333.541 457.734,334.267" fill="#808080" stroke="#ffffff" />
<path class="aq" d="M 457.036,339.427 C 456.81,340.223 456.167,340.695 455.364,340.6 C 454.817,340.533 454.92,340.099 454.438,339.607 C 453.845,339.006 453.492,339.157 453.083,339.065 C 452.387,337.692 454.156,337.809 454.543,337.654 C 454.884,337.516 455.405,336.982 456.167,337.709 C 456.265,337.803 456.095,338.522 456.372,338.963 C 456.398,338.704 456.551,338.653 456.83,338.809 C 456.917,339.025 456.986,339.231 457.036,339.427" fill="#808080" stroke="#ffffff" />
<path class="aq" d="M 454.104,340.732 C 454.23,341.374 453.546,340.965 453.278,340.228 C 452.942,339.327 453.811,339.927 454.104,340.732" fill="#808080" stroke="#ffffff" />
<path class="aq" d="M 469.101,346.47 C 469.176,346.754 469.318,347.032 469.53,347.305 C 469.057,347.074 469.19,348.07 469.064,348.357 C 468.919,348.685 468.05,348.52 467.724,348.589 C 467.797,348.283 467.587,348.145 467.461,347.776 C 467.282,347.26 467.738,346.952 467.886,346.788 C 468.117,346.53 468.454,345.877 469.101,346.47" fill="#808080" stroke="#ffffff" />
<path class="aq" d="M 464.649,347.578 C 464.134,348.079 463.05,347.525 463.368,346.201 C 463.667,344.881 464.077,343.521 464.606,342.524 C 464.692,342.356 465.368,341.896 465.582,342.791 C 465.731,343.436 465.608,343.841 465.406,344.104 C 465.205,344.366 464.754,344.774 465.291,345.588 C 465.69,346.2 463.944,345.918 465.033,346.819 C 464.787,346.889 464.456,346.928 464.649,347.578" fill="#808080" stroke="#ffffff" />
<path class="aq" d="M 466.802,352.139 C 467.031,351.93 467.516,351.755 468.025,352.419 C 467.934,353.343 467.085,353.113 466.489,353.182 C 466.354,352.571 466.579,352.33 466.802,352.139" fill="#808080" stroke="#ffffff" />
<path class="aq" d="M 468.668,367.591 C 468.681,367.782 468.694,367.974 468.707,368.166 C 468.905,368.105 468.984,367.886 468.943,367.509 C 468.852,367.537 468.76,367.563 468.668,367.591" fill="#808080" stroke="#ffffff" />
<path class="aq" d="M 467.594,366.363 C 467.883,366.975 468.01,367.008 467.974,366.46 C 467.847,366.427 467.721,366.395 467.594,366.363" fill="#808080" stroke="#ffffff" />
<path class="aq" d="M 478.182,395.167 C 478.098,395.421 478.07,395.611 478.221,395.993 C 478.43,395.872 478.532,395.608 478.529,395.201 C 478.413,395.19 478.298,395.178 478.182,395.167" fill="#808080" stroke="#ffffff" />
<path class="aq" d="M 475.385,401.254 C 475.349,401.448 475.312,401.641 475.276,401.835 C 475.634,401.902 475.961,401.725 476.039,401.172 C 475.8,401.119 475.582,401.146 475.385,401.254" fill="#808080" stroke="#ffffff" />
<path class="aq" d="M 466.539,397.259 C 466.383,397.453 466.288,397.732 466.255,398.096 C 466.747,398.056 467.281,397.789 467.493,397.083 C 467.101,396.882 466.904,397.341 466.539,397.259" fill="#808080" stroke="#ffffff" />
<path class="aq" d="M 470.41,364.189 C 470.213,364.595 469.928,365.031 470.6,365.86 C 470.419,365.935 470.336,366.142 470.348,366.479 C 470.614,366.749 470.873,366.825 471.011,366.64 C 471.185,367.116 471.048,367.634 471.431,368.058 C 471.81,368.477 472.141,368.23 472.526,368.574 C 473.02,369.006 473.665,371.215 473.686,369.364 C 473.684,367.913 472.708,367.008 472.137,365.586 C 471.995,365.238 471.96,364.556 471.666,364.318 C 471.183,363.927 470.713,364.022 470.41,364.189" fill="#808080" stroke="#ffffff" />
<path class="aq" d="M 471.985,369.414 C 471.641,370.094 472.579,370.23 472.783,370.044 C 472.517,369.831 472.251,369.621 471.985,369.414" fill="#808080" stroke="#ffffff" />
<path class="aq" d="M 473.316,372.537 C 473.347,373.214 474.031,374.054 474.078,373.29 C 473.825,373.03 473.571,372.778 473.316,372.537" fill="#808080" stroke="#ffffff" />
<path class="aq" d="M 468.482,366.181 C 468.349,366.306 468.419,367.033 468.668,367.35 C 468.927,367.682 469.375,366.643 469.399,366.426 C 469.027,365.962 468.658,365.909 468.482,366.181" fill="#808080" stroke="#ffffff" />
<path class="aq" d="M 474.08,375.211 C 473.941,375.532 474.413,377.296 474.773,377.336 C 475.49,377.415 474.64,375.45 474.08,375.211" fill="#808080" stroke="#ffffff" />
<path class="aq" d="M 474.296,383.23 C 474.424,383.687 474.335,383.768 474.199,383.957 C 473.941,384.311 474.124,385.231 474.024,385.771 C 474.342,385.727 474.424,385.242 474.671,385.055 C 474.656,385.852 475.285,386.083 475.234,385.364 C 475.541,385.649 475.591,386.019 475.437,386.261 C 475.725,386.278 476.487,386.078 476.17,385.226 C 475.844,384.362 476.134,384.171 475.963,383.353 C 475.714,382.194 474.62,383.304 474.296,383.23" fill="#808080" stroke="#ffffff" />
<path class="aq" d="M 479.466,391.736 C 479.314,392.089 479.117,392.772 479.601,393.3 C 479.87,393.007 479.682,392.301 479.466,391.736" fill="#808080" stroke="#ffffff" />
<path class="aq" d="M 473.44,383.507 C 473.528,383.882 473.684,384.189 473.91,384.426 C 473.956,384.078 473.992,383.722 474.019,383.359 C 473.783,383.285 473.589,383.334 473.44,383.507" fill="#808080" stroke="#ffffff" />
<path class="aq" d="M 477.702,391.561 C 477.58,391.744 477.534,392.008 477.562,392.352 C 477.794,392.354 477.963,392.214 478.069,391.933 C 477.947,391.809 477.824,391.685 477.702,391.561" fill="#808080" stroke="#ffffff" />
<path class="aq" d="M 473.678,386.335 C 473.67,386.761 473.532,387.996 473.95,388.463 C 474.306,388.86 475.016,388.866 475.231,388.572 C 475.577,388.098 474.651,387.793 474.502,387.437 C 474.264,386.875 474.051,385.923 473.678,386.335" fill="#808080" stroke="#ffffff" />
<path class="aq" d="M 476.392,398.465 C 476.747,398.692 476.913,398.767 477.104,398.431 C 477.458,397.802 477.942,397.874 478.476,397.707 C 477.946,397.271 478.263,396.608 478.39,396.276 C 477.955,396.731 477.616,397.657 476.97,397.607 C 476.411,397.561 475.831,397.359 476.134,398.697 C 476.22,398.62 476.306,398.543 476.392,398.465" fill="#808080" stroke="#ffffff" />
<path class="aq" d="M 474.309,389.042 C 474.255,389.247 474.277,389.49 474.372,389.771 C 474.682,389.666 474.661,389.423 474.309,389.042" fill="#808080" stroke="#ffffff" />
<path class="aq" d="M 475.911,395.773 C 476.212,395.983 476.567,396.208 476.055,396.353 C 476.295,396.417 476.464,396.31 476.561,396.029 C 476.334,395.717 476.083,395.587 475.911,395.773" fill="#808080" stroke="#ffffff" />
<path class="aq" d="M 472.962,391.947 C 473.135,392.495 473.581,393.234 473.819,392.791 C 473.5,392.488 473.265,391.593 472.962,391.947" fill="#808080" stroke="#ffffff" />
<path class="aq" d="M 475.948,399.216 C 476.181,400.15 476.55,399.447 476.527,398.975 C 476.356,399.119 476.163,399.2 475.948,399.216" fill="#808080" stroke="#ffffff" />
<path class="aq" d="M 475.893,399.97 C 475.852,400.099 475.81,400.226 475.769,400.353 C 476.124,400.545 476.599,400.681 476.64,400.014 C 476.392,400.002 476.142,399.987 475.893,399.97" fill="#808080" stroke="#ffffff" />
<path class="aq" d="M 474.936,402.407 C 474.893,402.56 474.85,402.712 474.806,402.865 C 474.944,402.98 475.082,403.095 475.221,403.21 C 475.182,403.809 474.661,403.147 474.511,403.432 C 474.342,403.749 474.265,404.71 474.063,405.153 C 474.656,406.089 476.501,403.334 475.768,401.904 C 475.52,402.144 475.239,402.31 474.936,402.407" fill="#808080" stroke="#ffffff" />
<path class="aq" d="M 471.521,412.343 C 471.489,413.193 471.03,413.449 470.919,414.204 C 471.477,413.815 471.979,413.26 472.622,413.129 C 472.329,412.518 471.876,412.285 471.521,412.343" fill="#808080" stroke="#ffffff" />
<path class="aq" d="M 467.02,402.154 C 466.366,402.954 468.044,403.735 467.993,402.191 C 467.657,402.114 467.33,402.101 467.02,402.154" fill="#808080" stroke="#ffffff" />
<path class="aq" d="M 464.224,394.53 C 464.023,394.62 463.746,395.091 464.003,395.611 C 464.318,396.254 464.559,395.087 464.749,394.833 C 464.576,394.441 464.383,394.323 464.224,394.53" fill="#808080" stroke="#ffffff" />
<path class="aq" d="M 466.24,400.844 C 465.929,401.164 465.879,401.891 465.593,402.256 C 465.303,402.623 464.808,402.608 464.453,402.798 C 463.79,403.151 464.103,403.876 464.74,403.797 C 465.403,403.71 466.066,403.399 466.549,402.793 C 466.733,402.561 466.905,402.262 466.965,401.839 C 467.109,400.8 466.684,400.96 466.24,400.844" fill="#808080" stroke="#ffffff" />
<path class="aq" d="M 465.063,400.771 C 464.949,401.023 464.889,401.332 464.882,401.699 C 465.319,402.093 465.923,401.814 465.711,400.852 C 465.49,400.791 465.274,400.763 465.063,400.771" fill="#808080" stroke="#ffffff" />
<path class="aq" d="M 468.962,414.308 C 469.075,414.767 469.311,414.926 469.505,414.716 C 469.372,414.244 469.169,414.116 468.962,414.308" fill="#808080" stroke="#ffffff" />
<path class="aq" d="M 425.432,233.16 C 425.395,233.447 424.847,234.257 426.422,234.103 C 426.473,233.945 426.513,233.788 426.543,233.633 C 427.579,233.618 427.682,234.092 427.838,234.318 C 428.174,234.817 428.186,235.376 428.677,235.85 C 429.014,236.18 429.393,236.575 428.941,237.007 C 428.717,237.222 428.188,237.291 428.322,237.506 C 428.467,237.739 428.771,237.96 429.286,238.123 C 429.436,238.038 429.578,237.954 429.715,237.87 C 430.207,238.565 430.364,239.362 430.229,240.133 C 430.129,240.685 429.363,241.523 430.878,241.839 C 431.038,241.593 430.802,241.379 431.108,241.124 C 431.396,241.397 431.336,241.712 431.708,241.976 C 431.878,241.895 432.045,241.814 432.211,241.733 C 432.586,241.961 432.872,242.203 433.342,242.422 C 433.483,242.355 433.613,242.287 433.734,242.218 C 433.69,242.36 433.795,242.488 434.048,242.603 C 434.204,242.526 434.348,242.448 434.48,242.369 C 434.558,242.765 433.111,243.689 434.629,243.933 C 435.089,243.764 434.553,243.307 435.335,243.2 C 436.348,243.062 435.701,242.651 435.967,242.44 C 436.182,242.815 436.103,243.208 436.444,243.577 C 436.843,243.125 436.597,242.679 436.683,242.229 C 436.808,242.374 437.151,242.494 437.45,242.619 C 437.398,241.562 437.744,240.489 436.768,239.47 C 436.216,238.911 434.189,237.936 435.728,237.271 C 436.233,237.398 436.278,237.595 436.755,237.731 C 437.004,237.803 437.455,237.666 437.564,237.794 C 437.95,238.255 437.994,238.773 437.968,239.25 C 437.92,240.029 437.408,240.924 438.956,241.632 C 439.16,241.335 438.139,239.839 439.633,239.681 C 440.415,239.611 441.558,241.159 442.264,241.334 C 442.381,241.256 442.493,241.176 442.602,241.097 C 444.086,241.578 443.163,242.126 444.39,242.64 C 444.492,242.574 444.596,242.508 444.691,242.428 C 445.799,242.971 445.37,243.641 445.827,244.234 C 445.992,244.452 446.132,244.968 446.664,245.167 C 447.139,245.341 447.744,245.271 448.423,245.294 C 449.545,245.344 449.722,246.518 449.842,246.726 C 450.086,247.153 450.743,248.365 452.078,247.651 C 452.275,247.855 452.514,248.641 453.116,248.787 C 454.062,249.025 454.131,249.573 454.389,249.87 C 455.218,250.846 453.09,251.398 454.153,252.414 C 454.616,252.868 454.79,253.252 455.163,253.701 C 455.646,254.291 455.297,254.733 455.646,255.302 C 455.991,255.873 455.854,256.374 456.015,256.921 C 456.193,257.542 456.957,258.247 457.463,258.921 C 459.295,261.492 458.775,263.651 459.768,266.129 C 460.242,267.397 459.957,268.483 460.768,269.85 C 461.3,270.781 460.715,271.802 462.277,272.971 C 462.451,272.933 462.617,272.892 462.776,272.846 C 462.922,273.328 463.65,273.956 462.83,274.061 C 462.115,274.154 462.396,274.788 462.497,275.225 C 462.613,275.741 462.722,276.168 463.266,276.803 C 463.497,277.075 463.18,277.164 463.108,277.315 C 462.972,277.601 463.366,278.16 463.359,278.51 C 463.818,278.384 464.044,278.101 464.71,278.107 C 465.599,278.119 465.775,278.575 466.093,279.001 C 466.465,279.507 465.74,279.442 465.627,279.714 C 465.495,280.027 465.563,280.466 465.015,280.553 C 463.534,279.355 463.802,280.999 463.771,281.037 C 463.246,280.846 462.841,280.542 462.562,280.279 C 461.89,280.533 463.148,281.636 462.006,281.631 C 461.144,281.631 461.727,282.875 462.556,283.558 C 462.62,283.387 463.676,282.655 463.733,283.389 C 463.967,283.184 464.272,282.904 464.996,283.036 C 465.658,283.966 464.964,284.368 464.849,284.95 C 464.701,285.67 463.001,285.18 462.286,285.481 C 462.079,285.203 461.746,284.885 461.268,284.583 C 461.169,284.627 461.069,284.67 460.965,284.711 C 460.769,284.587 460.575,284.463 460.379,284.339 C 460.112,284.546 459.647,284.877 459.776,285.269 C 459.887,285.61 460.517,286.122 460.594,286.454 C 460.84,287.567 460.119,288.223 459.846,289.08 C 459.611,289.799 460.046,290.6 460.556,291.643 C 461.132,292.869 460.921,293.891 460.919,294.855 C 460.909,295.662 460.949,296.848 460.102,297.104 C 459.634,297.244 459.525,297.624 459.403,297.998 C 459.322,298.242 459.235,298.484 459.162,298.734 C 459.113,298.907 459.62,299.283 459.533,299.448 C 459.43,299.646 459.222,299.771 459.207,300.028 C 459.185,300.396 459.887,300.881 460.316,300.826 C 461.253,300.703 460.424,299.263 461.584,299.316 C 461.539,299.54 461.557,299.807 461.684,300.132 C 461.946,300.066 461.935,299.797 462.154,299.697 C 462.256,299.837 462.359,299.978 462.465,300.119 C 462.8,300.065 463.162,300.03 463.306,299.815 C 463.47,299.567 463.007,298.972 463.062,298.663 C 463.15,298.153 464.15,298.194 464.865,298.196 C 465.674,298.198 465.796,297.702 465.978,297.217 C 466.075,296.957 466.12,296.643 466.378,296.497 C 466.658,296.339 467.38,296.583 467.81,296.549 C 467.794,297.698 467.183,298.383 466.789,299.286 C 466.511,299.903 466.122,301.006 466.955,302.273 C 467.072,301.532 468.05,301.428 468.248,300.742 C 468.451,300.012 468.694,299.31 468.786,298.512 C 468.862,297.792 468.614,296.849 469.101,296.391 C 469.59,295.927 470.525,295.811 471.449,295.703 C 472.253,296.337 472.066,297.004 471.958,297.254 C 471.874,297.446 470.593,297.842 470.663,297.119 C 470.186,297.469 470.14,298.152 470.282,298.904 C 470.44,299.799 470.038,300.383 469.909,301.096 C 469.699,302.201 470.471,304.229 469.338,304.678 C 469.191,304.528 469.046,304.378 468.901,304.228 C 468.504,304.823 468.47,305.681 467.978,306.207 C 467.491,306.717 467.655,307.337 467.772,308.25 C 467.859,308.989 467.637,309.703 467.114,309.961 C 466.767,310.129 466.782,310.307 467.004,310.891 C 467.28,311.632 466.994,311.888 466.91,312.373 C 466.761,313.197 466.461,313.79 466.045,314.39 C 465.837,314.686 465.65,314.999 465.475,315.324 C 465.317,315.615 465.727,316.034 465.855,316.499 C 465.934,316.791 464.934,317.754 466.219,318.532 C 466.971,318.995 467.619,318.852 467.965,318.702 C 467.614,319.08 467.503,319.697 467.078,319.999 C 466.907,320.12 466.186,320.493 466.046,319.591 C 465.921,319.607 465.792,319.618 465.66,319.626 C 465.53,319.434 465.401,319.242 465.273,319.05 C 464.761,319.094 464.73,319.623 464.675,320.117 C 464.598,320.765 464.198,320.885 463.701,321.088 C 463.497,321.171 462.805,322.819 464.073,323.402 C 463.864,323.554 463.443,323.417 463.118,323.408 C 462.707,323.396 462.698,323.759 462.064,323.408 C 460.825,322.728 460.461,324.189 460.19,324.775 C 459.769,325.664 459.016,326.075 458.447,326.795 C 458.217,327.08 457.703,327.066 457.538,327.405 C 457.361,327.769 457.627,328.83 457.774,329.483 C 458.282,329.643 458.66,329.287 459.401,329.978 C 459.296,330.368 458.452,330.137 458.824,330.992 C 459.415,331.283 459.649,330.906 460.332,331.395 C 459.672,331.916 459.133,332.464 458.268,332.701 C 457.983,332.777 457.79,332.971 457.525,333.071 C 457.223,333.184 456.629,332.614 456.32,332.71 C 455.663,332.909 456.103,334.501 455.643,334.976 C 455.488,335.135 454.853,336.546 454.405,334.794 C 453.903,334.478 453.741,335.493 453.584,335.764 C 453.284,336.274 453.571,337.443 453.159,337.844 C 452.998,338.001 452.642,337.948 452.584,338.243 C 452.509,338.613 452.519,338.845 452.232,338.94 C 452.043,339.001 452.185,339.338 452.277,339.687 C 452.413,340.21 451.937,340.022 452.068,340.482 C 452.28,341.249 451.771,341.821 451.63,342.234 C 451.36,343.007 451.164,343.864 450.79,344.515 C 450.42,345.147 449.957,345.702 449.797,346.635 C 449.658,347.407 449.794,348.654 449.468,349.195 C 449.238,349.569 449.727,350.845 450.013,351.671 C 450.186,352.183 451.469,353.113 451.81,353.456 C 452.528,354.18 453.099,353.717 453.648,353.846 C 454.349,354.008 455.175,355.521 455.739,355.66 C 457.006,355.966 458.683,357.629 459.875,357.423 C 460.112,357.381 461.064,357.094 461.434,357.959 C 461.945,359.183 463.243,358.92 463.699,358.934 C 463.722,359.42 463.497,359.575 463.32,359.789 C 463.957,360.746 463.094,360.45 462.793,360.53 C 462.44,360.624 462.168,361.142 462.139,361.731 C 461.984,364.26 463.698,362.832 464.177,362.826 C 464.339,363.519 463.951,363.449 463.822,363.782 C 464.253,364.197 464.655,364.297 465.035,364.381 C 465.04,365.207 465.642,365.389 465.875,365.101 C 465.818,365.514 465.481,365.529 465.515,366.056 C 466.188,366.528 466.5,365.403 467.364,366.081 C 467.337,366.191 467.046,366.661 467.17,366.888 C 467.483,367.461 467.996,366.85 467.629,367.627 C 467.771,367.457 468.048,367.601 468.164,368.092 C 468.229,368.367 467.972,368.579 467.95,368.792 C 468.522,368.408 469.103,368.154 469.344,367.244 C 469.522,366.551 470.34,367.873 470.809,368.153 C 471.327,368.461 471.536,370.077 471.201,370.173 C 471.044,370.217 470.816,369.827 470.663,369.928 C 470.397,370.105 470.463,370.806 470.662,371.389 C 470.933,371.247 471.318,371.538 471.667,371.973 C 471.894,372.258 471.56,372.617 471.528,372.738 C 471.451,373.018 472.014,374.301 472.151,374.693 C 472.435,375.514 471.967,375.464 471.71,375.609 C 472.318,375.928 472.387,376.85 472.033,377.061 C 471.72,377.247 470.892,376.636 471.25,377.819 C 471.594,377.865 471.879,377.671 472.282,377.99 C 472.194,378.249 472.049,378.401 471.849,378.445 C 471.962,378.597 472.072,378.752 472.182,378.91 C 472.13,379.22 471.991,379.365 471.768,379.342 C 471.904,379.378 472.042,379.432 472.184,379.504 C 472.242,379.959 472.095,380.171 471.814,380.029 C 472.043,380.903 473.226,380.153 473.746,381.51 C 474.324,382.981 472.33,382.576 472.187,383.236 C 472.407,383.58 472.62,383.673 472.76,383.461 C 472.95,383.853 472.955,384.15 472.761,384.259 C 472.913,384.355 473.065,384.45 473.216,384.542 C 472.869,384.926 472.178,384.623 471.962,385.266 C 472.407,385.091 472.729,385.602 473.207,386.143 C 472.854,386.244 472.209,385.676 472.062,386.294 C 472.002,386.538 472.309,386.966 472.178,387.132 C 472.004,387.351 471.886,387.761 471.78,388.084 C 471.921,388.136 472.063,388.193 472.205,388.256 C 472.353,389.097 472.009,388.739 471.768,388.97 C 471.355,389.363 472.169,390.528 472.525,390.661 C 472.139,392.214 471.571,393.19 470.737,393.9 C 470.203,394.35 471.113,395.042 470.652,395.176 C 470.296,395.279 470.657,396.386 470.584,396.787 C 470.454,397.484 469.937,397.48 469.702,398 C 469.452,398.546 469.664,399.292 469.296,399.82 C 469.066,400.146 468.786,400.523 468.466,400.635 C 467.922,400.821 467.146,399.816 466.527,399.745 C 466.67,398.025 467.387,399.626 467.918,399.332 C 468.299,399.119 468.251,397.698 468.604,397.256 C 468.766,397.052 468.773,396.644 468.738,396.245 C 468.709,395.913 468.793,395.407 468.758,395.197 C 468.586,394.159 467.698,393.429 467.682,392.769 C 467.498,393.036 467.172,392.844 466.956,392.37 C 467.476,391.933 468.771,392.725 469.112,392.006 C 468.871,391.692 468.628,391.514 468.381,391.473 C 468.462,390.806 468.937,391.417 469.246,391.395 C 469.549,391.373 469.556,390.328 469.566,389.903 C 469.592,388.473 469.464,387.45 469.707,386.207 C 469.808,385.69 469.513,385.309 469.617,384.911 C 469.715,384.528 470.082,385.08 469.971,384.307 C 469.815,383.258 468.674,383.653 468.455,383.792 C 468.592,383.147 468.859,383.403 468.698,382.436 C 468.57,381.683 468.4,380.941 467.853,380.948 C 467.5,380.951 466.901,380.832 466.6,380.965 C 466.216,381.134 466.338,382.094 465.886,382.145 C 466.005,382.261 466.124,382.385 466.241,382.513 C 466.184,383.124 465.727,382.879 465.396,382.741 C 465.973,383.713 464.991,384.093 464.723,383.121 C 464.17,381.178 465.108,381.87 465.749,381.856 C 465.527,381.461 465.531,381.168 465.716,381.038 C 465.457,380.806 465.205,380.531 464.96,380.213 C 465.293,379.732 466.127,380.618 466.587,380.502 C 467.019,380.392 467.506,379.955 467.585,379.221 C 467.099,378.883 466.691,379.089 466.297,379.14 C 466.302,378.948 466.304,378.754 466.303,378.559 C 466.028,378.375 465.762,378.256 465.505,378.203 C 465.455,377.175 467.101,378.207 467.554,378.314 C 467.981,378.414 468.447,378.514 468.788,378.321 C 469.368,377.99 468.632,377.026 468.342,377.597 C 468.442,377.328 468.494,377.008 468.499,376.637 C 468.376,376.609 468.254,376.585 468.134,376.566 C 468.395,376.27 468.119,375.473 467.693,375.274 C 467.198,375.041 467.191,376.024 466.576,375.403 C 466.678,374.119 467.872,374.546 467.932,373.179 C 467.709,373.115 467.528,373.272 467.287,373.124 C 466.968,372.928 466.993,372.43 466.62,372.425 C 466.703,371.962 466.832,371.125 467.288,371.339 C 466.676,369.806 466.642,370.403 465.894,370.235 C 466.098,369.578 465.209,368.778 464.937,369.037 C 464.928,368.675 464.819,368.295 464.611,367.898 C 464.055,368.428 464.118,369.284 463.483,369.486 C 463.087,368.619 463.659,368.001 463.676,367.424 C 463.183,367.189 463.014,367.638 462.694,367.816 C 462.62,367.428 462.642,367.086 462.805,366.955 C 462.066,366.488 461.549,366.727 461.147,367.162 C 460.634,367.71 460.039,367.908 459.41,368.198 C 459.747,368.291 459.978,368.079 460.287,368.087 C 459.674,368.436 460.915,368.369 461.064,368.369 C 461.37,369.073 461.298,369.633 461.135,370.005 C 460.786,370.787 460.127,371.1 459.515,371.382 C 459.373,370.566 461.317,370.71 460.638,369.333 C 460.214,368.487 459.127,369.352 458.822,369.364 C 458.969,369.067 459.232,369.007 459.476,368.922 C 458.99,367.944 457.799,368.577 457.716,367.12 C 457.502,367.204 457.664,367.865 457.448,367.904 C 457.127,367.961 456.664,367.316 456.381,367.378 C 455.996,367.459 455.751,368.18 455.24,367.883 C 454.812,367.633 454.352,366.618 453.983,366.422 C 453.275,366.04 452.72,366.308 452.009,365.898 C 451.966,365.302 452.25,365.209 452.517,365.133 C 451.461,363.662 450.707,364.724 450.272,365.403 C 449.883,364.628 450.336,363.982 450.492,363.731 C 450.17,363.918 449.668,363.097 449.368,363.418 C 449.467,363.577 449.567,363.737 449.665,363.898 C 449.39,364.919 448.099,363.877 447.422,363.736 C 447.681,363.066 447.037,363.124 446.792,363.013 C 446.871,362.788 446.998,362.669 447.174,362.656 C 447.06,362.613 446.943,362.559 446.825,362.495 C 447.027,362.119 447.11,361.469 446.965,360.702 C 446.475,360.571 446.64,361.527 446.375,361.803 C 446.101,362.086 445.428,361.916 445.491,360.919 C 445.553,359.758 446.3,359.447 446.769,358.99 C 446.553,358.887 446.384,358.911 446.262,359.063 C 446.561,358.359 445.851,358.777 445.767,358.909 C 445.53,359.275 445.374,359.669 444.948,359.627 C 444.529,359.581 444.821,359.837 444.656,360.18 C 444.501,360.502 443.722,360.402 444.127,359.984 C 443.919,359.92 443.723,359.895 443.538,359.908 C 443.899,359.197 443.012,359.69 443.297,358.831 C 443.395,358.528 443.661,358.522 443.879,358.485 C 443.486,358.224 442.544,357.337 442.5,358.074 C 442.407,359.378 441.631,358.113 441.055,357.706 C 440.827,357.544 440.453,357.591 440.407,357.876 C 440.369,358.111 440.64,358.838 440.395,358.773 C 440.019,358.67 439.564,357.661 439.208,357.477 C 439.146,356.619 439.606,356.798 440.039,357.003 C 439.887,356.684 439.733,356.365 439.579,356.048 C 439.724,355.985 439.879,356.184 440.056,356.269 C 440.259,356.366 440.094,355.803 440.258,355.786 C 440.814,355.727 441.378,356.041 441.805,355.565 C 441.435,355.356 440.87,355.043 440.644,355.267 C 440.706,355.065 440.809,354.944 440.955,354.904 C 440.362,354.499 440.132,354.802 439.754,354.989 C 439.673,355.028 439.213,355.429 439.043,355.126 C 438.758,354.621 438.606,354.763 438.429,354.896 C 438.462,354.518 438.292,354.081 437.99,353.845 C 437.977,352.867 438.895,353.68 439.027,352.939 C 438.775,352.898 437.91,353.194 437.661,352.906 C 437.433,352.642 437.7,351.714 437.745,351.62 C 437.183,351.412 437.143,350.326 436.741,350.06 C 436.326,349.784 435.886,349.376 436.029,348.758 C 436.142,348.251 436.429,348.438 436.889,348.804 C 437.499,349.288 437.813,348.834 438.299,348.924 C 437.914,348.475 437.621,348.443 437.325,348.361 C 437.142,347.611 437.5,347.107 437.706,346.884 C 437.108,346.636 437.19,347.877 436.472,347.319 C 436.352,346.229 437.251,346.59 437.116,345.478 C 436.909,345.342 435.741,346.511 435.647,346.249 C 435.325,345.336 435.626,344.566 435.761,344.172 C 435.997,343.465 436.148,342.669 436.312,341.874 C 436.448,341.174 436.705,340.694 436.887,340.084 C 437.078,339.421 437.206,338.421 437.541,338.017 C 437.808,337.692 438.106,337.288 438.134,336.618 C 438.152,336.104 437.303,335.385 437.378,334.746 C 437.478,333.805 438.335,333.823 438.738,333.32 C 439.506,332.335 440.431,331.589 441.16,330.565 C 441.685,329.804 442.188,328.891 443.56,329.44 C 444.247,329.714 444.714,329.87 444.947,329.375 C 445.178,328.876 446.011,329.156 446.099,328.5 C 445.6,328.612 445.704,327.673 445.537,327.225 C 445.36,326.761 444.44,326.513 444.303,326.523 C 443.049,326.597 441.756,326.633 440.584,326.808 C 439.97,326.887 439.253,326.797 438.632,326.856 C 437.998,326.91 437.857,327.607 437.573,328.142 C 437.258,328.725 436.789,329.166 436.202,329.36 C 435.315,329.644 434.81,327.598 434.869,326.859 C 434.946,325.681 435.966,325.664 436.595,325.194 C 437.503,324.495 438.152,323.466 438.946,322.626 C 439.315,322.227 439.638,321.772 440.139,321.533 C 440.644,321.286 441.252,321.151 441.365,320.444 C 440.428,319.87 440.23,320.496 439.847,320.68 C 439.704,320.083 440.179,320.109 440.301,319.787 C 439.047,320.128 438.209,320.982 437.485,321.941 C 437.115,322.42 436.524,323.698 434.864,322.237 C 433.968,319.963 435.328,319.159 435.983,318.558 C 437.008,317.578 439.388,317.986 439.747,316.251 C 438.825,315.627 438.324,315.964 437.918,316.023 C 437.224,316.111 436.281,315.849 435.665,316.005 C 434.954,316.178 434.91,317.027 433.968,316.924 C 433.492,316.869 432.197,316.508 432.282,317.082 C 432.887,317.468 433.293,317.538 433.75,317.703 C 434.059,318.441 433.613,318.524 433.386,318.709 C 433.085,318.952 432.874,319.315 432.671,319.672 C 432.208,320.468 431.908,321.487 430.781,321.447 C 429.752,321.396 428.681,319.715 428.886,318.922 C 429.144,317.849 430.418,317.897 430.756,316.911 C 428.157,316.383 428.882,319.773 426.761,319.735 C 426.298,319.707 425.705,319.487 425.26,319.479 C 424.761,319.467 424.518,319.815 424.165,319.992 C 423.329,320.4 422.407,320.683 421.714,321.267 C 420.37,322.342 418.775,323.063 416.954,323.372 C 415.147,323.609 413.744,324.439 411.961,324.581 C 411.135,324.621 410.435,324.887 409.59,324.858 C 409.383,324.849 408.965,325.228 408.332,324.068 C 407.595,322.765 407.375,323.273 407.256,323.451 C 406.884,323.991 407.258,325.798 407.241,327.018 C 407.167,328.609 406.499,329.234 405.951,329.981 C 404.761,331.508 403.539,333.033 401.937,333.649 C 401.22,333.906 400.524,334.229 399.799,334.453 C 399.51,334.538 399.2,334.616 399.04,335.132 C 398.857,335.695 399.132,337.152 398.84,337.505 C 397.443,339.105 395.839,340.081 394.319,341.627 C 393.485,342.422 392.597,342.775 391.704,343.33 C 391.335,343.553 391.011,344.001 390.624,344.094 C 390.393,344.148 390.244,344.86 389.996,344.935 C 389.492,345.083 388.976,345.028 388.477,345.318 C 388.374,345.378 387.518,346.125 387.857,347.106 C 388.184,348.036 388.792,348.004 389.168,348.133 C 389.595,348.275 390.026,348.268 390.457,348.471 C 390.233,349.445 389.551,350.015 389.205,350.471 C 388.752,351.058 388.288,351.643 387.798,351.959 C 388.044,352.836 388.669,352.133 388.957,351.907 C 389.518,351.459 390.09,351.239 390.653,350.925 C 392.071,350.097 393.404,348.121 394.951,349.158 C 395.617,349.584 396.207,349.638 396.854,349.713 C 397.187,349.748 398.093,350.018 398.207,351.761 C 398.294,353.012 397.918,353.97 397.669,354.572 C 397.404,355.194 397.209,356.125 396.909,356.654 C 396.695,357.022 396.358,357.935 396.093,357.962 C 396.201,357.95 396.308,357.939 396.416,357.93 C 396.146,358.105 395.935,358.668 395.648,358.742 C 395.336,358.822 394.983,358.723 394.708,359.176 C 394.427,359.631 394.279,360.276 393.936,360.49 C 393.605,360.695 393.334,360.968 393.031,361.408 C 391.733,363.222 390.36,364.097 388.874,364.778 C 389.404,365.209 388.779,365.212 388.659,365.157 C 388.431,365.052 388.223,365.16 387.997,365.414 C 387.428,366.045 386.867,366.41 386.27,366.61 C 385.775,366.771 385.275,366.996 384.779,367.063 C 384.274,367.128 383.742,366.945 383.221,367.458 C 382.778,367.887 382.319,367.741 381.907,367.641 C 381.395,367.513 380.995,367.826 380.457,368.316 C 379.327,369.315 378.29,368.006 377.118,368.713 C 377.351,369.623 378.157,369.567 377.228,370.895 C 377.002,371.212 376.768,371.515 376.553,371.913 C 376.16,372.628 376.172,373.434 375.649,373.803 C 375.298,374.047 374.959,374.126 374.609,374.318 C 374.207,374.537 373.908,375.27 373.495,375.503 C 372.627,375.981 371.713,376.694 370.841,377.022 C 371.122,377.421 371.653,377.043 371.864,377.649 C 372.044,378.151 372.545,377.518 372.825,377.266 C 373.781,376.39 374.936,376.479 375.681,377.147 C 375.254,377.552 374.821,377.889 374.39,378.182 C 374.664,378.593 375.198,378.138 375.552,377.91 C 375.528,378.784 374.949,378.793 374.733,379.474 C 374.417,380.456 373.971,380.528 373.531,380.698 C 372.428,381.111 371.656,380.286 370.462,381.637 C 370.877,381.842 371.306,382.115 371.605,382.683 C 371.171,383.109 370.752,382.773 370.369,382.745 C 369.966,382.714 369.564,382.855 369.131,383.062 C 368.57,383.327 366.227,384.243 366.036,385.963 C 365.892,387.295 366.719,387.617 367.095,388.142 C 367.914,389.266 366.559,389.934 365.989,389.838 C 366.407,388.452 365.913,387.695 365.292,387.877 C 364.936,387.98 364.574,388.707 364.253,389.14 C 363.893,389.621 363.491,389.822 363.145,390.392 C 363.364,390.572 363.637,390.629 363.787,390.982 C 363.202,391.208 362.642,391.309 362.125,391.155 C 362.221,391.003 362.316,390.848 362.41,390.689 C 362.085,390.139 361.521,390.151 361.304,389.385 C 361.157,388.86 361.253,388.111 361.231,387.47 C 361.181,385.853 359.735,386.598 359.003,386.642 C 358.785,387.408 359.586,387.742 359.093,388.319 C 358.314,389.221 357.753,389.904 356.928,390.397 C 356.407,390.704 355.85,391.078 355.364,391.078 C 355.118,391.077 354.899,390.949 354.823,390.577 C 354.662,389.781 354.998,389.707 355.437,389.456 C 355.96,389.154 356.78,388.443 356.298,387.605 C 355.888,386.879 354.638,387.665 353.989,387.664 C 352.549,387.648 351.432,386.224 349.718,387.158 C 350.345,385.639 349.3,385.771 348.969,385.571 C 348.623,385.361 348.25,385.939 347.854,386.027 C 347.442,386.116 347.216,385.257 347.823,384.652 C 347.428,383.682 346.685,384.147 345.807,384.751 C 344.831,385.411 344.233,385.554 343.352,385.633 C 341.243,385.796 339.233,385.799 337.233,385.515 C 336.318,385.372 335.461,385.091 334.658,384.683 C 333.944,384.314 333.308,384.135 332.263,384.872 C 331.562,385.36 330.626,385.987 330.52,384.958 C 330.414,383.857 330.436,382.369 329.006,383.911 C 329.135,384.255 329.288,384.577 329.324,385.026 C 328.174,385.296 328.081,383.597 327.521,382.859 C 326.938,382.071 327.015,380.737 326.329,380.12 C 325.619,379.471 325.04,378.82 323.671,379.762 C 322.284,380.696 321.804,379.647 320.751,379.565 C 319.64,379.467 319.412,378.132 318.549,377.608 C 317.671,377.063 316.524,377.029 315.53,376.683 C 314.468,376.302 313.535,376.173 312.91,375.124 C 312.286,374.049 311.589,373.035 310.948,371.998 C 310.325,370.966 309.329,370.409 308.782,369.296 C 308.233,368.145 307.399,367.651 306.348,367.131 C 304.283,366.066 302.336,364.829 300.371,363.598 C 299.465,363.011 298.241,362.871 297.298,362.323 C 296.395,361.787 295.797,360.918 294.962,360.311 C 294.145,359.705 292.693,359.626 291.635,359.292 C 290.772,359.011 289.228,359.792 288.556,359.31 C 287.664,360.761 286.481,360.236 285.986,359.925 C 285.642,359.705 285.294,359.363 285.402,358.766 C 285.516,358.148 286.201,357.735 286.408,357.181 C 286.744,356.293 286.825,355.134 286.595,354.564 C 286.478,354.27 286.065,353.748 286.715,353.149 C 287.113,352.783 287.071,353.706 287.105,353.829 C 287.849,352.832 287.89,351.93 287.054,351.926 C 285.999,351.916 285.049,352.018 284.494,351.329 C 285.847,350.128 285.978,351.249 286.773,351.267 C 286.898,350.616 285.879,349.8 287.176,348.906 C 286.42,349.175 285.293,349.772 284.834,349.471 C 285.264,348.914 285.895,348.96 286.377,348.551 C 287.34,347.727 285.789,347.998 285.565,348.019 C 284.971,348.071 283.66,346.606 282.562,348.465 C 282.363,348.29 281.894,348.601 281.536,348.794 C 280.947,349.109 280.584,349.038 280.309,348.813 C 279.533,348.168 278.227,348.12 277.462,347.458 C 276.805,346.88 276.291,346.287 275.227,346.139 C 273.993,345.954 273.787,345.212 273.087,344.521 C 272.439,343.87 272.039,343.354 270.998,343.091 C 270.529,342.97 270.12,342.685 269.982,342.267 C 269.827,341.796 270.168,341.527 269.534,341.423 C 269.093,341.349 269.199,340.764 268.795,340.706 C 268.473,340.659 267.963,341.265 267.594,341.369 C 266.414,341.697 266.451,339.702 266.763,338.942 C 267.042,339.095 267.288,339.279 267.59,339.409 C 267.702,339.097 267.972,338.824 268.127,338.517 C 268.399,337.981 267.773,337.683 267.51,337.489 C 266.75,336.923 266.164,336.193 265.256,335.751 C 265.098,336.089 265.712,336.512 265.355,336.807 C 264.879,337.203 265.129,337.397 264.97,337.791 C 264.089,338.119 263.603,337.482 263.221,337.188 C 263.033,337.042 262.836,336.903 262.666,336.741 C 262.388,336.475 263.227,336.175 263.389,336.417 C 263.964,335.515 262.453,335.644 263.086,334.776 C 263.732,333.901 263.024,333.112 262.581,332.795 C 262.637,333.107 262.462,333.513 262.45,333.854 C 261.631,333.924 261.263,335.358 260.069,335.208 C 258.897,335.054 258.739,334.039 257.782,333.667 C 255.588,332.775 254.333,330.72 253.854,328.553 C 253.651,327.581 253.148,326.553 253.489,325.359 C 253.761,324.436 255.099,323.278 254.981,322.504 C 254.941,322.232 255.045,320.088 255.81,320.414 C 256.235,320.593 256.564,321.581 257.428,321.165 C 257.289,320.768 257.781,320.168 257.733,319.742 C 257.634,319.582 257.539,319.421 257.447,319.258 C 257.425,318.979 257.684,318.622 257.663,318.345 C 257.557,318.232 257.506,318.089 257.511,317.917 C 257.748,317.633 257.896,317.361 257.957,317.102 C 257.994,316.645 257.31,316.489 258.131,315.84 C 258.202,315.925 258.274,316.009 258.348,316.092 C 258.951,315.65 258.752,315.438 258.541,315.211 C 258.321,314.975 258.504,314.594 258.428,314.288 C 258.226,313.449 258.035,312.631 258.239,311.636 C 258.418,310.793 258.142,310.16 258.242,309.351 C 258.309,308.837 258.62,308.244 258.515,307.789 C 258.392,307.242 257.797,306.925 257.636,306.384 C 257.356,305.415 257.863,304.135 257.85,303.068 C 257.847,301.915 258.149,300.674 258.149,299.532 C 258.161,298.323 258.182,297.134 258.326,295.895 C 258.388,295.402 258.391,294.939 258.116,294.567 C 257.842,294.195 257.42,293.863 257.653,293.304 C 258.368,293.144 258.82,293.363 259.522,293.222 C 260.201,293.075 260.708,292.413 261.356,292.292 C 262.158,292.144 261.911,292.686 261.99,292.971 C 261.996,293.17 262.196,293.164 262.591,292.954 C 262.937,293.115 263.063,293.339 263.221,293.594 C 263.427,293.363 263.517,293.152 263.495,292.96 C 264.24,292.914 264.259,293.404 264.485,293.684 C 264.841,293.393 264.872,293.028 265.466,292.817 C 266.006,292.627 265.953,292.964 265.9,293.156 C 265.729,293.779 265.663,294.566 266.75,294.591 C 266.988,294.256 266.966,293.965 267.206,293.632 C 267.447,293.689 267.56,293.84 267.788,293.909 C 268.07,293.995 268.376,293.704 268.692,293.846 C 268.999,293.984 269.747,294.392 269.085,294.842 C 268.304,295.361 268.588,295.816 269.088,295.991 C 269.384,296.09 269.731,296.147 270.008,296.257 C 270.489,296.447 270.936,296.306 271.501,296.387 C 272.043,295.84 271.602,295.69 271.429,295.361 C 272.031,295.149 272.558,295.173 272.843,295.337 C 273.411,294.645 272.397,293.862 271.032,294.597 C 271.008,294.449 270.559,293.717 271.252,293.554 C 272.235,293.326 273.341,293.58 273.896,293.785 C 274.674,294.07 274.792,294.611 275.31,295.023 C 275.832,295.434 276.799,295.575 277.137,296.09 C 277.203,295.978 277.279,295.865 277.363,295.751 C 278.584,295.556 278.744,296.265 279.632,296.311 C 280.33,296.346 281.111,294.385 281.148,294.19 C 281.312,293.344 280.754,292.873 280.063,292.365 C 279.434,291.897 279.388,291.201 278.886,290.674 C 278.479,290.242 277.571,289.891 276.88,289.588 C 276.442,289.394 276.359,289.669 275.923,289.69 C 275.646,289.703 275.225,289.545 274.955,289.522 C 273.995,289.436 273.522,288.917 272.755,288.677 C 272.297,288.533 272.432,288.217 272.444,287.889 C 272.461,287.472 271.962,287.571 271.613,287.364 C 271.463,287.275 271.356,286.648 270.763,286.902 C 270.461,287.034 270.091,287.295 269.834,287.178 C 269.203,286.893 269.011,286.377 268.707,285.932 C 268.312,285.344 267.731,284.654 267.89,283.901 C 267.936,283.721 267.955,283.546 267.951,283.376 C 267.802,283.32 267.653,283.264 267.505,283.208 C 267.491,282.99 268.138,282.849 267.788,282.659 C 267.533,282.52 267.078,282.503 266.912,282.312 C 266.683,282.046 267.199,281.552 267.125,281.228 C 267.04,280.852 266.643,280.646 266.379,280.344 C 266.202,280.14 266.388,279.815 266.291,279.582 C 266.168,279.285 265.701,279.106 265.556,278.804 C 265.4,278.475 265.56,278.075 265.444,277.735 C 265.339,277.424 265.21,277.034 264.828,276.825 C 264.383,276.583 263.61,276.553 263.46,276.156 C 263.113,277.187 261.84,275.786 261.752,275.622 C 261.289,274.751 260.231,274.194 260.041,273.206 C 259.828,272.058 259.585,270.919 259.516,269.737 C 259.489,269.205 259.014,269.074 258.702,268.668 C 258.449,268.337 258.84,267.838 258.936,267.448 C 258.423,267.742 258.105,268.092 257.997,268.428 C 257.376,267.957 256.625,267.397 256.597,266.725 C 256.581,266.318 257.027,266.328 257.54,266.034 C 258.09,265.722 257.171,265.308 257.051,265.077 C 256.545,264.081 257.053,262.814 257.244,261.696 C 257.342,261.142 257.727,260.568 257.937,260.01 C 258.199,259.324 257.882,258.768 257.815,258.131 C 257.737,257.343 257.908,256.522 257.814,255.736 C 257.772,255.386 257.712,255.03 257.511,254.712 C 257.332,254.428 256.788,254.301 256.717,253.986 C 256.535,253.157 253.655,253.045 253.743,252.244 C 253.779,251.931 255.007,251.94 255.41,251.894 C 256.716,251.738 256.429,252.009 257.297,252.261 C 258.115,251.685 258.072,250.926 258.037,250.357 C 257.984,249.408 258.098,248.437 258.167,247.474 C 258.225,246.742 258.289,245.849 259.04,245.125 C 259.904,244.305 259.772,243.361 260.136,242.516 C 260.392,241.928 261.322,241.175 261.121,240.615 C 260.835,239.815 261.116,239.278 261.942,238.478 C 262.643,237.809 262.535,237.158 262.845,236.47 C 263.024,236.076 263.142,235.684 263.087,235.293 C 263.032,234.897 263.706,234.566 263.74,234.175 C 263.911,234.246 264.083,234.316 264.259,234.384 C 264.607,234.026 264.022,233.619 264.005,233.265 C 263.984,232.798 264.057,232.086 264.754,231.678 C 265.285,231.372 266.474,231.696 266.738,231.285 C 267.001,230.879 266.156,230.381 266.026,229.981 C 265.873,229.505 265.934,229.019 265.867,228.539 C 265.787,227.942 265.252,227.41 265,226.812 C 264.787,226.303 264.726,225.76 265.104,225.273 C 265.569,224.679 265.15,223.952 265.517,223.322 C 265.828,222.793 265.739,222.264 266.293,221.773 C 266.957,221.191 267.246,220.637 267.771,220.045 C 268.132,219.641 269.185,219.334 269.431,218.949 C 269.755,218.449 270.491,217.977 271.042,217.541 C 271.629,217.083 272.436,216.653 272.922,216.167 C 273.366,215.728 274.142,215.105 274.356,214.632 C 274.503,214.313 274.207,213.794 275.31,213.805 C 276.096,213.818 276.683,213.984 276.712,213.517 C 276.85,213.609 276.993,213.7 277.144,213.789 C 278.136,213.596 277.808,212.759 277.841,212.335 C 277.884,211.798 278.555,211.434 278.63,210.901 C 278.706,210.363 278.801,209.658 278.412,209.086 C 277.926,208.36 277.048,207.993 277.186,207.197 C 277.328,206.403 277.568,205.625 278.078,204.908 C 278.628,204.144 278.695,203.337 279.019,202.526 C 279.355,201.704 280.811,202.168 282.161,201.985 C 283.175,201.858 283.577,202.863 284.435,202.457 C 285.745,201.854 284.734,200.535 286.14,199.952 C 286.455,199.823 287.128,199.63 287.677,199.7 C 288.266,199.779 288.697,200.101 289.308,200.131 C 290.535,200.2 291.68,199.149 291.843,198.679 C 292.103,197.942 292.786,197.449 293.307,196.796 C 293.899,196.065 294.36,195.31 295.101,194.637 C 296.382,193.498 295.186,191.095 298.268,190.736 C 298.344,190.875 298.417,191.012 298.487,191.15 C 299.666,191.009 299.298,189.876 299.535,189.335 C 299.765,188.818 299.947,187.543 301.669,188.773 C 302.851,188.035 301.588,186.719 302.267,185.842 C 302.518,185.519 302.368,184.808 303.137,184.754 C 303.377,184.735 304.785,184.908 304.608,184.659 C 304.958,185.152 305.282,185.645 305.62,186.138 C 306.459,186.259 306.409,185.984 306.884,185.938 C 307.128,186.001 307.37,186.062 307.613,186.121 C 307.912,186.066 308.152,185.976 308.334,185.851 C 309.186,185.342 310.167,185.27 310.416,184.451 C 310.626,183.775 309.704,182.701 309.708,181.935 C 309.716,180.934 309.739,179.968 310.471,179.237 C 310.968,178.747 312.039,178.598 312.62,178.146 C 313.448,177.511 314.278,176.874 315.061,176.218 C 315.657,175.724 315.827,174.787 317.405,175.079 C 318.918,175.367 317.056,173.22 316.703,172.698 C 316.534,172.686 316.368,172.678 316.204,172.672 C 315.763,171.88 314.691,170.431 314.863,169.837 C 314.947,169.56 314.464,168.873 314.996,168.824 C 315.573,168.773 316.266,169.188 316.339,168.72 C 316.814,169.035 316.986,169.339 317.19,169.643 C 317.434,170.008 317.994,170.315 318.159,170.646 C 318.676,171.683 318.591,172.703 318.593,173.556 C 319.502,173.865 319.284,173.286 319.743,173.204 C 320.038,173.151 320.716,173.496 321.114,173.483 C 321.594,173.468 322.245,173.583 322.659,173.505 C 323.107,173.423 323.164,173.015 323.544,172.871 C 324.469,172.524 325.916,172.713 326.981,172.532 C 328.035,172.362 328.586,171.891 329.815,171.862 C 330.463,171.851 331.098,171.832 331.655,171.745 C 332.007,171.692 332.271,171.401 332.815,171.539 C 334.058,171.864 333.642,170.56 334.851,170.988 C 336.105,171.447 336.472,171.747 336.919,171.195 C 337.132,170.933 337.157,170.525 337.482,170.343 C 337.77,170.184 338.864,170.46 338.893,171.067 C 339.517,171.024 339.36,170.35 340.055,170.373 C 340.513,170.767 340.476,170.997 340.792,171.36 C 341.379,170.95 341.296,170.051 342.043,169.761 C 342.127,169.91 342.215,170.061 342.305,170.212 C 342.507,170.172 342.733,170.157 342.983,170.167 C 343.871,171.338 342.775,171.83 342.742,172.513 C 344.124,173.254 343.904,172.014 345.143,172.536 C 347.05,173.369 346.693,173.713 346.616,174.4 C 347.541,174.502 347.772,171.472 349.475,172.682 C 350.524,173.45 348.804,173.189 349.623,173.967 C 351.234,175.43 352.086,174.186 352.386,173.925 C 353.036,175.131 355.094,173.99 355.156,174.06 C 356.176,175.235 355.105,175.557 355.83,176.609 C 356.62,177.04 357.044,175.987 357.456,175.904 C 357.856,175.825 357.904,175.351 358.433,175.419 C 358.852,175.476 359.317,175.571 359.751,175.652 C 360.12,175.722 360.716,176.179 360.491,175.664 C 360.367,175.383 361.081,175.682 361.18,175.541 C 361.333,175.321 361.171,174.867 361.01,174.424 C 360.902,174.128 361.158,174.129 361.126,174.039 C 360.952,173.554 359.879,172.747 360.619,172.782 C 361.002,172.801 361.594,173.204 362.122,173.482 C 362.831,173.86 362.944,174.502 362.473,174.261 C 362.466,174.258 362.118,175.09 362.141,175.266 C 362.752,175.314 363.4,176.561 363.907,176.26 C 364.286,176.038 365.218,176.899 365.518,176.639 C 365.658,176.519 365.669,176.166 366.145,176.487 C 366.553,176.766 366.719,176.314 366.919,176.271 C 367.609,176.124 367.556,175.596 367.782,174.994 C 368.202,175.426 368.454,176.193 368.921,176.555 C 369.28,176.835 369.984,176.428 370.582,176.784 C 371.051,177.068 371.088,177.242 371.483,177.693 C 372.036,178.331 372.224,178.034 372.549,178.163 C 372.832,178.276 373.129,178.405 373.494,178.733 C 374.036,179.224 373.726,179.456 374.452,179.855 C 374.437,179.996 374.374,180.082 374.26,180.111 C 374.71,180.417 375.221,181.05 375.613,181.2 C 376.02,181.357 376.181,181.112 376.417,181.034 C 376.807,180.907 376.837,181.451 377.076,181.524 C 377.455,181.642 377.418,181.185 377.527,180.972 C 377.48,181.289 377.381,181.567 377.534,182.075 C 377.689,181.665 377.938,181.38 378.385,181.327 C 378.709,181.289 378.915,181.905 379.252,182.39 C 380.577,184.354 380.744,182.546 381.179,182.505 C 381.577,182.469 381.994,182.574 382.543,182.796 C 382.896,182.942 383.258,182.498 383.791,183.063 C 384.974,184.348 385.543,183.236 386.192,183.391 C 386.379,184.058 385.797,183.546 385.644,183.754 C 386.409,184.509 386.737,184.07 387.125,184.063 C 387.651,184.053 388.392,185.158 387.846,185.212 C 388.194,185.667 388.504,186.214 388.833,186.407 C 389.18,186.613 390.361,187.394 390.055,187.684 C 390.341,187.839 390.75,187.856 391.151,188.415 C 391.383,188.743 391.718,189.296 391.814,189.089 C 392.017,188.65 391.91,187.927 391.977,187.334 C 393.108,189.331 392.654,190.642 392.156,190.775 C 391.787,190.875 391.226,190.761 391.068,191.203 C 390.908,191.65 391.041,192.641 390.521,192.528 C 390.981,192.835 391.014,192.341 391.276,192.279 C 391.282,193.515 390.615,193.775 390.311,194.563 C 390.17,194.928 390.044,195.317 389.844,195.589 C 389.601,195.917 389.089,195.752 388.894,196.15 C 388.636,196.677 388.476,197.226 388.371,197.9 C 388.346,198.379 387.76,197.25 387.611,197.61 C 387.498,198.015 387.451,198.475 386.805,198.063 C 386.789,197.913 386.767,197.756 386.741,197.595 C 386.016,196.669 385.932,197.378 385.78,197.622 C 385.554,198.019 384.815,197.678 384.784,198.345 C 384.756,198.902 384.121,198.686 383.743,198.752 C 383.361,198.821 383.006,199.11 382.799,199.421 C 383.073,199.628 383.319,199.781 383.539,199.881 C 384.05,201.041 382.623,200.185 382.236,200.14 C 381.679,200.079 381.69,200.822 382.117,201.908 C 382.774,203.659 381.449,202.259 381.287,203.006 C 381.205,203.386 381.22,203.378 380.706,202.944 C 380.275,202.585 380.262,203.05 380.116,203.148 C 380.01,203.251 379.93,203.39 379.877,203.563 C 379.823,203.683 380.235,204.176 380.214,204.339 C 380.165,204.75 379.781,204.728 379.44,204.715 C 378.801,204.691 378.035,204.616 378.158,205.591 C 378.253,205.777 378.355,205.968 378.464,206.162 C 378.577,206.536 378.207,206.1 378.545,206.736 C 378.856,207.332 378.947,207.528 378.865,207.776 C 378.754,208.114 378.871,208.726 378.782,209.091 C 378.659,209.607 378.206,209.672 377.995,210.068 C 378.243,210.292 378.43,210.398 378.559,210.388 C 378.743,211.3 378.813,212.304 378.252,212.228 C 378.4,212.347 378.55,212.473 378.703,212.609 C 378.764,213.431 378.375,213.762 377.867,213.816 C 378.338,214.145 378.577,214.088 378.92,214.205 C 379.315,214.907 379.661,215.751 379.778,216.231 C 379.867,216.603 379.624,217.308 379.441,217.323 C 379.951,217.641 380.088,217.285 380.359,217.196 C 381.17,218.777 380.341,219.336 380.084,219.514 C 380.542,219.724 380.654,219.304 380.879,219.11 C 380.952,219.443 380.955,219.68 380.889,219.823 C 381.514,220.39 381.467,219.373 381.63,219.097 C 381.79,219.628 381.417,219.574 381.607,220.075 C 381.762,220.491 381.982,220.798 381.755,220.747 C 382.46,221.534 382.759,221.369 383.068,221.394 C 383.175,221.403 383.397,221.63 383.495,221.968 C 383.626,222.428 383.353,222.319 383.21,222.351 C 383.554,222.135 382.524,221.519 382.391,221.495 C 381.997,221.427 381.767,221.642 381.433,221.676 C 380.494,221.784 379.609,221.906 378.989,222.521 C 378.749,222.761 378.614,223.15 378.376,223.379 C 378.147,223.601 377.329,222.789 377.258,223.268 C 377.103,224.302 375.59,223.467 375.33,224.368 C 376.043,224.712 375.715,225.32 375.69,225.428 C 376.056,225.307 376.041,226.155 376.012,226.278 C 375.934,226.61 375.735,226.77 375.557,226.954 C 375.135,227.394 374.785,227.95 374.413,228.444 C 375.227,228.881 375.096,227.815 375.843,228.155 C 376.103,229.213 375.552,229.169 375.159,229.274 C 374.626,229.423 373.999,229.488 373.626,229.881 C 373.593,229.915 373.425,230.126 373.815,230.529 C 374.392,231.142 374.509,230.848 374.65,230.697 C 375.016,230.304 375.787,230.562 376.194,230.231 C 377.033,231.976 375.457,230.897 375.265,231.14 C 376.193,232.281 375.849,230.893 376.505,231.465 C 376.613,232.416 375.816,231.878 375.513,232.141 C 375.897,232.569 376.145,232.696 376.301,232.655 C 376.106,232.889 376.196,233.568 376.146,234.034 C 376.742,234.316 377.051,234.03 377.524,234.076 C 377.751,235.055 377.187,234.729 376.965,234.901 C 376.635,235.16 376.269,235.322 375.898,235.503 C 376.368,236.096 376.471,235.919 376.586,235.799 C 376.765,235.611 377.227,236.017 377.568,236.153 C 377.606,236.34 377.644,236.526 377.68,236.711 C 377.841,236.801 377.989,236.865 378.126,236.904 C 377.966,237.416 378.578,237.234 379.027,238.42 C 379.221,238.963 378.814,238.845 378.724,238.861 C 379.449,239.776 379.652,239.31 380.158,239.678 C 380.237,240.065 380.23,240.28 380.139,240.322 C 380.466,240.662 380.698,240.731 380.937,240.831 C 380.663,240.942 381.152,241.479 381.252,241.519 C 381.442,241.597 381.489,241.267 381.701,241.41 C 381.692,241.879 381.387,241.554 381.282,241.766 C 381.786,242.093 381.279,242.266 381.211,242.293 C 381.76,242.73 381.937,241.984 382.542,242.622 C 382.78,243.789 382.46,243.761 382.264,243.77 C 381.949,243.785 381.669,243.897 381.57,244.472 C 382.2,245.056 382.286,244.071 382.736,244.122 C 383.245,244.185 384.003,245.11 384.503,245.188 C 384.276,245.548 384.94,245.474 385.035,245.49 C 385.077,246.25 384.793,245.938 384.726,246.351 C 384.996,246.624 384.958,246.113 385.324,246.807 C 385.842,247.862 386.055,247.042 386.359,247.036 C 386.724,247.036 387.228,247.968 387.61,248.122 C 387.987,248.278 388.412,248.821 388.777,248.924 C 388.51,249.397 389.087,249.459 389.146,249.443 C 389.327,249.399 389.501,249.268 389.714,249.504 C 389.646,249.746 389.56,249.844 389.456,249.8 C 390.001,251.014 390.441,250.509 390.94,251.432 C 391.442,252.444 391.926,251.745 392.412,251.94 C 393.491,252.4 394.504,253.767 395.53,254.29 C 392.495,260.079 389.147,266.5 385.217,273.784 C 384.109,275.887 381.429,281.137 381.314,281.077 C 381.163,281 381.011,280.927 380.858,280.857 C 380.555,280.73 380.248,280.615 379.937,280.512 C 378.657,280.227 377.347,280.147 376.042,280.275 C 373.567,281.14 371.486,282.736 370.009,284.902 C 369.285,287.417 369.382,290.032 370.291,292.487 C 371.927,294.54 374.125,295.978 376.664,296.655 C 379.279,296.504 381.716,295.543 383.731,293.868 C 385.122,291.645 385.748,289.098 385.546,286.484 C 385.14,285.239 384.543,284.075 383.769,283.019 C 383.321,282.538 382.835,282.094 382.316,281.691 C 382.047,281.506 381.771,281.333 381.488,281.17 C 381.367,281.105 384.082,276.154 385.324,273.856 C 386.575,271.55 387.671,269.485 388.688,267.566 C 391.108,262.947 393.568,258.679 395.809,254.521 C 396.115,254.622 396.324,254.804 396.397,255.091 C 396.456,255.342 395.842,256.232 396.533,255.963 C 397.255,255.702 396.947,256.2 396.793,256.607 C 396.642,257 396.904,257.085 397.108,257.205 C 398.134,257.847 398.201,259.169 398.728,260.143 C 399.232,261.162 399.692,262.244 401.021,262.745 C 401.684,263.021 402.437,263.26 402.673,263.784 C 402.919,264.362 402.832,265.099 403.631,265.409 C 403.94,264.963 405.299,264.899 405.451,264.93 C 405.807,265.006 405.859,265.208 405.883,265.416 C 405.938,265.924 406.275,266.325 406.525,266.761 C 407.109,267.841 406.406,269.362 408.217,270.074 C 408.503,269.906 408.861,269.724 409.166,269.851 C 410.279,268.908 409.105,268.328 408.795,267.69 C 408.417,266.952 407.865,266.273 407.832,265.43 C 407.775,264.576 407.203,263.891 406.813,263.147 C 406.377,262.361 406.506,261.368 406.671,260.333 C 406.738,259.854 406.815,259.366 407.256,258.745 C 407.396,258.546 408.053,258.192 408.357,257.929 C 408.709,257.626 408.795,257.415 409.087,257.134 C 409.411,256.823 409.217,256.55 410.244,256.047 C 411.613,255.418 412.054,255.582 412.274,255.082 C 412.579,254.372 412.225,253.847 412.339,253.187 C 412.417,252.704 412.089,252.347 412.437,251.78 C 412.461,251.742 412.831,250.665 413.571,250.852 C 415.525,249.827 411.145,248.398 413.698,247.4 C 416.604,247.704 415.846,249.183 416.621,250.162 C 417.014,250.678 416.934,251.292 417.063,251.869 C 417.206,252.541 418.197,253.02 418.282,253.706 C 420.249,252.561 422.842,254.231 423.81,253.092 C 424.878,251.664 424.722,250.253 424.423,248.96 C 423.972,247.223 423.867,245.418 423.108,243.731 C 422.714,242.906 422.007,242.156 422.04,241.252 C 422.05,240.902 422.162,240.528 422.053,240.201 C 421.96,239.928 421.527,239.633 422.345,239.187 C 423.139,239.434 423.562,239.801 424.336,240.07 C 426.189,239.549 425.499,238.749 425.213,238.468 C 424.968,238.231 424.277,238.122 424.057,237.884 C 423.905,237.723 423.862,237.535 423.575,237.41 C 423.312,237.295 422.704,237.346 422.524,237.207 C 422.155,236.923 422.406,236.405 422.28,236.051 C 422.144,235.672 422.013,235.278 422.38,234.784 C 422.527,234.587 422.836,234.378 423.073,234.17 C 423.482,233.814 423.588,233.949 423.963,233.718 C 424.829,233.193 424.814,232.669 425.442,232.163 C 425.59,232.466 425.496,232.816 425.432,233.16" fill="#808080" stroke="#ffffff" />
<path class="aq" d="M 461.538,343.536 C 461.067,343.354 460.922,343.73 460.669,343.936 C 460.987,344.005 461.362,344.24 461.722,344.437 C 461.839,345.707 460.548,344.885 460.076,345.259 C 460.304,345.563 461.133,345.757 461.242,346.067 C 461.552,346.975 459.975,346.6 460.105,347.58 C 460.791,347.968 461.033,347.258 461.475,347.121 C 461.917,348.515 460.84,348.707 460.416,349.013 C 460.122,349.223 459.827,349.268 460.028,350.091 C 460.274,351.134 459.28,350.463 458.996,350.691 C 459.808,352.371 461.649,350.991 461.962,350.595 C 462.048,350.487 463.135,349.316 463.504,350.428 C 463.664,350.877 463.012,352.003 463.467,352.548 C 463.611,352.721 464.709,352.633 464.951,352.73 C 465.343,352.886 465.611,353.641 466.063,353.724 C 466.512,353.806 466.76,354.299 467.175,354.153 C 467.489,354.042 468.182,353.906 468.721,354.642 C 469.654,355.933 468.532,358.256 468.152,358.522 C 467.789,358.773 467.154,358.739 466.552,358.268 C 466.308,358.078 466.057,357.568 465.815,357.497 C 465.515,357.409 465.382,357.918 465.066,357.89 C 463.739,357.764 462.082,356.36 460.801,356.315 C 459.383,356.254 458.004,355.606 456.323,354.263 C 455.61,353.695 454.958,353.3 454.259,352.799 C 454.006,352.617 453.659,352.368 453.559,351.884 C 453.44,351.329 453.319,351.6 453.081,351.242 C 452.718,350.689 452.427,350.572 452.51,349.94 C 452.558,349.563 452.694,348.925 452.086,348.545 C 452.527,346.908 453.28,345.947 454.15,345.016 C 454.484,344.652 455.414,342.315 456.569,343.659 C 457.194,344.397 455.777,345.145 455.593,345.266 C 455.231,345.502 453.819,346.212 454.87,347.867 C 455.119,347.704 455.034,347.068 455.139,346.713 C 455.305,346.141 455.912,346.107 456.269,345.834 C 456.342,346.737 455.878,346.96 455.819,347.71 C 456.158,347.888 456.826,347.291 456.989,347.07 C 457.313,346.628 458.126,347.245 458.614,347.134 C 458.973,347.05 458.34,345.734 458.368,345.274 C 458.407,344.585 459.165,344.461 459.617,344.408 C 459.198,344.131 458.905,344.182 458.578,344.139 C 457.85,342.405 458.979,343.188 459.308,342.695 C 459.5,342.405 459.722,342.151 460.005,341.996 C 460.151,341.916 461.305,341.603 461.031,342.276 C 461.251,342.342 461.435,342.336 461.583,342.258 C 461.919,342.991 461.836,343.428 461.538,343.536" fill="#808080" stroke="#ffffff" />
<path class="aq" d="M 466.158,388.829 C 466.029,388.759 465.899,388.689 465.769,388.62 C 465.849,388.082 466.248,388.222 466.548,388.273 C 466.537,388.684 466.406,388.87 466.158,388.829" fill="#808080" stroke="#ffffff" />
<path class="aq" d="M 467.786,394.659 C 468.059,395.002 468.091,395.364 467.877,395.538 C 468.27,395.895 468.17,396.928 467.853,396.892 C 467.404,396.84 466.997,395.806 466.563,395.958 C 466.778,396.326 466.796,396.725 466.681,397.003 C 466.23,396.098 465.619,396.955 465.146,396.645 C 465.294,395.968 464.74,395.67 464.913,395.267 C 465.12,394.783 465.431,394.385 465.78,394.192 C 466.549,393.763 467.184,395.64 467.786,394.659" fill="#808080" stroke="#ffffff" />
<path class="aq" d="M 455.519,372.692 C 455.604,372.68 455.689,372.669 455.774,372.656 C 455.789,372.942 455.719,373.099 455.565,373.126 C 455.549,372.982 455.533,372.839 455.519,372.692" fill="#808080" stroke="#ffffff" />
<path class="aq" d="M 452.009,367.218 C 452.055,367.383 452.1,367.548 452.145,367.713 C 452.029,367.748 451.911,367.651 451.791,367.423 C 451.863,367.355 451.936,367.287 452.009,367.218" fill="#808080" stroke="#ffffff" />
<path class="aq" d="M 449.449,366.378 C 449.274,366.436 449.078,366.41 448.861,366.302 C 448.672,365.391 449.148,365.336 449.533,365.547 C 449.626,365.946 449.616,366.291 449.449,366.378" fill="#808080" stroke="#ffffff" />
<path class="aq" d="M 448.055,364.927 C 447.851,365.156 447.457,365.044 447.119,364.553 C 447.347,364.388 447.733,363.994 448.125,364.795 C 448.102,364.839 448.079,364.883 448.055,364.927" fill="#808080" stroke="#ffffff" />
<path class="aq" d="M 453.762,367.493 C 454.316,368.777 454.322,368.752 455.014,369.2 C 455.44,369.475 456.107,369.865 456.255,369.282 C 455.905,368.585 455.483,368.564 455.134,368.425 C 454.719,368.259 454.091,367.298 453.762,367.493" fill="#808080" stroke="#ffffff" />
<path class="aq" d="M 465.328,370.84 C 465.255,371.093 465.171,371.33 465.073,371.551 C 465.285,371.487 465.37,371.25 465.328,370.84" fill="#808080" stroke="#ffffff" />
<path class="aq" d="M 416.512,238.576 C 417.869,238.003 417.364,237.576 417.354,237.277 C 417.334,236.763 418.126,236.025 418.205,235.447 C 418.29,234.801 419.249,233.917 418.425,233.548 C 418.011,233.368 416.541,233.915 416.025,234.348 C 414.699,235.341 414.914,236.063 414.842,236.717 C 414.806,237.033 413.863,239.302 416.512,238.576" fill="#808080" stroke="#ffffff" />
<path class="fk" d="M 438.12,474.314 C 438.037,474.467 437.953,474.618 437.87,474.772 C 438.02,474.912 438.176,475.028 438.338,475.12 C 438.026,474.842 437.714,475.014 437.542,475.509 C 437.796,475.748 438.849,476.449 438.829,476.886 C 438.808,477.357 440.193,478.112 440.443,478.06 C 439.748,476.921 441.133,478.08 441.414,477.796 C 440.938,478.929 442.364,478.527 442.814,478.647 C 443.357,478.79 443.979,478.333 444.575,478.406 C 445.147,478.474 445.94,478.314 446.437,477.847 C 445.473,477.368 444.531,477.503 443.58,477.759 C 444.503,477.392 443.475,477.004 443.158,477.111 C 442.619,477.29 442.107,477.031 441.609,476.682 C 441.092,476.319 440.618,476.176 440.085,475.94 C 439.385,475.628 438.779,474.787 438.12,474.314" fill="#808080" stroke="#ffffff" />
<path class="fk" d="M 449.687,429.67 C 450.472,430.962 451.611,430.286 452.378,429.795 C 451.917,428.893 450.302,430.013 449.687,429.67" fill="#808080" stroke="#ffffff" />
<path class="fk" d="M 448.577,430.106 C 448.414,430.35 448.251,430.594 448.086,430.837 C 448.38,430.638 448.666,430.412 448.975,430.276 C 448.842,430.22 448.709,430.162 448.577,430.106" fill="#808080" stroke="#ffffff" />
</g>
<circle r="30" fill="#808080" cx="377.5" cy="288.422" />
</svg>
