<?xml version="1.0" encoding="UTF-8" standalone="no"?>
<svg version="1.1"
  baseprofile="full"
  xmlns="http://www.w3.org/2000/svg"
  xmlns:xlink="http://www.w3.org/1999/xlink"
  xmlns:ev="http://www.w3.org/2001/xml-events"
  width="650"
  height="900"
  viewBox="0 0 650 900"
>
<defs>
<clipPath id="ClipPath5">
<polygon points="442.394,488.143 587.5,288.422 442.394,88.6997 207.606,164.987 207.606,411.857" />
</clipPath>
</defs>
<rect width="650" height="900" fill="#ffffff" />
<line x1="0" y1="878.756" x2="650" y2="667.558" stroke="black" stroke-width="1" stroke-dasharray="10,10" />
<line x1="0" y1="344.401" x2="650" y2="555.599" stroke="black" stroke-width="1" stroke-dasharray="10,10" />
<line x1="0" y1="232.442" x2="650" y2="21.2443" stroke="black" stroke-width="1" stroke-dasharray="10,10" />
<line x1="442.394" y1="88.6997" x2="650" y2="374.445" stroke="black" stroke-width="1" stroke-dasharray="10,10" />
<line x1="207.606" y1="811.3" x2="0" y2="525.555" stroke="black" stroke-width="1" stroke-dasharray="10,10" />
<line x1="442.394" y1="488.143" x2="587.5" y2="288.422" stroke="black" stroke-width="1" stroke-dasharray="10,10" />
<line x1="207.606" y1="411.857" x2="62.5" y2="611.578" stroke="black" stroke-width="1" stroke-dasharray="10,10" />
<line x1="207.606" y1="164.987" x2="207.606" y2="411.857" stroke="black" stroke-width="1" stroke-dasharray="10,10" />
<line x1="442.394" y1="735.013" x2="442.394" y2="488.143" stroke="black" stroke-width="1" stroke-dasharray="10,10" />
<g clip-path="url(#ClipPath5)">
<path class="jp" d="M 569.323,453.345 C 568.131,453.669 567.906,451.91 566.751,451.242 C 564.401,449.89 563.724,448.686 563.172,446.896 C 563.264,447.586 560.746,449.034 559.641,448.11 C 559.026,447.597 559.555,447.049 559.207,446.518 C 558.956,446.138 556.398,444.971 555.852,444.827 C 556.145,444.732 556.2,444.564 556.036,444.342 C 555.699,444.286 555.444,444.341 555.278,444.513 C 555.205,444.032 554.596,443.616 553.954,443.867 C 553.78,443.228 552.545,443.026 552.199,442.401 C 551.698,441.498 549.73,441.387 551.064,442.143 C 549.861,441.387 548.369,440.864 547.249,440.074 C 546.012,439.204 546.342,438.13 545.203,437.363 C 544.358,436.795 542.839,436.36 543.362,435.562 C 543.795,434.902 545.675,435.303 546.621,435.712 C 546.514,435.056 546.661,434.41 547.481,434.147 C 548.407,433.851 547.837,432.844 547.569,432.215 C 547.279,431.536 547.874,431.022 547.46,430.325 C 547.148,429.8 547.006,429.258 546.622,428.741 C 546.171,428.134 542.955,429.095 542.429,429.184 C 541.929,429.268 541.064,429.744 540.453,429.595 C 539.262,429.306 538.836,428.32 537.801,427.907 C 537.554,428.766 537.472,429.343 537.891,430.294 C 538.402,431.459 537.434,431.309 536.333,431.716 C 535.841,431.9 534.487,431.879 535.046,431.2 C 535.373,430.804 536.795,430.451 535.748,429.778 C 535.748,430.145 535.467,430.343 534.903,430.371 C 536.068,429.609 533.277,428.742 534.131,428.105 C 534.599,428.379 535.169,428.499 535.606,428.326 C 532.94,427.338 531.744,425.483 530.358,423.947 C 530.263,425.322 525.077,425.086 525.605,423.203 C 525.84,423.322 526.079,423.439 526.321,423.554 C 526.568,422.996 527.997,422.574 527.57,421.839 C 527.107,421.044 525.562,421.461 525.05,421.72 C 524.4,422.05 524.563,422.74 523.912,423.071 C 522.56,423.762 521.525,421.451 521.598,420.967 C 520.59,420.928 521.224,422.967 519.716,422.054 C 519.464,422.995 516.592,421.043 519.012,420.917 C 519.635,420.886 522.396,419.868 521.904,419.204 C 521.714,418.947 518.495,418.345 518.107,418.495 C 517.503,418.729 517.494,419.217 516.96,419.459 C 516.117,419.843 515.025,419.323 514.151,419.025 C 514.522,420.66 513.958,422.159 512.575,423.337 C 512.071,423.768 511.386,424.149 510.635,424.402 C 510.177,424.557 510.142,424.493 509.669,424.295 C 509.242,424.117 509.207,424.461 508.978,424.557 C 506.975,425.404 506.783,427.265 505.956,428.605 C 504.987,430.18 502.486,430.166 502.102,428.1 C 501.901,428.989 499.602,431.44 497.965,430.421 C 497.967,430.993 496.727,431.014 496.486,431.515 C 496.291,431.921 495.722,432.108 495.554,432.577 C 495.363,433.107 494.801,433.531 494.605,434.082 C 494.428,434.577 494.548,434.968 494.248,435.426 C 493.604,436.41 494.307,437.802 494.246,438.9 C 494.165,440.338 493.005,441.814 491.623,442.771 C 492.962,443.096 492.451,445.01 493.675,445.122 C 495.455,445.264 495.115,442.881 493.221,443.254 C 492.969,442.536 493.504,441.459 494.807,441.539 C 494.884,442.026 495.054,442.516 495.248,443.004 C 495.427,442.705 495.784,442.57 496.318,442.599 C 496.786,443.307 496.081,443.861 495.886,444.462 C 495.681,445.095 496.523,445.564 496.514,446.191 C 497.271,445.925 497.617,444.206 498.731,444.488 C 499.305,444.634 500.615,445.447 500.765,444.65 C 500.878,444.04 500.773,442.99 501.304,442.554 C 501.779,442.165 503.307,441.587 503.429,442.65 C 503.995,442.233 503.584,441.992 503.098,441.545 C 502.45,440.952 502.882,440.185 503.191,439.703 C 503.983,438.464 506.451,437.3 508.413,436.85 C 509.943,436.506 511.243,434.664 513.266,435.462 C 515.598,436.393 516.54,435.205 518.859,435.306 C 520.783,435.398 522.163,436.555 523.901,437.172 C 524.991,437.561 527.987,437.496 527.009,438.949 C 526.73,439.331 525.927,439.471 526.398,440.07 C 526.681,440.429 526.224,441.091 525.844,440.61 C 525.048,439.609 523.432,440.595 522.893,440.555 C 523.355,441.277 525.333,442.145 526.423,442.09 C 527.933,442.016 527.629,440.001 529.391,439.723 C 530.757,439.457 531.945,439.608 533.489,439.835 C 536.082,440.224 534.837,437.946 536.233,437.546 C 536.269,438.619 536.981,437.507 537.485,438.404 C 538.94,437.493 539.921,440.943 540.18,439.612 C 540.255,439.947 540.898,440.562 540.49,440.793 C 540.036,441.05 538.887,441.029 539.943,441.67 C 540.399,441.947 540.945,442.133 541.402,442.405 C 542.533,443.079 543.13,444.009 544.403,444.595 C 545.302,445.01 546.038,445.421 546.772,445.977 C 547.471,446.506 548.292,447.813 549.114,448.132 C 550.282,448.586 550.175,448.943 550.379,449.629 C 550.608,450.402 552.656,451.249 553.574,451.757 C 553.915,450.276 562.441,453.351 563.924,453.355 C 565.484,453.357 566.572,455.685 567.726,455.324 C 568.59,454.981 568.949,453.985 569.323,453.345" fill="#808080" stroke="#ffffff" />
<path class="jp" d="M 478.545,463.01 C 478.722,463.268 478.766,462.341 478.71,462.187 C 478.407,462.393 478.335,462.701 478.545,463.01" fill="#808080" stroke="#ffffff" />
<path class="jp" d="M 478.617,461.391 C 479.322,461.234 479.153,460.658 478.371,460.446 C 478.301,460.755 478.383,461.071 478.617,461.391" fill="#808080" stroke="#ffffff" />
<path class="jp" d="M 476.142,460.607 C 476.586,460.059 477.407,459.719 477.554,459.056 C 477.77,458.069 477.9,456.949 478.75,456.15 C 479.496,455.451 480.318,454.653 481.205,454.031 C 482.051,453.439 483.338,454.112 483.753,453.295 C 484.174,452.453 485.132,450.431 486.738,452.356 C 487.464,453.231 487.433,454.475 488.293,455.272 C 488.826,455.769 489.34,454.882 489.33,454.675 C 489.303,454.086 489.061,453.563 490.123,453.387 C 492.044,453.079 492.448,454.712 494.171,453.515 C 495.483,452.611 494.079,451.364 494.556,450.267 C 494.857,449.574 496.31,449.507 496.77,448.846 C 497.5,447.798 496.305,447.821 495.049,447.169 C 495.004,447.855 493.719,447.532 493.098,447.103 C 492.931,446.988 491.873,445.226 491.326,445.894 C 490.936,446.371 491.673,447.535 491.69,448.121 C 491.715,448.979 492.77,449.85 492.802,450.742 C 492.819,451.242 492.254,451.747 491.323,451.674 C 490.409,451.604 490.232,450.692 490.141,450.324 C 490.022,449.845 490.21,449.353 490.021,448.887 C 489.822,448.394 487.845,448.285 487.113,447.993 C 484.707,447.049 485.268,444.639 484.659,443.344 C 484.217,442.412 484.005,440.275 482.929,439.486 C 482.274,439.007 481.772,439.527 481.519,439.799 C 480.913,440.452 480.261,440.764 478.873,440.829 C 475.968,440.984 474.889,440.098 473.851,438.503 C 473.341,439.546 472.36,436.99 471.734,438.159 C 471.152,437.909 470.604,437.611 470.307,437.219 C 469.904,437.424 469.343,437.384 468.885,437.175 C 468.603,437.892 469.602,437.5 470.194,437.73 C 470.554,437.87 470.309,438.439 470.294,438.536 C 470.257,438.761 469.84,440.592 469.471,439.47 C 469.735,440.265 470.345,441.083 469.195,441.635 C 468.445,441.998 466.673,442.375 466.97,443.146 C 467.906,442.969 469.514,442.645 470.499,443.16 C 471.686,443.785 471.151,445.504 472.357,445.698 C 471.854,446.03 472.234,446.325 472.716,446.652 C 473.389,447.11 472.921,447.382 473.124,447.872 C 473.753,449.405 474.362,450.801 474.528,452.372 C 474.716,454.194 474.579,455.991 474.746,457.832 C 474.799,458.436 474.636,459.255 475.042,459.868 C 475.335,460.309 476.191,460.015 476.142,460.607" fill="#808080" stroke="#ffffff" />
<path class="jp" d="M 496.323,453.853 C 496.787,453.748 496.839,453.514 496.451,453.217 C 495.954,453.317 495.864,453.545 496.323,453.853" fill="#808080" stroke="#ffffff" />
<path class="jp" d="M 514.772,439.379 C 515.438,439.739 517.223,439.832 516.935,439.118 C 516.68,438.486 517.003,438.515 517.887,438.337 C 517.141,437.691 516.002,437.671 515.623,438.245 C 515.602,438.406 515.65,438.57 515.769,438.738 C 515.845,438.996 514.959,439.205 514.772,439.379" fill="#808080" stroke="#ffffff" />
<path class="jp" d="M 524.153,420.183 C 524.804,420.152 524.839,419.969 524.26,419.636 C 524.201,419.813 524.165,419.995 524.153,420.183" fill="#808080" stroke="#ffffff" />
<path class="ru" d="M 442.083,498.836 C 441.939,498.466 442.038,498.021 442.484,497.783 C 443.022,497.498 442.194,497.062 442.617,496.687 C 442.997,496.916 443.295,497.176 443.512,497.467 C 444.145,497.136 443.576,496.61 443.581,496.17 C 444.036,496.137 444.887,496.201 445.207,496.494 C 445.689,496.937 444.868,496.99 444.984,497.372 C 445.509,499.111 447.092,497.684 447.423,496.992 C 447.901,495.991 448.334,494.911 449.512,494.174 C 450.697,493.44 451.422,492.899 452.204,491.96 C 453.535,490.308 452.407,487.892 453.354,486.142 C 453.803,485.312 454.951,484.777 455.8,484.126 C 456.886,483.299 456.947,482.073 457.765,481.134 C 459.12,479.406 460.279,477.852 462.386,476.477 C 464.612,475.05 463.556,472.834 465.072,471.208 C 465.739,470.497 467.172,470.353 467.773,469.53 C 468.386,468.694 468.305,467.585 469.144,466.848 C 469.962,466.134 471.39,465.744 471.929,464.893 C 472.652,463.755 473.088,462.498 473.083,461.205 C 472.808,461.645 471.8,461.758 471.358,462.14 C 470.947,462.496 470.432,462.73 469.895,463.006 C 469.12,463.407 467.514,463.4 468.08,462.389 C 468.428,461.772 466.52,460.575 466.487,459.838 C 466.455,459.099 467.156,458.196 467.724,457.613 C 466.732,458.029 466.125,458.569 465.73,459.275 C 465.527,459.641 465.264,460.017 465.125,460.401 C 464.898,461.028 465.91,461.279 465.917,461.856 C 465.99,461.549 465.914,461.243 465.69,460.936 C 467.416,461.396 465.726,463.441 465.406,464.001 C 464.584,465.433 465.57,467.137 464.953,468.627 C 464.096,470.45 461.2,471.238 459.519,472.675 C 459.073,473.06 458.63,473.918 457.506,473.477 C 456.778,473.195 456.197,472.69 455.794,472.247 C 456.113,472.746 456.819,473.191 456.882,473.729 C 455.527,473.383 454.6,470.418 454.528,469.779 C 454.436,468.983 454.223,468.132 454.364,467.357 C 454.473,466.749 454.89,466.107 454.572,465.467 C 454.665,465.991 454.271,466.444 454.143,466.936 C 453.984,467.542 454.184,468.216 454.136,468.84 C 454.014,470.372 453.232,471.802 452.707,473.278 C 451.453,476.263 450.462,479.275 449.05,482.252 C 449.759,481.122 449.269,482.598 449.158,482.708 C 448.626,483.241 448.481,483.743 448.383,484.417 C 448.467,484.267 448.569,484.122 448.687,483.983 C 449.293,484.324 448.833,484.668 448.495,484.914 C 447.95,485.314 447.941,485.631 447.998,486.18 C 448.095,487.129 446.683,488.652 445.562,489.201 C 445.847,488.956 446.079,488.693 446.256,488.41 C 442.509,489.319 445.78,492.671 442.91,493.892 C 442.255,493.042 443.678,491.377 444.003,490.609 C 443.439,491.513 442.679,492.426 442.629,493.45 C 442.567,494.654 441.98,495.821 441.997,497.03 C 441.901,496.695 441.924,496.371 442.065,496.059 C 441.912,496.417 441.713,496.782 441.745,497.17 C 441.785,497.674 441.065,497.657 440.694,497.973 C 439.89,498.609 440.373,499.637 440.112,500.408 C 440.917,500.283 441.664,500.708 441.819,501.154 C 441.817,500.381 441.728,499.557 442.083,498.836" fill="#808080" stroke="#ffffff" />
<path class="ru" d="M 463.447,441.286 C 464.783,441.192 465.662,440.561 467.04,440.496 C 467.935,440.457 469.44,440.336 468.228,439.646 C 467.407,440.35 463.476,440.588 462.724,439.502 C 462.515,439.555 462.337,439.631 462.19,439.731 C 463.117,440.137 463.179,440.708 463.447,441.286" fill="#808080" stroke="#ffffff" />
<path class="ru" d="M 451.147,438.115 C 451.55,438.687 452.648,438.386 453.405,438.475 C 454.882,438.656 454.349,439.646 454.403,440.218 C 454.851,440.12 454.794,439.931 454.912,439.708 C 455.116,439.318 456.008,439.662 456.412,439.374 C 456.509,439.502 456.608,439.629 456.708,439.756 C 457.275,439.406 459.865,439.783 459.398,439.003 C 460.095,439.464 461.528,439.13 461.246,438.529 C 459.951,438.814 457.619,438.008 456.806,438.96 C 456.545,438.018 454.75,438.393 453.689,438.161 C 453.283,438.073 450.545,436.632 451.147,438.115" fill="#808080" stroke="#ffffff" />
<path class="ru" d="M 462.998,436.086 C 463.276,436.362 463.78,436.528 464.295,436.58 C 464.655,436.061 463.622,435.708 462.998,436.086" fill="#808080" stroke="#ffffff" />
<path class="ru" d="M 445.449,437.226 C 446.591,437.024 447.83,437.337 448.613,436.607 C 449.256,435.999 443.742,436.416 443.31,436.435 C 443.339,437.187 444.68,436.93 445.449,437.226" fill="#808080" stroke="#ffffff" />
<path class="ru" d="M 414.045,446.742 C 414.126,446.464 414.042,446.213 413.795,445.988 C 413.293,446.245 413.219,446.749 414.045,446.742" fill="#808080" stroke="#ffffff" />
<path class="ru" d="M 435.035,436.477 C 435.564,436.4 436.968,435.926 437.282,436.403 C 437.408,436.247 437.483,436.085 437.508,435.915 C 436.549,435.911 435.72,436.131 434.824,436.307 C 434.894,436.364 434.965,436.42 435.035,436.477" fill="#808080" stroke="#ffffff" />
<path class="ru" d="M 416.761,442.553 C 416.2,443.301 415.379,442.558 414.487,442.699 C 413.4,442.875 411.439,444.818 413.093,444.752 C 414.36,444.709 413.857,443.558 415.564,444.189 C 417.338,444.86 416.627,442.931 416.761,442.553" fill="#808080" stroke="#ffffff" />
<path class="ru" d="M 429.144,438.343 C 428.934,438.009 428.856,438.109 428.907,438.642 C 428.986,438.543 429.064,438.443 429.144,438.343" fill="#808080" stroke="#ffffff" />
<path class="ru" d="M 430.904,437.43 C 430.794,437.322 430.686,437.215 430.576,437.107 C 430.467,437.25 430.398,437.398 430.368,437.551 C 430.547,437.511 430.726,437.47 430.904,437.43" fill="#808080" stroke="#ffffff" />
<path class="ru" d="M 421.282,440.991 C 421.215,440.05 419.205,441.784 419.553,442.211 C 420.109,441.825 421.032,441.484 421.282,440.991" fill="#808080" stroke="#ffffff" />
<path class="ru" d="M 424.787,439.772 C 424.288,439.659 423.734,439.723 423.523,440.059 C 423.967,440.003 424.388,439.907 424.787,439.772" fill="#808080" stroke="#ffffff" />
<path class="ru" d="M 422.016,440.71 C 422.084,440.533 422.144,440.357 422.198,440.18 C 421.988,440.35 421.928,440.527 422.016,440.71" fill="#808080" stroke="#ffffff" />
<path class="ru" d="M 410.986,444.258 C 411.188,444.478 411.658,444.61 412.074,444.355 C 412.69,443.979 412.152,443.588 411.93,443.258 C 411.409,443.535 411.088,443.892 410.986,444.258" fill="#808080" stroke="#ffffff" />
<path class="ru" d="M 370.618,470.804 C 371.087,470.138 369.812,470.562 369.045,470.688 C 368.132,470.842 367.048,470.964 366.734,470.555 C 366.125,470.893 365.154,472.472 365.865,472.507 C 366.598,472.546 367.921,472.43 368.317,472.743 C 367.762,472.432 369.579,470.818 370.618,470.804" fill="#808080" stroke="#ffffff" />
<path class="ru" d="M 371.107,448.185 C 371.49,448.366 371.562,448.724 372.235,448.736 C 372.619,447.104 372.415,445.521 371.633,444.198 C 371.12,444.94 371.481,445.484 371.518,446.124 C 371.537,446.462 371.672,446.777 371.577,447.142 C 371.489,447.479 371.025,447.871 371.107,448.185" fill="#808080" stroke="#ffffff" />
<path class="ru" d="M 368.923,443.766 C 369.327,442.661 368.51,441.755 367.999,440.91 C 367.868,441.892 367.891,443.15 368.923,443.766" fill="#808080" stroke="#ffffff" />
<path class="ru" d="M 2925.5,715 C 378.849,861.641 378.42,856.232 378.351,851.419 C 378.275,847.328 378.387,843.022 376.652,837.535 C 376.905,839.213 376.81,840.484 376.617,841.696 C 376.522,842.29 376.379,846.738 376.945,844.544 C 377.04,845.446 375.93,846.438 375.243,844.05 C 374.496,841.501 376.211,841.167 375.432,838.34 C 375.405,839.056 375.206,839.547 374.834,839.814 C 375.792,835.17 373.806,827.498 375.813,824.182 C 376.324,825.407 376.938,826.67 377.652,827.973 C 377.535,826.795 377.262,825.443 376.872,824.062 C 376.367,822.302 377.429,822.597 377.547,821.527 C 377.665,820.434 376.557,818.471 376.854,817.539 C 377.106,816.737 376.897,815.278 376.46,813.898 C 376.214,814.272 376.037,814.725 375.93,815.258 C 375.782,814.77 375.852,810.406 375.213,812.755 C 373.789,807.027 375.783,805.888 376.117,801.836 C 373.193,801.779 374.6,806.9 371.782,806.95 C 372.221,803.835 372.815,800.683 371.609,796.398 C 371.276,795.234 372.267,794.399 372.174,793.275 C 372.009,791.325 372.756,790.084 372.712,788.24 C 372.452,789.024 371.505,795.858 370.897,795.305 C 369.492,794.052 369.325,795.006 369.101,795.633 C 368.698,796.754 366.552,795.605 367.154,794.448 C 366.823,794.483 366.473,794.494 366.11,794.486 C 365.376,793.261 364.715,792.065 363.987,790.871 C 363.817,791.211 363.682,791.579 363.578,791.973 C 363.968,790.519 361.707,787.56 361.317,785.716 C 360.841,783.508 360.255,781.456 360.616,779.848 C 360.968,778.255 361.119,776.599 361.598,775.078 C 362.136,773.343 361.677,770.973 363.343,770.106 C 363.156,771.235 364.228,772.733 364.764,774.166 C 365.525,776.244 365.11,777.78 366.056,780.013 C 365.836,776.939 366.097,774.165 365.314,770.875 C 366.207,771.405 366.795,772.194 366.922,772.851 C 366.426,769.714 365.109,765.608 366.202,763.433 C 366.967,761.889 370.746,765.758 370.637,766.876 C 371.325,765.677 370.48,763.335 370.286,761.605 C 370.19,760.771 369.749,758.247 368.258,759 C 367.786,756.686 368.125,754.824 367.591,752.506 C 367.1,750.429 367.341,748.618 367.049,746.652 C 366.829,745.201 366.587,737.668 369.588,738.77 C 368.111,737.444 369.085,736.195 369.664,735.651 C 370.046,735.294 371.066,734.148 371.95,734.338 C 370.655,733.368 370.85,732.685 371.001,732.028 C 370.624,732.507 370.549,733.173 370.046,733.573 C 369.125,731.613 371.56,731.477 372.426,730.549 C 372.989,729.942 372.299,729.364 372.652,728.672 C 372.987,728.015 374.291,728.323 375.099,728.021 C 375.443,730.558 372.894,732.192 373.942,735.128 C 374.442,734.283 374.112,732.951 375.248,732.409 C 376.332,731.877 374.941,730.68 375.182,729.751 C 375.367,729.042 376.483,725.89 378.659,727.828 C 379.711,728.796 380.685,729.55 381.224,730.648 C 381.442,731.095 381.399,732.104 382.07,732.534 C 382.584,732.869 383.421,733.072 383.801,733.586 C 384.315,734.286 383.422,734.715 384,735.544 C 385.369,737.545 385.703,738.462 386.312,740.407 C 386.497,740.233 386.691,740.069 386.895,739.913 C 387.763,741.266 387.644,742.301 388.159,743.578 C 388.367,742.939 387.863,741.914 388.365,741.46 C 390.81,742.985 390.619,745.65 392.37,747.524 C 393.221,748.449 393.879,748.346 394.281,749.625 C 394.701,750.975 394.816,752.421 395.443,753.842 C 395.82,754.705 396.693,756.228 397.777,756.842 C 398.931,757.509 398.495,758.925 398.633,759.503 C 398.995,761.034 400.37,761.326 401.33,761.828 C 402.827,762.629 403.943,765.475 404.061,766.432 C 404.294,764.572 403.376,762.258 401.45,759.631 C 401.246,760.106 399.823,759.798 399.667,758.669 C 399.514,757.576 399.644,756.701 399.413,755.54 C 399.107,754.024 399.255,752.784 398.9,751.249 C 398.765,750.675 397.81,746.512 397.55,748.285 C 397.345,747.326 397.027,746.323 396.814,745.37 C 396.581,744.334 395.206,742.635 395.494,741.847 C 395.388,742.314 395.199,742.718 394.926,743.059 C 395.432,740.629 393.786,737.611 392.276,734.525 C 389.918,735.574 395.958,742.245 392.077,741.995 C 391.7,741.005 391.232,741.146 390.595,740.38 C 389.69,739.287 389.96,737.532 390.055,736.8 C 390.1,736.442 391.07,734.632 389.822,734.056 C 388.668,733.512 388.921,732.711 389.271,732.34 C 389.917,734.806 391.615,730.537 391.659,729.837 C 391.737,728.553 391.879,725.919 389.965,724.232 C 389.628,724.642 389.158,724.959 388.588,725.174 C 389.111,723.843 389.51,721.914 390.879,721.194 C 391.579,720.827 392.541,722.066 392.816,720.732 C 393.079,719.432 393.512,719.247 392.589,717.508 C 393.124,718.771 392.621,719.975 391.864,720.554 C 389.179,714.453 388.207,708.966 387.944,703.863 C 387.81,701.57 384.713,695.55 387.354,694.569 C 387.569,695.259 387.213,695.845 388.229,696.603 C 390.145,695.75 390.074,693.367 389.816,691.475 C 389.434,688.76 389.352,686.147 388.913,683.483 C 388.538,681.278 387.729,678.887 386.962,676.668 C 386.63,675.717 386.904,674.817 386.405,673.862 C 385.461,672.084 384.934,674.353 384.052,673.013 C 384.011,674.076 382.976,676.178 380.619,675.708 C 381.045,675.26 381.549,674.677 380.514,674.026 C 380.25,674.204 380.011,674.397 379.797,674.603 C 380.205,673.701 379.311,672.63 379.343,671.672 C 379.382,670.415 379.082,669.231 379.548,668.071 C 379.652,667.708 379.672,667.329 379.603,666.933 C 379.559,666.59 380.388,666.608 380.332,666.305 C 380.144,665.307 378.333,664.427 378.783,663.45 C 379.743,664.799 379.788,663.47 379.714,663.045 C 379.595,662.371 378.956,661.693 378.733,661.021 C 378.565,661.207 378.389,661.39 378.207,661.571 C 377.136,660.553 377.692,658.879 377.395,657.804 C 377.229,657.206 377.453,656.395 377.853,655.531 C 378.323,654.516 377.556,653.4 377.915,652.358 C 377.999,652.115 378.643,652.286 378.787,652.103 C 379.04,651.779 377.855,651.414 378.292,650.928 C 379.388,651.192 379.913,651.833 380.18,652.413 C 380.44,651.333 379.77,650.131 379.79,649.025 C 380.402,649.473 380.338,649.97 380.798,650.442 C 380.62,649.704 380.595,648.984 380.466,648.256 C 381.098,648.515 381.174,648.99 381.18,649.319 C 381.349,649.137 381.481,648.943 381.577,648.737 C 382.608,649.367 382.402,650.055 382.606,650.732 C 383.351,649.785 382.217,648.512 382.143,647.432 C 382.067,646.362 383.184,645.532 383.119,644.452 C 383.588,644.802 384.306,645.344 383.854,644.379 C 386.156,646.005 384.649,647.919 384.857,649.623 C 386.124,648.92 388.345,644.374 386.119,643.425 C 385.792,643.994 385.56,644.59 385.231,645.161 C 385.239,644.046 385.711,642.977 386.356,642.012 C 386.096,642.603 386.943,643.14 387.15,643.733 C 388.054,643.681 387.883,643.06 387.766,642.627 C 387.531,641.765 387.957,641.132 388.423,640.417 C 389.504,638.756 388.967,636.815 389.573,635.073 C 390.055,633.674 389.571,632.175 389.96,630.747 C 390.482,628.476 386.51,630.346 385.583,629.292 C 385.785,630.235 383.681,631.34 382.325,631.615 C 379.636,632.215 381.343,629.85 381.448,629.265 C 381.748,627.559 382.372,626.12 381.883,624.361 C 381.616,623.417 379.958,621.473 381.483,620.732 C 380.976,621.001 379.894,621.604 379.67,620.849 C 379.49,620.248 378.113,619.704 377.721,619.109 C 377.283,618.45 377.151,617.738 377.064,617.049 C 376.706,614.286 377.497,611.527 377.003,608.835 C 376.604,609.317 377.05,609.784 376.954,610.274 C 376.706,609.982 376.553,609.677 376.494,609.358 C 376.404,609.555 376.301,609.75 376.186,609.944 C 375.82,609.684 375.586,609.395 375.484,609.074 C 375.49,610.391 376.437,610.509 374.461,611.52 C 374.17,611.05 373.485,610.622 374.181,610.1 C 372.446,610.385 373.264,608.612 373.414,608.203 C 373.879,606.941 372.009,606.288 372.109,605.118 C 371.171,606.727 370.48,608.546 370.595,610.14 C 370.466,609.858 370.295,609.586 370.084,609.325 C 369.858,609.687 369.338,610.011 368.593,610.066 C 368.709,609.692 368.525,609.397 368.041,609.183 C 367.985,609.718 368.265,610.162 368.688,610.592 C 369.006,610.918 369.633,612.585 369.731,611.396 C 369.768,611.824 368.756,613.904 367.461,612.97 C 366.802,612.499 366.811,611.809 366.547,611.262 C 366.179,610.504 364.999,609.994 364.631,609.264 C 365.017,609.775 364.124,610.451 364.067,610.995 C 364.009,611.526 364.093,612.073 363.556,612.604 C 363.109,611.005 363.287,609.163 362.469,607.672 C 361.517,605.972 360.737,604.254 360.091,602.53 C 358.892,599.43 355.945,596.086 356.964,592.618 C 357.743,593.647 358.553,594.829 358.816,596.048 C 358.966,596.754 358.701,598.862 361.172,597.893 C 361.036,598.246 361.122,598.542 361.43,598.781 C 361.906,598.008 361.586,597.531 360.831,597.123 C 359.739,596.547 359.197,595.367 358.558,594.599 C 357.572,593.431 356.105,591.907 360.497,591.285 C 360.317,591.91 358.292,592.503 358.698,593.061 C 358.999,592.985 359.299,592.908 359.598,592.828 C 359.054,593.391 358.782,594.347 359.288,594.721 C 359.135,594.295 360.026,594.06 360.151,593.644 C 360.288,593.181 359.939,592.795 360.683,592.302 C 360.987,593.098 361.555,593.821 361.713,594.665 C 361.971,594.288 362.04,592.726 362.761,593.503 C 363.348,592.646 361.666,590.197 359.417,590.845 C 357.703,591.377 356.605,591.927 355.934,591.075 C 355.255,590.224 354.746,589.296 354.333,588.359 C 353.579,586.671 353.148,584.984 353.186,583.075 C 353.19,582.859 353.943,581.131 354.613,581.786 C 355.033,582.202 354.611,582.889 354.924,583.333 C 356.182,582.849 355.733,583.284 356.069,583.69 C 358.263,582.211 353.964,581.395 355.134,579.947 C 355.978,578.913 354.961,579.019 354.623,578.147 C 354.246,577.182 355.082,576.987 356.6,577.235 C 356.287,576.905 355.608,576.611 354.982,576.454 C 353.861,576.182 353.808,575.307 353.617,574.65 C 353.316,573.628 353.023,572.285 354.068,570.991 C 354.552,571.207 354.65,571.587 354.828,571.927 C 354.695,569.788 353.608,567.766 351.216,566.53 C 348.579,565.251 346.071,563.905 344.951,561.982 C 343.787,560.043 342.398,558.23 341.644,556.166 C 341.296,555.234 341.296,554.149 341.228,553.046 C 341.151,551.859 342.13,550.539 342.566,549.228 C 342.689,549.436 342.854,549.619 343.061,549.78 C 342.996,549.549 342.588,549.385 342.835,549.021 C 343.051,548.704 343.917,548.258 343.991,547.981 C 344.227,547.076 343.836,546.565 343.458,545.945 C 343.054,545.285 342.68,544.637 342.618,543.823 C 342.54,542.828 340.777,543.014 340.026,542.416 C 339.297,541.84 338.515,541.311 337.825,540.723 C 337.123,540.134 335.691,539.975 335.548,539.072 C 335.262,537.314 333.071,536.735 332.343,535.258 C 332.007,534.588 331.218,533.229 328.826,534.404 C 326.844,535.423 327.95,531.97 328.243,531.335 C 329.177,529.326 326.903,529.018 326.764,527.578 C 326.699,526.915 327.469,525.851 327.23,525.268 C 326.894,524.461 325.187,524.602 324.979,523.692 C 325.088,523.923 324.923,524.326 324.476,524.78 C 324.496,524.515 324.552,524.232 324.647,523.932 C 324.477,524.283 324.354,524.614 324.276,524.925 C 323.929,525.054 323.586,525.179 323.245,525.301 C 322.574,526.801 322.833,527.833 322.695,529.082 C 322.625,529.718 323.029,529.887 323.431,530.209 C 323.816,530.518 322.607,531.352 322.12,531.153 C 321.728,532.135 321.194,533.24 321.427,533.905 C 319.657,533.243 319.097,531.565 317.668,530.655 C 317.175,530.348 316.832,530.005 316.784,529.395 C 316.754,529.014 316.932,527.774 315.766,528.326 C 315.845,528.646 315.954,528.948 316.058,529.253 C 315.253,529.1 315.362,528.271 314.793,527.942 C 314.223,527.617 313.53,527.394 312.95,527.082 C 311.685,526.417 310.193,526.253 309.636,525.041 C 309.085,523.866 307.996,523.088 307.376,521.975 C 306.783,520.93 304.588,521.087 304.925,519.362 C 305.132,519.577 305.195,519.902 305.489,520.049 C 306.233,518.773 304.397,519.26 304.281,518.572 C 304.14,517.749 303.502,517.275 303.63,516.273 C 303.829,516.597 303.878,517.032 304.132,517.318 C 303.147,515.531 301.196,514.444 300.819,512.187 C 300.909,512.446 301.047,512.668 301.234,512.852 C 301.377,511.896 300.537,511.745 300.338,511.052 C 300.22,510.644 300.614,509.312 299.441,509.8 C 299.708,510.359 300.038,510.872 300.317,511.425 C 299.695,510.879 299.442,510.049 299.067,509.319 C 299.486,509.798 299.518,508.892 299.207,508.948 C 298.499,509.079 298.751,508.453 298.635,508.107 C 298.53,507.797 297.887,507.87 297.703,507.604 C 297.429,507.21 297.327,506.691 297.028,506.318 C 296.437,505.588 295.568,505.073 295.246,504.144 C 295.145,503.853 296.027,501.08 295.131,501.522 C 295.036,501.712 294.961,501.89 294.906,502.058 C 294.328,501.718 294.944,500.591 295.281,499.654 C 295.646,498.505 295.268,497.844 295.582,496.725 C 295.996,497.261 295.954,495.902 295.714,495.762 C 295.18,495.455 296.061,494.083 295.286,493.982 C 294.023,495.413 294.835,492.832 294.751,492.688 C 294.259,493.365 293.768,493.999 293.791,494.408 C 293.822,494.962 294.772,494.848 294.602,495.533 C 292.367,496.634 294.375,499.052 294.539,499.155 C 293.732,499.176 292.785,499.053 292.199,498.89 C 291.967,498.828 292.113,498.468 291.929,498.361 C 291.683,498.219 291.113,498.392 290.937,498.184 C 291.745,498.328 291.999,496.846 291.421,496.988 C 291.256,497.229 291.103,497.463 290.967,497.691 C 291.105,496.956 290.186,497.061 289.391,497.143 C 289.604,497.591 290.378,497.564 290.55,498.047 C 290.372,498.034 289.021,497.509 289.91,497.653 C 289.006,497.286 287.459,497.332 287.305,496.342 C 287.201,495.685 287.234,494.981 286.855,494.543 C 286.615,494.267 284.361,492.8 285.929,491.482 C 285.208,491.903 284.861,491.843 284.764,491.62 C 284.705,491.49 284.59,490.683 285.234,490.984 C 284.987,490.631 284.378,490.634 284.558,489.948 C 286.683,489.13 286.008,488.242 287.15,487.143 C 288.231,487.344 288.122,488.495 288.904,488.942 C 288.952,488.089 287.186,488.096 288.502,486.449 C 288.857,486.518 288.855,486.869 289.194,486.951 C 289.623,487.056 290.493,486.748 290.903,486.872 C 289.586,487.131 291.094,487.381 291.246,487.643 C 291.518,488.117 291.705,488.671 292.671,488.587 C 292.306,488.155 291.736,487.866 292.011,486.988 C 292.112,486.67 291.185,486.999 291.367,486.686 C 291.695,486.126 291.903,485.63 291.958,485.224 C 292.046,485.503 292.408,485.574 293.072,485.343 C 292.49,485.052 291.617,485.078 292.38,483.817 C 292.575,483.497 292.896,483.174 293.258,483.137 C 293.881,483.075 294.23,483.327 295.084,482.561 C 294.174,483.04 293.62,482.483 295.036,481.692 C 293.848,482.041 293.455,480.588 293.721,479.82 C 294.826,479.493 294.036,480.824 295.19,480.402 C 294.794,480.321 295.026,479.772 295.546,479.156 C 297.614,478.529 295.471,481.097 296.042,481.611 C 296.332,479.514 297.705,480.182 297.94,481.028 C 298.272,482.237 299.988,482.583 299.902,484.057 C 300.021,482.977 300.944,484.076 301.048,484.258 C 301.343,484.777 301.534,485.288 301.415,486.084 C 301.119,487.783 301.508,489.228 302.781,489.851 C 303.071,489.995 303.242,490.23 303.602,490.322 C 303.949,490.413 304.808,489.929 305.303,489.874 C 306.276,489.769 307.265,490.117 307.503,490.591 C 307.727,491.038 306.815,492.112 307.193,492.472 C 307.63,492.89 307.385,493.737 307.505,494.359 C 306.968,494.042 305.29,496.488 305.956,496.61 C 306.179,496.261 306.537,495.889 307.029,495.498 C 307.906,495.531 307.056,496.699 307.223,497.206 C 307.284,497.022 307.362,496.83 307.458,496.63 C 307.703,496.679 307.879,496.78 307.983,496.936 C 307.96,496.587 307.963,496.222 307.891,495.903 C 308.729,495.551 309.351,495.553 308.886,496.213 C 310.14,494.997 310.142,494.102 310.022,493.512 C 309.943,493.129 308.651,492.227 309.6,491.374 C 310.777,490.331 311.871,492.057 311.597,490.423 C 311.653,491.231 310.434,490.89 310.35,490.693 C 310.27,490.509 310.915,489.32 311.709,489.028 C 312.181,488.857 312.299,489.074 312.921,488.678 C 313.417,488.364 313.818,488.022 314.342,487.787 C 314.865,487.556 316.823,487.005 317.003,487.122 C 316.726,487.253 316.448,487.385 316.171,487.519 C 317.534,487.855 319.284,488.105 319.067,489.52 C 318.87,490.815 319.545,492.256 321.476,492.121 C 321.132,492.072 321.347,491.678 321.039,491.608 C 320.682,491.529 320.159,491.597 319.915,491.427 C 319.504,491.144 319.182,490.454 319.915,489.597 C 320.93,489.511 320.1,490.747 321.217,490.58 C 322.292,490.428 321.83,491.497 322.611,491.592 C 322.174,491.103 322.012,490.453 322.007,489.72 C 322.319,489.599 322.624,489.489 322.925,489.391 C 322.532,489.304 321.742,489.605 321.586,489.325 C 321.492,489.158 321.594,488.621 320.878,488.961 C 319.027,489.862 319.205,488.849 319.87,487.945 C 320.991,486.444 319.873,485.2 318.754,484.938 C 318.926,485.103 318.66,485.415 318.043,485.708 C 318.065,484.934 317.887,484.264 318.087,483.405 C 318.184,484.069 318.493,483.252 318.462,483.108 C 318.413,482.88 318.187,482.759 318.075,482.57 C 317.926,482.316 318.061,481.885 318.164,481.505 C 318.249,481.201 318.351,480.892 318.466,480.577 C 318.768,480.854 318.851,480.793 318.716,480.396 C 318.733,480.656 318.823,481.114 319.78,480.441 C 318.382,480.77 319.727,479.346 318.676,479.516 C 318.685,479.774 318.625,480.064 318.495,480.386 C 318.691,479.627 318.468,479.076 318.505,478.395 C 318.487,478.632 318.624,478.768 318.922,478.805 C 318.49,478.495 318.282,478.039 318.008,477.631 C 317.691,477.159 318.482,476.542 318.559,475.95 C 318.652,475.239 317.818,474.961 318.14,474.146 C 318.299,473.747 319.569,472.804 320.039,472.912 C 319.912,472.741 320.113,472.41 320.545,472.055 C 320.714,473.162 321.908,473.825 322.834,474.505 C 323.243,474.808 324.364,474.897 324.201,475.517 C 324.154,475.695 323.597,477.422 324.386,476.18 C 324.867,476.394 324.471,477.092 324.726,477.434 C 324.688,477.159 324.969,476.784 325.152,476.428 C 325.475,475.804 324.98,475.637 324.707,475.317 C 325.751,475.62 326.474,475.187 328.14,474.757 C 328.949,474.555 330.717,474.322 330.881,474.662 C 331.025,474.487 331.178,474.312 331.342,474.135 C 332.218,474.031 332.575,474.22 332.989,474.455 C 332.829,474.278 332.858,474.028 333.075,473.705 C 334.157,473.528 334.145,474.125 334.844,474.23 C 334.637,473.816 335.526,473.546 335.834,473.715 C 336.09,473.856 336.034,474.162 336.363,474.266 C 336.669,473.916 336.871,473.58 336.939,473.284 C 337.39,473.538 337.612,473.236 337.765,472.884 C 338.83,472.651 338.226,473.561 339.189,473.427 C 339.015,473.12 338.693,472.867 339.013,472.358 C 339.161,472.517 339.311,472.675 339.459,472.834 C 339.302,472.726 339.316,472.346 339.97,472.162 C 340.296,472.072 340.482,472.41 340.62,472.478 C 340.457,472.083 340.603,471.979 341.06,472.168 C 340.817,472.026 340.878,471.73 341.115,471.41 C 341.455,471.584 341.431,471.941 341.698,472.154 C 341.683,471.947 341.522,471.802 341.555,471.575 C 341.609,471.202 342.593,470.769 342.354,471.366 C 342.629,471.181 344.126,470.676 344.216,470.994 C 344.32,470.081 346.275,470.276 346.498,470.599 C 346.792,470.196 346.888,470.033 347.155,470.355 C 347.078,469.993 348.126,468.113 349.325,467.799 C 349.579,469.466 348.982,471.634 350.081,472.991 C 350.528,473.551 351.551,474.111 352.473,474.422 C 353.335,474.719 355.499,474.445 355.429,475.266 C 355.523,475.107 355.631,474.947 355.751,474.786 C 356.082,474.849 356.314,474.967 356.45,475.141 C 357.236,474.613 358.734,473.566 359.867,473.417 C 361.523,473.192 358.928,475.327 358.71,475.757 C 358.532,476.107 357.664,477.281 358.511,477.254 C 359.179,477.236 360.201,476.703 361.079,476.672 C 361.866,476.649 361.941,476.815 362.378,477.035 C 362.292,476.759 361.856,476.395 362.185,476.021 C 362.707,475.432 363.816,475.352 363.872,475.799 C 363.921,476.181 363.61,476.656 363.511,477.071 C 363.399,477.541 364.559,478.129 364.34,477.437 C 365.577,477.431 364.647,478.7 366.187,478.685 C 366.083,478.56 365.972,478.438 365.853,478.319 C 366.375,478.089 366.775,478.089 366.878,478.328 C 367.988,477.867 367.247,477.16 368.396,476.948 C 368.911,476.857 368.682,475.528 368.965,475.223 C 369.618,476.002 369.718,474.38 369.808,474.237 C 369.838,474.49 370.062,474.644 370.477,474.7 C 370.36,474.442 370.397,474.132 370.572,473.813 C 370.826,474.859 374.741,471.777 374.948,471.564 C 375.754,470.741 375.959,470.14 375.841,469.406 C 375.768,468.977 374.751,468.334 375.601,467.776 C 374.771,468.181 374.277,469.479 373.797,468.381 C 373.529,467.772 372.783,467.132 373.166,466.361 C 373.501,465.691 374.164,465.644 375.133,465.284 C 375.791,465.042 375.772,464.564 375.865,464.283 C 376.052,463.723 376.388,463.152 376.622,462.591 C 376.975,461.747 376.524,461.712 376.071,461.156 C 375.668,460.665 376.252,458.053 377.721,457.812 C 379.211,457.58 379.18,458.902 378.642,459.463 C 378.14,459.988 377.671,459.672 377.064,460.007 C 376.626,460.251 377.202,460.424 377.653,460.138 C 377.609,460.522 378.215,460.736 379.037,460.5 C 378.275,459.546 380.449,459.954 381.111,459.345 C 381.949,458.538 382.93,457.857 383.412,457.008 C 383.97,456.032 383.94,455.198 383.935,454.295 C 383.932,453.826 383.738,453.249 384.099,452.744 C 384.38,452.352 385.528,452.275 386.031,451.973 C 386.17,452.258 386.642,452.401 387.002,452.594 C 387.482,452.853 387.22,453.328 387.587,453.634 C 388.355,454.28 389.63,453.797 390.976,453.704 C 392.486,453.61 392.945,452.717 393.38,452.053 C 393.549,451.796 393.956,449.722 394.119,450.561 C 394.261,449.741 393.775,448.937 394.548,448.085 C 394.756,448.309 395.091,448.738 394.806,449.053 C 394.462,449.433 395.072,449.383 395.349,449.582 C 395.97,450.029 397.846,449.881 398.842,449.823 C 398.734,450.185 398.5,450.711 399.163,450.871 C 399.714,450.578 399.344,450.395 399.151,450.165 C 398.964,449.944 399.653,449.361 399.782,449.073 C 399.912,448.784 400.306,448.676 400.44,448.366 C 400.625,447.941 400.536,447.472 400.981,447.07 C 402.025,446.134 403.539,444.952 405.543,444.922 C 406.366,444.915 406.137,444.585 406.885,444.515 C 407.974,444.417 408.963,444.102 410.078,444.129 C 409.222,444.743 409.56,445.44 409.569,446.082 C 409.578,446.829 409.033,447.585 408.605,448.324 C 408.122,449.162 407.877,450.011 407.626,450.85 C 407.502,451.269 407.378,451.689 407.222,452.109 C 407.086,452.478 407.251,453.191 406.484,452.722 C 408.104,454.024 405.716,457.107 405.195,458.685 C 404.365,461.209 403.509,463.632 402.55,466.02 C 401.729,468.085 400.408,469.953 398.867,472.001 C 398.263,472.766 397.617,473.525 396.948,474.283 C 396.627,474.648 396.281,475.026 395.8,475.361 C 395.53,475.549 394.125,476.103 395.293,475.439 C 394.562,475.738 392.576,476.419 392.434,475.933 C 392.017,476.498 390.821,476.905 390.552,477.495 C 390.242,478.176 390.553,478.895 389.842,479.577 C 389.165,479.278 389.412,478.512 388.641,478.299 C 388.164,478.169 387.506,478.802 386.986,478.865 C 386.968,478.231 385.583,478.109 385.542,477.493 C 385.771,477.962 384.842,478.116 384.11,478.193 C 383.66,478.243 383.212,478.276 382.76,478.345 C 382.034,478.458 381.658,478.898 381.727,478.279 C 381.469,479.031 379.631,479.076 379.291,479.851 C 378.828,480.908 376.906,480.783 375.832,481.548 C 374.903,482.217 375.288,481.582 374.323,481.762 C 373.322,481.949 372.774,482.426 371.853,482.722 C 371.393,482.873 370.498,482.799 370.117,483.073 C 369.586,483.455 369.754,483.805 369.386,484.191 C 368.579,484.149 367.819,484.074 366.967,484.09 C 366.587,484.099 366.078,484.356 365.734,484.349 C 365.165,484.339 364.839,484.036 364.837,483.74 C 364.837,483.608 363.523,483.829 363.312,483.796 C 363.491,484.123 363.853,484.554 363.074,485.045 C 362.238,485.577 361.765,485.249 361.464,486.016 C 361.228,486.623 362.247,486.743 361.333,487.506 C 360.581,488.073 360.033,488.343 359.788,488.951 C 359.5,489.665 358.995,491.32 356.833,491.362 C 355.577,491.401 355.52,489.973 355.473,489.416 C 355.435,489.792 355.56,490.123 355.403,490.533 C 354.981,490.254 354.879,489.796 354.249,489.629 C 354.956,490.5 356.148,491.199 356.194,492.347 C 356.236,493.483 358.319,493.768 359.866,494.126 C 360.488,493.659 360.412,493.254 360.128,492.97 C 361.447,492.914 361.675,491.524 362.071,491.054 C 362.873,490.112 361.882,489.754 362.433,488.935 C 362.631,488.961 362.833,488.983 363.041,489.002 C 363.203,488.866 363.346,488.725 363.472,488.58 C 363.569,488.927 363.297,489.357 363.302,489.716 C 363.305,490.014 364.331,490.481 364.049,489.725 C 364.307,490.32 365.369,490.56 366.943,489.789 C 368.236,489.162 370.676,489.076 371.312,488.088 C 371.361,488.616 372.302,488.758 373.376,488.506 C 373.367,488.882 372.55,489.199 372.625,489.538 C 372.694,489.852 371.405,490.163 371.54,490.684 C 371.697,491.297 373.448,490.73 372.666,491.537 C 372.098,492.128 371.99,492.676 371.907,493.231 C 371.452,492.298 371.578,493.647 371.221,493.365 C 371.304,493.894 370.605,493.709 370.18,494.097 C 369.68,494.512 369.068,495.087 368.866,495.507 C 368.549,496.168 369.462,496.086 370.469,495.923 C 372.13,495.67 371.181,496.279 371.35,496.712 C 371.51,497.128 371.121,497.695 371.662,498.002 C 372.2,498.309 373.179,498.363 373.609,498.734 C 373.919,499.002 374.892,499.194 375.028,499.471 C 375.267,499.967 375.762,500.427 376.125,500.89 C 376.336,500.784 376.547,500.677 376.76,500.572 C 376.929,501.274 378.491,500.489 379.186,500.802 C 379.436,500.478 379.616,499.43 380.544,499.612 C 381.685,499.844 382.849,498.776 383.425,498.405 C 383.807,498.16 384.807,498.06 385.347,498.055 C 386.323,498.053 386.64,498.36 387.754,497.989 C 388.644,497.7 389.357,497.234 389.733,496.758 C 390.312,497.685 391.03,495.663 391.006,495.368 C 390.959,496.111 392.076,495.361 391.914,494.987 C 391.764,494.646 391.266,494.386 391.221,494.021 C 391.216,494.173 391.189,494.328 391.139,494.485 C 388.877,494.482 390.213,492.002 389.946,491.337 C 391.87,491.552 391.092,492.458 392.178,492.978 C 393.028,491.86 393.859,494.329 393.995,494.586 C 394.359,495.276 394.171,495.14 395.121,495.259 C 395.9,495.36 396.722,495.43 396.831,494.785 C 396.789,495.428 397.655,496.856 398.537,497.213 C 398.668,497.076 398.796,496.94 398.922,496.802 C 400.293,497.876 401.236,498.939 400.866,500.4 C 400.387,499.988 399.61,499.73 399.2,499.293 C 398.803,498.872 398.503,498.297 397.564,498.158 C 397.269,498.945 398.496,499.509 398.41,500.327 C 398.295,501.417 398.228,502.565 399.492,503.38 C 400.662,502.502 401.211,505.829 401.324,506.074 C 401.694,506.887 401.876,508.316 403.435,508.716 C 405.044,509.114 404.146,507.851 404.397,507.437 C 404.243,508 405.266,508.341 405.212,508.907 C 406.612,508.591 405.06,507.609 405.925,507.07 C 405.873,507.636 407.103,507.968 406.911,508.494 C 406.575,509.417 407.096,510.119 408.276,510.745 C 408.442,510.605 408.595,510.461 408.732,510.313 C 408.605,510.815 409.543,510.924 409.556,511.438 C 409.57,512.039 409.914,512.737 410.474,513.246 C 411.344,514.042 411.236,516.017 412.679,514.013 C 412.735,514.588 413.84,514.87 413.649,515.494 C 413.469,516.076 412.924,516.369 413.332,516.982 C 414.366,518.545 416.213,519.883 417.165,521.516 C 417.586,522.242 418.375,522.637 419.034,523.282 C 419.633,523.871 419.667,524.281 420.462,524.823 C 421.335,525.424 422.328,526.155 423.799,526.164 C 424.946,526.179 425.591,525.524 426.856,525.714 C 427.931,525.883 428.805,526.683 429.93,526.688 C 430.926,526.698 431.71,526.049 432.229,525.665 C 432.736,525.287 433.28,525.121 433.856,525.753 C 434.452,526.41 435.276,526.015 436.094,526.054 C 437.135,526.11 437.554,526.357 438.433,526.695 C 439.335,527.046 440.28,526.896 441.194,527.245 C 441.822,527.487 443.04,527.154 443.727,527.172 C 444.618,527.199 444.673,526.814 444.644,526.338 C 445.468,527.341 448.01,526.731 449.263,527.256 C 449.927,527.529 450.819,527.871 451.547,527.972 C 452.294,528.078 452.62,528.612 453.28,528.833 C 453.975,529.068 454.555,528.755 455.262,528.924 C 456.256,529.165 456.935,529.705 457.79,530.131 C 460.517,531.513 460.324,529.597 460.066,528.662 C 459.693,527.329 459.13,526.256 457.99,524.939 C 457.204,524.037 455.543,522.167 457.419,521.879 C 457.784,521.825 457.928,521.166 458.125,520.989 C 458.57,520.59 459.029,520.302 459.703,520.028 C 461.046,519.441 459.434,518.458 458.633,517.722 C 458.29,517.856 457.724,517.981 457.574,518.239 C 457.347,518.57 458.242,519.039 457.646,519.297 C 456.433,519.826 455.616,518.339 454.967,517.824 C 455.705,517.851 456.773,517.899 457.156,518.508 C 457.764,517.748 456.728,516.589 456.367,515.68 C 456.849,515.885 459.675,516.127 459.664,515.905 C 459.627,515.114 457.987,513.761 456.898,513.255 C 455.754,512.73 454.502,513.694 454.102,512.959 C 453.694,512.215 456.16,511.972 456.91,511.941 C 455.512,510.744 455.068,511.344 454.025,512.157 C 453.467,512.595 453.653,512.734 453.331,513.216 C 453.018,513.647 452.098,513.632 452.44,514.296 C 451.697,513.697 451.672,512.923 451.465,512.311 C 451.175,511.454 450.121,511.068 449.389,510.322 C 448.083,509.005 449.339,507.22 449.48,506.015 C 449.561,505.308 449.302,504.567 449.104,503.847 C 448.86,502.97 449.117,502.242 449.023,501.406 C 448.974,500.965 447.461,498.494 449.117,498.407 C 450.007,498.365 448.596,499.07 450.062,498.623 C 450.197,499.303 450.067,500.213 450.84,500.854 C 451.128,499.341 449.266,496.705 451.882,495.973 C 452.845,495.712 452.295,494.564 452.019,494.013 C 451.54,493.06 453.557,493.502 453.1,492.448 C 454.08,492.848 454.494,492.084 455.362,492.389 C 456.158,492.671 457.157,492.082 456.916,491.623 C 458.218,492.2 458.444,491.058 458.74,490.652 C 459.141,490.101 460.501,490.018 461.025,489.498 C 461.583,488.946 463.728,487.011 462.476,486.198 C 464.722,486.418 464.077,485.229 464.856,484.373 C 465.227,483.967 465.838,483.557 466.713,483.571 C 466.514,483.16 467.424,482.289 468.015,482.631 C 467.09,482.075 469.165,481.436 469.532,480.977 C 470.466,479.811 472.551,480.41 474.582,480.592 C 476.939,480.773 477.891,479.23 480.297,479.527 C 481.419,479.672 482.522,479.07 483.239,478.712 C 483.468,478.543 483.688,478.368 483.9,478.19 C 484.477,478.039 484.808,478.193 485.366,477.89 C 486.638,477.205 489.439,477.206 491.331,477.406 C 492.134,477.49 492.802,477.493 493.63,477.64 C 494.728,477.838 495.115,477.583 496.114,477.602 C 496.466,477.609 497.773,477.337 498.038,477.582 C 498.798,478.288 499.403,477.101 500.27,477.432 C 501.331,477.839 501.251,477.83 502.266,477.776 C 503.059,477.736 504.041,477.241 505.016,477.716 C 504.794,476.702 508.803,477.402 509.941,477.769 C 513.15,478.82 515.545,479.977 518.407,481.59 C 519.29,482.092 520.278,482.512 519.844,483.121 C 519.765,483.231 520.647,484.93 520.803,485.091 C 521.368,485.68 521.286,486.63 522.093,487.047 C 522.493,487.254 520.583,488.806 520.44,489.1 C 520.787,488.964 522.68,489.235 523.026,489.623 C 523.883,490.586 521.346,489.948 522.116,490.954 C 523.134,492.291 525.032,490.326 525.922,491.717 C 525.837,491.202 527.545,491.097 528.33,491.125 C 528.498,491.776 529.028,493.302 530.277,493.773 C 530.06,492.697 530.334,492.287 531.869,492.226 C 531.29,493.206 530.454,494.152 531.124,495.5 C 529.498,495.141 528.903,494.323 528.057,493.447 C 527.501,492.873 526.827,493.353 526.401,493.417 C 523.977,493.789 524.254,495.202 522.863,496.247 C 521.226,497.48 520.09,498.866 519.275,500.549 C 519.181,500.743 518.907,502.585 518.272,502.112 C 517.451,501.502 517.153,500.864 515.888,500.546 C 515.388,500.422 513.68,500.371 513.318,500.048 C 512.586,499.397 512.351,497.729 512.021,497.019 C 511.805,496.556 510.111,492.729 508.941,493.763 C 508.47,494.179 507.932,495.278 506.573,494.464 C 505.494,493.821 505.302,494.606 504.892,494.91 C 504.146,495.46 502.659,494.428 502.566,495.542 C 501.038,494.632 500.872,495.748 500.519,496.156 C 500.301,496.408 499.666,496.323 499.329,496.48 C 498.742,496.754 498.48,497.23 497.893,497.506 C 497.482,497.7 496.854,497.712 496.515,497.962 C 496.147,498.234 496.242,498.879 495.372,498.754 C 493.971,498.558 493.889,497.628 492.62,498.199 C 491.707,498.613 492.034,499.423 491.644,500.073 C 491.425,500.429 491.051,500.708 490.488,500.843 C 489.571,501.067 490.019,501.153 490.092,501.846 C 490.191,502.812 491.248,503.764 492.607,504.497 C 492.842,504.624 495.173,505.732 495.139,505.602 C 495.441,506.764 497.481,508.512 499.361,508.286 C 500.652,508.07 502.348,510.691 503.116,511.487 C 503.714,512.111 503.885,512.296 503.804,512.86 C 503.735,513.34 504.914,514.114 505.357,514.549 C 506.088,515.27 505.912,518.725 504.912,518.779 C 503.123,518.884 503.133,519.991 503.221,521.24 C 503.318,522.625 500.625,521.359 502.393,523.421 C 503.663,524.914 503.669,526.387 503.256,527.604 C 503.02,528.299 503.291,528.687 503.56,529.466 C 503.602,529.589 502.894,531.742 504.065,530.8 C 504.276,531.806 505.177,532.853 505.1,533.818 C 505.032,534.676 505.147,535.169 505.881,536.095 C 506.898,537.386 507.533,538.056 508.086,539.414 C 508.601,540.687 508.375,541.784 507.935,542.752 C 507.644,543.341 506.225,543.499 506.2,544.142 C 506.154,545.298 506.227,545.829 505.215,546.534 C 503.46,547.768 504.451,550.517 502.93,551.952 C 502.577,552.287 502.03,553.421 502.146,553.977 C 502.303,554.734 501.48,555.715 501.363,556.43 C 501.193,557.458 500.08,557.594 499.821,558.513 C 499.551,559.461 499.441,560.502 499.123,561.431 C 498.969,561.884 499.63,562.715 499.071,562.969 C 498.473,563.243 498.523,563.261 498.506,563.968 C 498.485,564.802 498.957,566.137 498.293,566.605 C 497.869,566.904 498.68,568.739 498.768,569.399 C 498.846,569.996 499.07,571.219 500.355,571.286 C 500.353,572.317 501.313,573.592 501.323,574.633 C 501.328,575.167 501.113,575.601 501.117,576.136 C 501.12,576.731 501.635,577.451 501.606,578.046 C 501.471,580.585 504.793,583.683 506.083,586.549 C 507.223,589.107 510.131,591.682 511.832,594.355 C 513.59,597.146 516.551,596.516 518.718,599.019 C 519.351,598.223 519.393,597.833 518.526,596.407 C 517.934,595.438 517.158,593.85 517.974,593.494 C 518.935,593.076 518.994,591.682 519.994,591.458 C 521.718,591.066 522.512,592.571 524.601,593.424 C 526.152,594.065 527.565,593.725 528.843,593.809 C 529.544,593.857 530.419,593.914 531.292,594.337 C 532.263,594.809 532.392,594.018 533.286,594.313 C 534.558,594.736 535.353,594.938 536.397,594.895 C 537.003,594.871 536.295,593.177 536.945,592.897 C 538.241,592.343 540.73,596.129 541.581,597.058 C 542.826,598.419 544.742,599.067 546.26,600.079 C 548.117,601.324 547.976,603.784 548.484,605.064 C 549.153,606.755 550.021,608.574 549.983,610.019 C 549.937,611.622 549.398,612.677 550.89,614.949 C 552.08,616.771 553.839,618.062 554.486,619.867 C 555.238,621.979 554.769,623.2 554.745,624.877 C 554.687,628.35 558.096,632.23 562.574,636.353 C 564.281,637.903 565.328,638.208 567.065,639.134 C 569.575,640.485 569.593,642.464 570.914,644.322 C 572.113,646.012 573.515,648.661 574.95,650.287 C 575.997,651.478 576.147,652.48 577.142,653.621 C 578.05,654.664 579.155,655.558 580.073,656.632 C 581.641,658.47 581.767,660.15 582.606,661.873 C 584.082,664.915 585.655,667.772 586.231,670.525 C 587.12,674.837 590.913,679.558 590.307,683.196 C 590.079,684.543 590.487,686.222 589.632,687.057 C 588.496,688.16 588.096,688.456 589.427,691.435 C 590.591,694.051 591.425,696.21 591.077,697.903 C 590.8,699.236 590.144,700.382 590.898,702.52 C 591.727,704.887 593.102,706.814 593.472,709.032 C 593.92,711.741 595.46,715.834 597.58,719.444 C 601.736,726.575 608.361,735.048 609.238,741.136 C 609.483,742.852 609.102,743.296 609.906,745.553 C 610.491,747.198 610.868,749.668 610.453,750.496 C 610.028,751.344 610.849,753.276 609.903,753.565 C 608.976,753.85 608.8,754.859 608.057,755.364 C 606.612,756.344 602.962,755.485 603.914,759.064 C 605.02,763.246 606.738,767.776 607.045,771.438 C 607.422,776.134 609.854,782.227 610.577,787.273 C 611.259,792.14 611.249,796.429 611.896,801.337 C 613.023,801.743 616.141,802.992 617.551,805.67 C 619.522,809.426 621.258,810.844 623.103,810.972 C 623.609,815.097 631.121,817.303 631.207,815.242 C 631.283,813.327 633.994,814.859 633.871,812.565 C 633.74,810.233 633.67,809.111 636.396,810.46 C 638.186,811.353 641.72,814.276 643.237,817.552 C 644.681,820.679 647.157,822.359 648.722,825.456 C 650.49,828.966 649.753,831.549 650.743,834.671 C 652.127,839.061 652.774,842.796 654.1,847.15 C 654.976,850.015 656.287,852.435 658.66,856.002 C 659.664,857.503 660.96,865.203 661.367,866.676 C 662.532,870.895 663.082,874.445 661.804,875.997 C 660.835,877.175 658.9,877.164 659.097,879.89 C 659.466,885.187 665.514,896.322 666.049,901.796 C 666.282,904.243 662.141,899.729 665.744,905.644 C 669.916,912.526 665.715,910.172 667.358,914.839 C 669.888,915.476 671.883,921.672 672.954,924.483 C 673.742,926.555 674.42,928.269 676.155,930.585 C 679.873,935.555 679.402,935.772 681.818,940.823 C 683.431,944.204 685.174,946.882 687.396,950.219 C 689.922,954.021 690.067,955.574 691.861,959.26 C 692.292,960.145 696.299,968.187 696.855,968.615" fill="#808080" stroke="#ffffff" />
<path class="ru" d="M 365.043,477.556 C 365.125,477.394 365.223,477.231 365.34,477.067 C 365.635,477.253 365.44,477.316 365.043,477.556" fill="#808080" stroke="#ffffff" />
<path class="us" d="M 357.376,424.317 C 356.352,424.839 356.262,424.154 355.735,424.072 C 356.428,424.555 356.018,426.469 358.272,425.805 C 357.915,425.706 357.583,425.463 357.478,425.227 C 357.488,425.112 357.576,424.994 357.74,424.871 C 357.858,424.699 357.383,424.478 357.376,424.317" fill="#808080" stroke="#ffffff" />
<path class="us" d="M 355.977,421.234 C 355.259,421.895 355.648,422.101 356.71,421.874 C 356.429,421.678 355.948,421.58 355.977,421.234" fill="#808080" stroke="#ffffff" />
<path class="us" d="M 300.435,453.483 C 300.092,454.119 301.023,454.035 301.249,454.321 C 301.495,454.633 301.404,455.338 302.233,455.227 C 302.287,454.219 300.465,454.381 300.435,453.483" fill="#808080" stroke="#ffffff" />
<path class="us" d="M 345.821,413.959 C 345.421,414.264 344.968,414.407 344.693,414.266 C 344.952,414.681 343.794,414.909 344.627,415.016 C 344.733,414.884 344.843,414.752 344.956,414.62 C 345.529,414.797 345.999,414.185 345.821,413.959" fill="#808080" stroke="#ffffff" />
<path class="us" d="M 342.575,412.481 C 342.585,412.691 342.714,412.839 342.963,412.926 C 342.834,412.777 342.705,412.629 342.575,412.481" fill="#808080" stroke="#ffffff" />
<path class="us" d="M 341.912,413.017 C 341.406,413.291 341.451,413.376 342.053,413.272 C 342.007,413.187 341.959,413.102 341.912,413.017" fill="#808080" stroke="#ffffff" />
<path class="us" d="M 341.291,411.168 C 341.506,411.242 341.722,411.316 341.937,411.39 C 341.804,410.937 341.304,410.659 341.04,410.27 C 340.782,409.891 340.863,409.257 339.971,409.25 C 340.262,409.957 340.814,410.547 341.291,411.168" fill="#808080" stroke="#ffffff" />
<path class="us" d="M 338.463,411.693 C 337.621,412.07 338.159,412.349 338.311,412.51 C 339.211,412.124 338.732,411.822 338.463,411.693" fill="#808080" stroke="#ffffff" />
<path class="us" d="M 331.262,407.848 C 330.774,408.31 330.774,408.913 329.958,408.879 C 330.477,409.005 330.53,409.944 331.718,409.439 C 331.472,409.252 331.147,409.068 331.128,408.763 C 331.201,408.651 331.324,408.543 331.497,408.438 C 331.686,408.269 331.245,407.992 331.262,407.848" fill="#808080" stroke="#ffffff" />
<path class="us" d="M 298.987,433.28 C 298.082,433.875 298.733,433.937 299.3,433.707 C 299.162,433.586 299.058,433.444 298.987,433.28" fill="#808080" stroke="#ffffff" />
<path class="us" d="M 330.29,407.92 C 329.203,408.38 329.496,407.618 328.546,407.931 C 328.523,408.229 327.818,408.906 328.487,408.868 C 328.553,408.706 328.628,408.543 328.711,408.378 C 329.295,408.305 329.992,408.113 330.427,408.209 C 330.381,408.113 330.336,408.016 330.29,407.92" fill="#808080" stroke="#ffffff" />
<path class="us" d="M 325.341,407.27 C 325.072,407.587 324.901,407.609 324.828,407.336 C 324.788,407.605 325.022,407.666 325.529,407.519 C 325.466,407.436 325.403,407.353 325.341,407.27" fill="#808080" stroke="#ffffff" />
<path class="us" d="M 319.748,407.932 C 320.286,407.579 321.741,407.939 322.253,407.835 C 321.11,407.557 319.383,407.796 318.277,407.542 C 318.383,407.731 318.412,407.955 318.369,408.213 C 317.262,408.096 317.678,409.823 319.096,408.681 C 318.412,408.695 318.839,408.032 319.748,407.932" fill="#808080" stroke="#ffffff" />
<path class="us" d="M 316.495,406.547 C 315.793,406.655 315.303,406.519 314.672,406.555 C 315.716,406.95 316.824,407.307 318.135,407.51 C 317.903,407.36 317.896,407.08 317.605,406.967 C 317.238,406.825 316.592,406.872 316.495,406.547" fill="#808080" stroke="#ffffff" />
<path class="us" d="M 313.047,407.115 C 312.742,407.238 312.467,407.399 312.219,407.597 C 312.343,407.759 312.627,407.783 313.071,407.668 C 313.365,407.357 313.399,407.124 313.047,407.115" fill="#808080" stroke="#ffffff" />
<path class="us" d="M 307.035,407.624 C 306.748,407.826 306.446,407.989 306.13,408.117 C 306.126,408.353 306.328,408.438 306.739,408.371 C 307.125,408.033 307.218,407.753 307.035,407.624" fill="#808080" stroke="#ffffff" />
<path class="us" d="M 291.348,472.569 C 291.737,472.94 293.239,472.079 293.585,472.572 C 293.975,473.142 293.068,474.212 292.972,475.036 C 292.621,474.595 292.403,474.077 291.749,473.868 C 291.127,473.673 289.995,474.204 289.289,474.129 C 287.804,473.983 288.904,471.797 289.217,470.398 C 289.256,471.317 289.903,473.197 291.663,472.74 C 291.558,472.683 291.453,472.626 291.348,472.569" fill="#808080" stroke="#ffffff" />
<path class="us" d="M 328.206,406.937 C 328.413,407.228 327.524,407.799 327.786,408.072 C 327.631,407.94 327.418,407.849 327.146,407.798 C 327.458,408.015 326.819,409.059 326.458,408.67 C 326.281,408.483 326.067,407.711 326.292,407.37 C 326.854,407.321 327.896,406.698 327.731,407.256 C 327.889,407.15 328.047,407.043 328.206,406.937" fill="#808080" stroke="#ffffff" />
<path class="us" d="M 326.151,407.833 C 325.521,407.956 325.472,407.572 326.055,407.157 C 326.194,407.335 326.227,407.559 326.151,407.833" fill="#808080" stroke="#ffffff" />
<path class="ki" d="M 446.371,179.149 C 446.037,179.505 445.913,179.888 446.707,179.619 C 446.594,179.462 446.483,179.305 446.371,179.149" fill="#808080" stroke="#ffffff" />
<path class="fm" d="M 516.344,233.406 C 515.293,233.232 515.405,234.4 516.277,234.483 C 516.487,234.122 516.51,233.763 516.344,233.406" fill="#808080" stroke="#ffffff" />
<path class="mp" d="M 560.313,306.215 C 559.909,306.37 559.62,306.595 559.442,306.892 C 560.022,306.885 560.392,306.626 560.313,306.215" fill="#808080" stroke="#ffffff" />
<path class="mh" d="M 495.139,216.127 C 494.889,216.268 494.794,216.458 494.856,216.698 C 495.106,216.646 495.34,216.557 495.557,216.432 C 495.417,216.33 495.278,216.23 495.139,216.127" fill="#808080" stroke="#ffffff" />
<path class="tv" d="M 445.351,107.701 C 445.817,107.777 446.156,107.495 446.144,106.939 C 445.812,107.102 445.547,107.356 445.351,107.701" fill="#808080" stroke="#ffffff" />
<path class="nr" d="M 493.486,194.27 C 493.306,194.282 493.126,194.293 492.946,194.305 C 492.924,194.741 493.195,195.021 493.723,194.886 C 493.674,194.672 493.593,194.466 493.486,194.27" fill="#808080" stroke="#ffffff" />
<path class="gu" d="M 573.205,300 C 572.842,300.053 570.688,300.933 570.482,301.179 C 571.702,301.763 573.448,300.952 573.205,300" fill="#808080" stroke="#ffffff" />
</g>
</svg>
